<svg width="21" height="21" viewBox="0 0 21 21" fill="none" xmlns="http://www.w3.org/2000/svg">
<g clip-path="url(#clip0_963_16316)">
<path d="M19.1348 6.12517C19.0826 5.31727 18.7998 4.57915 18.355 3.9707" stroke="#FF9F30" stroke-width="1.5" stroke-linecap="round" stroke-linejoin="round"/>
<path d="M5.38135 2.7347C5.83056 2.06116 6.44443 1.56326 7.13395 1.25879" stroke="#FF9F30" stroke-width="1.5" stroke-linecap="round" stroke-linejoin="round"/>
<path d="M5.02628 17.659L4.53218 17.0969C3.84647 16.3166 3.30829 15.4181 2.94389 14.4454L1.96199 11.8243C1.71887 11.1753 1.92409 10.4435 2.46927 10.0156C3.28697 9.37373 4.49052 9.67617 4.90767 10.6283L5.73692 12.5212C6.35834 12.6877 7.78314 13.3359 8.51099 14.5966" stroke="#FF9F30" stroke-width="1.5" stroke-linecap="round" stroke-linejoin="round"/>
<path d="M5.7373 12.5231L7.81866 4.75544C8.04856 3.89744 8.93048 3.38827 9.78846 3.61817C10.6465 3.84807 11.1556 4.72998 10.9257 5.58797L9.67693 10.2486L11.4253 3.72372C11.6552 2.86572 12.5371 2.35655 13.3951 2.58645C14.2531 2.81635 14.7622 3.69827 14.5323 4.55627L12.6175 11.7026L13.6998 7.66334C13.9297 6.80535 14.8116 6.29618 15.6696 6.52608C16.5276 6.75597 17.0368 7.63788 16.8069 8.49588L14.3658 17.606C14.1697 18.338 13.6908 18.962 13.0346 19.341L12.4836 19.659" stroke="#FF9F30" stroke-width="1.5" stroke-linecap="round" stroke-linejoin="round"/>
</g>
<defs>
<clipPath id="clip0_963_16316">
<rect width="20" height="20" fill="white" transform="translate(0.5 0.5)"/>
</clipPath>
</defs>
</svg>
