<svg width="148" height="148" viewBox="0 0 148 148" fill="none" xmlns="http://www.w3.org/2000/svg">
<g clip-path="url(#clip0_693_14515)">
<path d="M57.6162 81.7181C52.2193 85.6962 44.3967 87.8186 37.6616 87.8186C28.2179 87.8186 19.7161 84.3256 13.2842 78.5164C12.7789 78.0596 13.2317 77.437 13.8381 77.7929C20.7795 81.8313 29.3621 84.2612 38.2276 84.2612C44.2066 84.2612 50.7842 83.024 56.832 80.4569C57.7456 80.0687 58.5097 81.055 57.6162 81.7181Z" fill="#FF9900"/>
<path d="M59.8598 79.1493C59.1726 78.268 55.2996 78.7328 53.5612 78.9391C53.0316 79.0039 52.9508 78.543 53.4278 78.2114C56.5124 76.0404 61.5738 76.667 62.1641 77.3946C62.7542 78.1265 62.0105 83.2 59.1118 85.6216C58.6671 85.9935 58.2426 85.7954 58.4407 85.3024C59.0918 83.6771 60.5511 80.0346 59.8598 79.1493Z" fill="#FF9900"/>
<path d="M53.6828 62.8883V60.7781C53.6828 60.4587 53.9253 60.2445 54.2163 60.2445H63.6642C63.9674 60.2445 64.2099 60.4629 64.2099 60.7781V62.5851C64.2059 62.8883 63.9512 63.2846 63.4985 63.9111L58.6027 70.9009C60.422 70.8564 62.3423 71.1273 63.9916 72.0571C64.3635 72.2673 64.4645 72.5746 64.4929 72.8778V75.1296C64.4929 75.4368 64.1534 75.7967 63.7976 75.6105C60.8908 74.0866 57.03 73.9208 53.8163 75.6267C53.4888 75.8047 53.1451 75.4489 53.1451 75.1416V73.0032C53.1451 72.6594 53.1491 72.0733 53.4928 71.5518L59.1646 63.4178H54.2285C53.9252 63.4178 53.6828 63.2036 53.6828 62.8883ZM19.2189 76.0554H16.3444C16.0696 76.0352 15.8513 75.8289 15.8311 75.5663V60.8144C15.8311 60.5193 16.0778 60.2849 16.385 60.2849H19.0653C19.3443 60.2969 19.5666 60.5113 19.5868 60.7781V62.7063H19.6394C20.3387 60.8427 21.6527 59.9734 23.4234 59.9734C25.2223 59.9734 26.3462 60.8427 27.1547 62.7063C27.85 60.8427 29.4307 59.9734 31.1246 59.9734C32.3293 59.9734 33.6472 60.4707 34.4517 61.5864C35.3612 62.8275 35.1752 64.6305 35.1752 66.2112L35.1713 75.5214C35.1713 75.8166 34.9246 76.0551 34.6175 76.0551H31.7472C31.4602 76.0349 31.2298 75.8044 31.2298 75.5214V67.7031C31.2298 67.0806 31.2862 65.5282 31.149 64.938C30.9347 63.9475 30.2918 63.6686 29.4591 63.6686C28.7638 63.6686 28.036 64.1335 27.7408 64.8773C27.4459 65.6212 27.4742 66.8662 27.4742 67.7031V75.5217C27.4742 75.8169 27.2275 76.0554 26.9203 76.0554H24.05C23.7589 76.0352 23.5327 75.8047 23.5327 75.5217L23.5287 67.7031C23.5287 66.0578 23.7996 63.6362 21.758 63.6362C19.6923 63.6362 19.7731 65.9972 19.7731 67.7031V75.5217C19.7726 75.8169 19.5261 76.0554 19.2189 76.0554ZM72.3436 59.9736C76.6087 59.9736 78.9171 63.6362 78.9171 68.2935C78.9171 72.793 76.3661 76.3627 72.3436 76.3627C68.1555 76.3627 65.8753 72.7001 65.8753 68.1359C65.8753 63.5432 68.1839 59.9736 72.3436 59.9736ZM72.3678 62.9853C70.2496 62.9853 70.116 65.8718 70.116 67.6707C70.116 69.4738 70.0876 73.3223 72.3435 73.3223C74.5709 73.3223 74.6761 70.2177 74.6761 68.3256C74.6761 67.0804 74.6235 65.5927 74.2477 64.4123C73.9243 63.3855 73.2815 62.9853 72.3678 62.9853ZM84.4474 76.0554H81.5851C81.2981 76.0352 81.0677 75.8048 81.0677 75.5217L81.0637 60.766C81.0879 60.4953 81.3265 60.2849 81.6176 60.2849H84.2817C84.5323 60.2969 84.7385 60.4669 84.7951 60.6973V62.9529H84.8477C85.6521 60.9357 86.78 59.9734 88.765 59.9734C90.0546 59.9734 91.3119 60.4384 92.1204 61.7117C92.8723 62.8922 92.8723 64.8772 92.8723 66.3042V75.5902C92.8401 75.8489 92.6015 76.0553 92.3184 76.0553H89.4361C89.1733 76.0351 88.9551 75.8409 88.9268 75.5902V67.5777C88.9268 65.9648 89.1126 63.6038 87.1277 63.6038C86.4284 63.6038 85.7855 64.0727 85.4662 64.7842C85.062 65.6857 85.0094 66.5833 85.0094 67.5777V75.5216C85.0054 75.8169 84.7547 76.0554 84.4474 76.0554ZM94.6714 74.8829C94.6714 74.139 95.3061 73.5407 96.0863 73.5407C96.8666 73.5407 97.5013 74.1388 97.5013 74.8829C97.5013 75.6227 96.8666 76.229 96.0863 76.229C95.3061 76.229 94.6714 75.6227 94.6714 74.8829ZM125.125 76.0593C124.826 76.0472 124.591 75.8169 124.591 75.5257V60.7739C124.607 60.5111 124.83 60.305 125.105 60.2888H126.16C126.451 60.2888 126.685 60.499 126.71 60.7739V62.9245C127.461 61.2186 128.86 59.8845 130.627 59.8845H130.841C132.717 59.8845 134.087 61.267 134.597 63.2763C135.393 61.2912 136.889 59.8845 138.862 59.8845H139.08C140.475 59.8845 141.817 60.7819 142.512 62.1484C143.183 63.4542 143.159 65.1925 143.159 66.6521L143.155 75.5257C143.159 75.8087 142.929 76.0391 142.642 76.0593H141.38C141.105 76.0472 140.883 75.8533 140.847 75.5985V66.6521C140.847 65.5969 140.899 64.477 140.471 63.515C140.034 62.5326 139.197 61.9181 138.3 61.8735C137.297 61.9221 136.375 62.6538 135.777 63.6402C135.001 64.9136 135.029 66.0618 135.029 67.5495V75.6065C134.993 75.8489 134.779 76.0391 134.516 76.0593H133.262C132.963 76.0472 132.725 75.8169 132.725 75.5257L132.717 66.0618C132.717 65.1925 132.664 64.1697 132.264 63.3895C131.799 62.5 130.966 61.9179 130.093 61.8734C129.188 61.9259 128.274 62.6172 127.732 63.4218C127.033 64.4487 126.899 65.7181 126.899 67.0238V75.5256C126.899 75.8085 126.669 76.0389 126.382 76.0591L125.125 76.0593ZM116.465 76.3666C112.386 76.3666 110.559 72.2067 110.559 68.0467C110.559 63.6726 112.706 59.8845 116.813 59.8845H117.031C121.025 59.8845 123.015 63.9191 123.015 68.079C123.015 72.4855 120.811 76.3666 116.68 76.3666H116.465ZM116.765 74.3492C118.107 74.3049 119.166 73.4721 119.792 72.0853C120.355 70.8402 120.464 69.413 120.464 68.0467C120.464 66.5591 120.302 65.0066 119.603 63.7332C118.976 62.6214 117.901 61.9139 116.761 61.8735C115.491 61.9181 114.355 62.7791 113.785 64.1051C113.272 65.2533 113.114 66.7774 113.114 68.0468C113.114 69.4739 113.3 71.1233 113.89 72.3644C114.464 73.5407 115.568 74.3048 116.765 74.3492ZM103.719 74.2846C105.55 74.2281 106.512 72.7606 106.909 70.8604C106.989 70.6218 107.171 70.4399 107.438 70.4399L108.647 70.4358C108.934 70.448 109.197 70.6664 109.173 70.9331C108.615 74.1714 106.662 76.3664 103.881 76.3664H103.662C99.6117 76.3664 97.8652 72.2994 97.8652 68.1719C97.8652 64.0766 99.6359 59.8843 103.687 59.8843H103.905C106.719 59.8843 108.724 62.0511 109.16 65.2894C109.16 65.5319 108.934 65.7423 108.667 65.7705L107.402 65.7543C107.135 65.7179 106.961 65.4915 106.921 65.2369C106.618 63.4299 105.579 61.9907 103.848 61.9341C101.095 62.0232 100.311 65.4109 100.311 68.0184C100.311 70.529 100.966 74.1956 103.719 74.2846ZM51.2692 73.3507C50.7437 72.623 50.1858 72.0328 50.1858 70.6866V66.2073C50.1858 64.3113 50.3192 62.569 48.9204 61.2632C47.8168 60.204 45.9895 59.832 44.5907 59.832C41.8578 59.832 38.8016 60.8507 38.1629 64.2305C38.0941 64.5902 38.3568 64.7802 38.5912 64.8328L41.3766 65.1319C41.6393 65.1198 41.8295 64.8652 41.8779 64.6064C42.1164 63.4422 43.0907 62.8803 44.1863 62.8803C44.7806 62.8803 45.4517 63.0986 45.7994 63.6282C46.2037 64.2184 46.1511 65.0269 46.1511 65.71V66.082C44.4854 66.2719 42.3064 66.3933 40.7459 67.0806C38.943 67.8568 37.6816 69.4456 37.6816 71.7782C37.6816 74.7658 39.5613 76.2574 41.983 76.2574C44.0245 76.2574 45.1445 75.7765 46.7212 74.1672C47.2427 74.9233 47.4165 75.2912 48.3705 76.0836C48.5849 76.1968 48.8597 76.1846 49.0496 76.015L49.0536 76.023C49.6277 75.5136 50.6706 74.6041 51.2569 74.1149C51.4916 73.9208 51.4512 73.6095 51.2692 73.3507ZM45.6134 72.0571C45.1565 72.8658 44.4288 73.3629 43.6245 73.3629C42.5209 73.3629 41.8739 72.522 41.8739 71.2809C41.8739 68.8311 44.0691 68.3864 46.1511 68.3864V69.0089C46.1513 70.1287 46.1795 71.0627 45.6134 72.0571ZM13.5873 73.3507C13.0618 72.623 12.504 72.0328 12.504 70.6866V66.2073C12.504 64.3113 12.6374 62.569 11.2387 61.2632C10.135 60.204 8.3076 59.832 6.909 59.832C4.17608 59.832 1.12382 60.8507 0.481109 64.2305C0.416344 64.5902 0.675094 64.7802 0.90948 64.8328L3.69898 65.1319C3.95773 65.1198 4.14771 64.8652 4.19628 64.6064C4.43483 63.4422 5.41324 62.8803 6.50869 62.8803C7.09897 62.8803 7.77006 63.0986 8.12179 63.6282C8.52194 64.2184 8.46936 65.0269 8.46936 65.71V66.082C6.80383 66.2719 4.62481 66.3933 3.06429 67.0806C1.26538 67.8568 0 69.4456 0 71.7782C0 74.7658 1.88388 76.2574 4.30145 76.2574C6.34709 76.2574 7.46289 75.7765 9.0396 74.1672C9.56512 74.9233 9.73489 75.2912 10.6889 76.0836C10.9033 76.1968 11.1781 76.1846 11.368 76.015L11.3762 76.023C11.9503 75.5136 12.9932 74.6041 13.5794 74.1149C13.8138 73.9208 13.7733 73.6095 13.5873 73.3507ZM7.93166 72.0571C7.47476 72.8658 6.75125 73.3629 5.94277 73.3629C4.83915 73.3629 4.19628 72.522 4.19628 71.2809C4.19628 68.8311 6.39134 68.3864 8.46936 68.3864V69.0089C8.46936 70.1287 8.49758 71.0627 7.93166 72.0571ZM146.143 60.4465C146.834 60.4465 147.408 61.0044 147.408 61.7079C147.408 62.3952 146.842 62.9733 146.143 62.9733C145.447 62.9733 144.881 62.4074 144.881 61.7079C144.881 60.9963 145.455 60.4465 146.143 60.4465ZM146.147 60.204C145.338 60.204 144.639 60.8589 144.639 61.7119C144.639 62.5488 145.326 63.2157 146.147 63.2157C146.971 63.2157 147.651 62.5406 147.651 61.7119C147.651 60.8589 146.959 60.204 146.147 60.204ZM145.581 62.5568H145.904V61.8777H146.203C146.321 61.8777 146.353 61.9262 146.377 62.0232C146.377 62.0474 146.434 62.4761 146.438 62.5568H146.798C146.753 62.476 146.729 62.2454 146.713 62.108C146.68 61.8937 146.664 61.7441 146.434 61.7281C146.551 61.6877 146.753 61.6229 146.753 61.3116C146.753 60.8669 146.361 60.8669 146.159 60.8669H145.581V62.5568ZM145.896 61.1378H146.167C146.256 61.1378 146.418 61.1378 146.418 61.3682C146.418 61.4572 146.377 61.6067 146.159 61.6067H145.896V61.1378Z" fill="#221F1F"/>
</g>
<defs>
<clipPath id="clip0_693_14515">
<rect width="147.651" height="147.651" fill="white"/>
</clipPath>
</defs>
</svg>
