<svg width="64" height="64" viewBox="0 0 64 64" fill="none" xmlns="http://www.w3.org/2000/svg">
<g clip-path="url(#clip0_695_14571)">
<path fill-rule="evenodd" clip-rule="evenodd" d="M56.6241 56.5209C50.0061 61.4009 40.4161 64.0009 32.1601 64.0009C20.5601 64.0009 10.1561 59.7209 2.27006 52.5949C1.67006 52.0349 2.20606 51.2709 2.95006 51.7069C11.4601 56.6609 22.0001 59.6409 32.8521 59.6409C40.6891 59.6048 48.4417 58.0198 55.6641 54.9769C56.7841 54.5009 57.7241 55.7089 56.6241 56.5209ZM59.3761 53.3729C58.5361 52.2929 53.7841 52.8629 51.6561 53.1129C51.0061 53.1929 50.9081 52.6269 51.4921 52.2209C55.2921 49.5609 61.4801 50.3269 62.2041 51.2209C62.9281 52.1149 62.0161 58.3409 58.4641 61.3089C57.9181 61.7649 57.3981 61.5229 57.6641 60.9169C58.4641 58.9249 60.2521 54.4569 59.4041 53.3729" fill="#FF9900"/>
<path fill-rule="evenodd" clip-rule="evenodd" d="M36.8599 27.728C36.8599 31.112 36.9459 33.934 35.2359 36.938C33.8359 39.378 31.6359 40.884 29.2259 40.884C25.8919 40.884 23.9379 38.344 23.9379 34.594C23.9379 27.194 30.5699 25.848 36.8619 25.848L36.8599 27.728ZM45.6219 48.896C45.0479 49.41 44.2179 49.446 43.5699 49.104C40.6899 46.71 40.1619 45.598 38.5859 43.314C33.8219 48.174 30.4379 49.628 24.2699 49.628C16.9539 49.628 11.2739 45.12 11.2739 36.094C11.2739 29.046 15.0839 24.246 20.5339 21.9C25.2479 19.824 31.8339 19.46 36.8639 18.9V17.8C36.8639 15.736 37.0239 13.292 35.8039 11.51C34.7539 9.91 32.7239 9.25 30.9299 9.25C27.6199 9.25 24.6759 10.95 23.9559 14.466C23.8099 15.266 23.2359 16.018 22.4419 16.054L13.9999 15.11C13.2919 14.95 12.4999 14.378 12.7059 13.31C14.6559 3.08 23.8899 0 32.1479 0C36.3739 0 41.8959 1.124 45.2279 4.324C49.4539 8.27 49.0519 13.534 49.0519 19.264V32.8C49.0519 36.868 50.7379 38.65 52.3259 40.85C52.8759 41.65 52.9979 42.57 52.2899 43.158C50.0484 45.0534 47.8295 46.9756 45.6339 48.924L45.6219 48.9" fill="white"/>
</g>
<defs>
<clipPath id="clip0_695_14571">
<rect width="64" height="64" fill="white"/>
</clipPath>
</defs>
</svg>
