<svg width="21" height="23" viewBox="0 0 21 23" fill="none" xmlns="http://www.w3.org/2000/svg">
<path d="M18.4153 7.19868C18.274 7.05734 18.2033 6.91599 18.0619 6.77465C18.7687 5.92658 19.3341 4.5838 19.3341 3.38236C19.3341 2.74631 19.1927 2.2516 18.8393 1.89824C17.9913 1.12084 15.8711 2.18093 15.3057 2.74631C14.0336 1.82756 12.1961 0.979492 10.5 0.979492C8.80383 0.979492 6.96634 1.82756 5.69423 2.81698C5.12885 2.32227 3.00867 1.26218 2.1606 1.96891C1.87791 2.2516 1.66589 2.67564 1.66589 3.24102C1.66589 4.44245 2.1606 5.92658 2.938 6.77465C2.79666 6.91599 2.72598 7.05734 2.58464 7.19868C1.52455 8.32945 0.252441 9.81357 0.252441 11.1564C0.252441 13.2765 2.37262 15.6087 2.44329 15.7501C2.51397 15.7501 2.58464 15.8207 2.65531 15.8207C2.86733 15.8207 3.07935 15.6794 3.07935 15.4674V15.326V15.1847C3.50338 16.4568 4.42213 18.1529 4.56347 18.4356C4.63414 18.577 4.70482 18.6476 4.84616 18.6476C5.05818 18.6476 5.19953 18.5063 5.19953 18.2943V18.1529C5.19953 17.9409 5.19953 17.6582 5.2702 17.3049C5.69423 17.9409 6.33029 18.577 6.89567 19.0717C6.75432 18.6476 6.5423 18.2236 6.33029 17.7289C5.05818 14.7607 6.54231 13.6299 7.3197 13.0645C7.39038 12.9938 7.53172 12.9232 7.60239 12.8525C7.60239 12.0751 7.53172 11.2977 7.39038 10.7323C7.3197 10.803 7.10769 10.8737 6.96634 10.8737C6.40096 10.8737 5.90625 10.379 5.90625 9.81357C5.90625 9.24819 6.40096 8.75348 6.96634 8.75348C7.53172 8.75348 8.02643 9.24819 8.02643 9.81357C8.02643 9.95492 8.02643 10.0256 7.95576 10.1669C8.23845 10.7323 8.37979 11.6511 8.37979 12.9938V13.1352C8.30912 13.2765 8.16778 13.4179 7.81441 13.7006C7.10769 14.2659 5.97692 15.114 7.03701 17.5876C7.24903 18.1529 7.46105 18.6476 7.67307 19.0717C7.81441 19.425 7.95576 19.7077 8.02643 19.9904C8.16778 20.2731 8.23845 20.5558 8.37979 20.7678C8.45047 20.8385 8.45047 20.9092 8.52114 20.9798C8.59181 21.0505 8.59181 21.1212 8.66248 21.1919C8.73316 21.2625 8.73316 21.3332 8.80383 21.4039C8.8745 21.4746 8.8745 21.5452 8.94518 21.5452C9.01585 21.6159 9.01585 21.6866 9.08652 21.6866L9.22787 21.8279C9.29854 21.8986 9.36921 21.8986 9.43988 21.9693C9.51056 21.9693 9.58123 22.0399 9.58123 22.0399C9.6519 22.1106 9.72257 22.1106 9.86392 22.1106C9.93459 22.1106 9.93459 22.1106 10.0053 22.1813C10.1466 22.1813 10.288 22.252 10.5 22.252C10.712 22.252 10.8533 22.252 10.9947 22.1813H11.136C11.2067 22.1813 11.348 22.1106 11.4187 22.1106C11.4894 22.1106 11.4894 22.0399 11.5601 22.0399C11.6307 21.9693 11.7721 21.8986 11.8428 21.8986C11.8428 21.8986 11.9134 21.8986 11.9134 21.8279L12.1961 21.5452C12.2668 21.4746 12.2668 21.4746 12.2668 21.4039C12.3375 21.3332 12.4081 21.2625 12.4081 21.1212C12.4788 21.0505 12.4788 20.9798 12.5495 20.9092C12.6202 20.8385 12.6908 20.6972 12.6908 20.6265C12.6908 20.5558 12.7615 20.4851 12.7615 20.4145C12.9735 19.9904 13.1149 19.5664 13.3269 19.0717C13.5389 18.6476 13.6802 18.1529 13.9629 17.5876C15.023 15.114 13.8923 14.2659 13.1855 13.7006C12.8322 13.4179 12.6908 13.3472 12.6908 13.2059V13.0645C12.6908 11.7217 12.8322 10.803 13.1149 10.2376C13.0442 10.0963 13.0442 10.0256 13.0442 9.88424C13.0442 9.31886 13.5389 8.82415 14.1043 8.82415C14.6697 8.82415 15.1644 9.31886 15.1644 9.88424C15.1644 10.4496 14.599 10.8737 14.0336 10.8737C13.8923 10.8737 13.6802 10.803 13.5389 10.7323C13.3976 11.2977 13.3269 12.0751 13.3269 12.8525C13.3976 12.9232 13.5389 12.9938 13.6096 13.0645C14.387 13.7006 15.8711 14.8313 14.599 17.7289C14.387 18.2943 14.1749 18.789 13.9629 19.213C13.9629 19.2837 13.8923 19.3544 13.8923 19.425C14.5283 18.8597 15.235 18.0823 15.6591 17.3755C15.7297 17.7289 15.7297 18.0823 15.7297 18.2943C15.7297 18.4356 15.8004 18.6476 16.0124 18.6476C16.1538 18.7183 16.3658 18.6476 16.4365 18.4356C16.5778 18.1529 17.4259 16.4568 17.9206 15.1847V15.3967C17.9206 15.5381 17.9913 15.6794 18.1326 15.7501C18.274 15.8207 18.4153 15.8207 18.5567 15.6794C18.6273 15.6087 20.7475 13.2765 20.7475 11.0857C20.7475 9.81357 19.4754 8.32945 18.4153 7.19868ZM4.28078 4.72514H4.13944C3.99809 4.72514 3.92742 4.65447 3.85675 4.5838C3.85675 4.5838 3.57405 4.15976 3.15002 4.15976C2.86733 4.15976 2.72598 4.01841 2.72598 3.8064C2.72598 3.59438 2.86733 3.45303 3.07935 3.45303C3.92742 3.45303 4.35145 4.15976 4.42213 4.23043C4.4928 4.37178 4.4928 4.5838 4.28078 4.72514ZM11.4894 19.425C11.6307 19.5664 11.6307 19.7784 11.4894 19.9198C11.4187 20.0611 11.2774 20.0611 11.2067 20.0611C11.136 20.0611 10.9947 20.0611 10.924 19.9904L10.5 19.4957L10.0759 19.9198C10.0053 20.0611 9.86392 20.0611 9.79325 20.0611C9.72257 20.0611 9.58123 20.0611 9.51056 19.9904C9.36921 19.8491 9.36921 19.6371 9.51056 19.4957L10.1466 18.8597V17.5169C9.08652 16.5981 9.08652 16.3155 9.08652 16.1741C9.08652 15.6794 9.6519 15.114 10.5 15.114C11.348 15.114 11.9134 15.6794 11.9134 16.1741C11.9134 16.3155 11.9134 16.5981 10.8533 17.5169V18.8597L11.4894 19.425ZM13.3976 5.64389C13.3269 5.71456 13.2562 5.71456 13.1855 5.71456C13.1149 5.71456 12.9735 5.64389 12.9028 5.57321C12.9028 5.57321 12.6202 5.21985 11.9134 5.21985C11.2067 5.21985 10.712 5.57321 10.712 5.64389C10.5706 5.78523 10.3586 5.78523 10.2173 5.64389C10.288 5.57321 9.79325 5.21985 9.08652 5.21985C8.37979 5.21985 8.0971 5.57321 8.0971 5.57321C7.95576 5.71456 7.74374 5.71456 7.60239 5.57321C7.46105 5.43187 7.46105 5.21985 7.60239 5.0785C7.60239 5.0785 8.16778 4.51312 9.15719 4.51312C9.79325 4.51312 10.288 4.72514 10.5706 4.93716C10.7827 4.72514 11.2774 4.51312 11.9134 4.51312C12.9028 4.51312 13.4682 5.0785 13.4682 5.0785C13.6096 5.29052 13.6096 5.50254 13.3976 5.64389ZM17.9206 3.8064C17.5672 3.8064 17.2845 4.15976 17.1432 4.37178C17.0725 4.44245 17.0019 4.51312 16.8605 4.51312C16.7898 4.51312 16.7192 4.51312 16.6485 4.44245C16.5071 4.37178 16.4365 4.15976 16.5071 3.94774C16.5071 3.87707 17.0725 3.09967 17.8499 3.09967C18.1326 3.09967 18.274 3.24102 18.274 3.45303C18.274 3.66505 18.1326 3.8064 17.9206 3.8064Z" fill="#3B72FF"/>
</svg>
