<svg width="21" height="22" viewBox="0 0 21 22" fill="none" xmlns="http://www.w3.org/2000/svg">
<path d="M18.303 6.31294C18.1617 6.1716 18.091 6.03025 17.9496 5.88891C18.6564 5.04083 19.2217 3.69805 19.2217 2.49662C19.2217 1.86057 19.0804 1.36586 18.727 1.01249C17.879 0.235095 15.7588 1.29518 15.1934 1.86057C13.9213 0.941822 12.0838 0.09375 10.3877 0.09375C8.69152 0.09375 6.85404 0.941822 5.58193 1.93124C5.01655 1.43653 2.89637 0.37644 2.0483 1.08317C1.76561 1.36586 1.55359 1.78989 1.55359 2.35527C1.55359 3.55671 2.0483 5.04083 2.8257 5.88891C2.68435 6.03025 2.61368 6.1716 2.47233 6.31294C1.41224 7.4437 0.140137 8.92783 0.140137 10.2706C0.140137 12.3908 2.26032 14.723 2.33099 14.8643C2.40166 14.8643 2.47233 14.935 2.54301 14.935C2.75502 14.935 2.96704 14.7937 2.96704 14.5816V14.4403V14.2989C3.39108 15.5711 4.30982 17.2672 4.45117 17.5499C4.52184 17.6912 4.59251 17.7619 4.73386 17.7619C4.94588 17.7619 5.08722 17.6206 5.08722 17.4085V17.2672C5.08722 17.0552 5.08722 16.7725 5.15789 16.4191C5.58193 17.0552 6.21798 17.6912 6.78336 18.1859C6.64202 17.7619 6.43 17.3379 6.21798 16.8432C4.94588 13.8749 6.43 12.7442 7.2074 12.1788C7.27807 12.1081 7.41942 12.0374 7.49009 11.9668C7.49009 11.1894 7.41942 10.412 7.27807 9.84657C7.2074 9.91725 6.99538 9.98792 6.85404 9.98792C6.28866 9.98792 5.79395 9.49321 5.79395 8.92783C5.79395 8.36245 6.28866 7.86774 6.85404 7.86774C7.41942 7.86774 7.91413 8.36245 7.91413 8.92783C7.91413 9.06917 7.91413 9.13985 7.84345 9.28119C8.12614 9.84657 8.26749 10.7653 8.26749 12.1081V12.2494C8.19682 12.3908 8.05547 12.5321 7.70211 12.8148C6.99538 13.3802 5.86462 14.2283 6.92471 16.7018C7.13673 17.2672 7.34874 17.7619 7.56076 18.1859C7.70211 18.5393 7.84345 18.822 7.91413 19.1047C8.05547 19.3874 8.12614 19.6701 8.26749 19.8821C8.33816 19.9528 8.33816 20.0234 8.40883 20.0941C8.47951 20.1648 8.47951 20.2354 8.55018 20.3061C8.62085 20.3768 8.62085 20.4475 8.69152 20.5181C8.7622 20.5888 8.7622 20.6595 8.83287 20.6595C8.90354 20.7302 8.90354 20.8008 8.97422 20.8008L9.11556 20.9422C9.18623 21.0128 9.25691 21.0128 9.32758 21.0835C9.39825 21.0835 9.46892 21.1542 9.46892 21.1542C9.5396 21.2249 9.61027 21.2249 9.75161 21.2249C9.82229 21.2249 9.82229 21.2249 9.89296 21.2955C10.0343 21.2955 10.1756 21.3662 10.3877 21.3662C10.5997 21.3662 10.741 21.3662 10.8824 21.2955H11.0237C11.0944 21.2955 11.2357 21.2249 11.3064 21.2249C11.3771 21.2249 11.3771 21.1542 11.4478 21.1542C11.5184 21.0835 11.6598 21.0128 11.7304 21.0128C11.7304 21.0128 11.8011 21.0128 11.8011 20.9422L12.0838 20.6595C12.1545 20.5888 12.1545 20.5888 12.1545 20.5181C12.2252 20.4475 12.2958 20.3768 12.2958 20.2354C12.3665 20.1648 12.3665 20.0941 12.4372 20.0234C12.5078 19.9528 12.5785 19.8114 12.5785 19.7407C12.5785 19.6701 12.6492 19.5994 12.6492 19.5287C12.8612 19.1047 13.0026 18.6807 13.2146 18.1859C13.4266 17.7619 13.5679 17.2672 13.8506 16.7018C14.9107 14.2283 13.78 13.3802 13.0732 12.8148C12.7199 12.5321 12.5785 12.4615 12.5785 12.3201V12.1788C12.5785 10.836 12.7199 9.91724 13.0026 9.35186C12.9319 9.21052 12.9319 9.13985 12.9319 8.9985C12.9319 8.43312 13.4266 7.93841 13.992 7.93841C14.5574 7.93841 15.0521 8.43312 15.0521 8.9985C15.0521 9.56388 14.4867 9.98792 13.9213 9.98792C13.78 9.98792 13.5679 9.91725 13.4266 9.84657C13.2852 10.412 13.2146 11.1894 13.2146 11.9668C13.2852 12.0374 13.4266 12.1081 13.4973 12.1788C14.2747 12.8148 15.7588 13.9456 14.4867 16.8432C14.2747 17.4085 14.0626 17.9033 13.8506 18.3273C13.8506 18.398 13.78 18.4686 13.78 18.5393C14.416 17.9739 15.1227 17.1965 15.5468 16.4898C15.6174 16.8432 15.6174 17.1965 15.6174 17.4085C15.6174 17.5499 15.6881 17.7619 15.9001 17.7619C16.0415 17.8326 16.2535 17.7619 16.3242 17.5499C16.4655 17.2672 17.3136 15.5711 17.8083 14.2989V14.511C17.8083 14.6523 17.879 14.7937 18.0203 14.8643C18.1617 14.935 18.303 14.935 18.4443 14.7937C18.515 14.723 20.6352 12.3908 20.6352 10.1999C20.6352 8.92783 19.3631 7.4437 18.303 6.31294ZM4.16848 3.8394H4.02713C3.88579 3.8394 3.81511 3.76873 3.74444 3.69805C3.74444 3.69805 3.46175 3.27402 3.03771 3.27402C2.75502 3.27402 2.61368 3.13267 2.61368 2.92066C2.61368 2.70864 2.75502 2.56729 2.96704 2.56729C3.81511 2.56729 4.23915 3.27402 4.30982 3.34469C4.38049 3.48604 4.38049 3.69805 4.16848 3.8394ZM11.3771 18.5393C11.5184 18.6807 11.5184 18.8927 11.3771 19.034C11.3064 19.1754 11.1651 19.1754 11.0944 19.1754C11.0237 19.1754 10.8824 19.1754 10.8117 19.1047L10.3877 18.61L9.96363 19.034C9.89296 19.1754 9.75161 19.1754 9.68094 19.1754C9.61027 19.1754 9.46892 19.1754 9.39825 19.1047C9.25691 18.9633 9.25691 18.7513 9.39825 18.61L10.0343 17.9739V16.6311C8.97421 15.7124 8.97422 15.4297 8.97422 15.2884C8.97422 14.7937 9.5396 14.2283 10.3877 14.2283C11.2357 14.2283 11.8011 14.7937 11.8011 15.2884C11.8011 15.4297 11.8011 15.7124 10.741 16.6311V17.9739L11.3771 18.5393ZM13.2852 4.75814C13.2146 4.82882 13.1439 4.82882 13.0732 4.82882C13.0026 4.82882 12.8612 4.75814 12.7905 4.68747C12.7905 4.68747 12.5078 4.33411 11.8011 4.33411C11.0944 4.33411 10.5997 4.68747 10.5997 4.75814C10.4583 4.89949 10.2463 4.89949 10.105 4.75814C10.1756 4.68747 9.68094 4.33411 8.97422 4.33411C8.26749 4.33411 7.9848 4.68747 7.9848 4.68747C7.84345 4.82882 7.63144 4.82882 7.49009 4.68747C7.34874 4.54613 7.34874 4.33411 7.49009 4.19276C7.49009 4.19276 8.05547 3.62738 9.04489 3.62738C9.68094 3.62738 10.1756 3.8394 10.4583 4.05142C10.6704 3.8394 11.1651 3.62738 11.8011 3.62738C12.7905 3.62738 13.3559 4.19276 13.3559 4.19276C13.4973 4.40478 13.4973 4.6168 13.2852 4.75814ZM17.8083 2.92066C17.4549 2.92066 17.1722 3.27402 17.0309 3.48604C16.9602 3.55671 16.8895 3.62738 16.7482 3.62738C16.6775 3.62738 16.6069 3.62738 16.5362 3.55671C16.3948 3.48604 16.3242 3.27402 16.3948 3.062C16.3948 2.99133 16.9602 2.21393 17.7376 2.21393C18.0203 2.21393 18.1617 2.35527 18.1617 2.56729C18.1617 2.77931 18.0203 2.92066 17.8083 2.92066Z" fill="white"/>
</svg>
