<svg width="20" height="24" viewBox="0 0 20 24" fill="none" xmlns="http://www.w3.org/2000/svg">
<path fill-rule="evenodd" clip-rule="evenodd" d="M18.5714 18.4286H18.1429V21.4286H18.5714C18.9124 21.4286 19.2394 21.564 19.4806 21.8051C19.7217 22.0463 19.8571 22.3733 19.8571 22.7143C19.8571 23.0553 19.7217 23.3823 19.4806 23.6234C19.2394 23.8645 18.9124 24 18.5714 24H4.21428C3.13447 24 2.09889 23.571 1.33535 22.8075C0.571806 22.044 0.142853 21.0084 0.142853 19.9286V3.85714C0.142853 2.83417 0.549229 1.85309 1.27258 1.12973C1.99594 0.406376 2.97702 0 4 0L16 0C17.023 0 18.0041 0.406376 18.7274 1.12973C19.4508 1.85309 19.8571 2.83417 19.8571 3.85714V17.1429C19.8571 17.4839 19.7217 17.8109 19.4806 18.052C19.2394 18.2931 18.9124 18.4286 18.5714 18.4286ZM4.21428 18.4286H15.5714V21.4286H4.21428C3.81646 21.4286 3.43493 21.2705 3.15362 20.9892C2.87232 20.7079 2.71428 20.3264 2.71428 19.9286C2.71428 19.5307 2.87232 19.1492 3.15362 18.8679C3.43493 18.5866 3.81646 18.4286 4.21428 18.4286ZM10.2931 4.84971C10.0756 4.80636 9.85114 4.8118 9.63595 4.86564C9.42076 4.91947 9.22019 5.02036 9.04869 5.16104C8.87719 5.30172 8.73902 5.47869 8.64414 5.67919C8.54926 5.8797 8.50003 6.09875 8.5 6.32057C8.5 6.60473 8.38711 6.87725 8.18618 7.07819C7.98525 7.27912 7.71273 7.392 7.42857 7.392C7.14441 7.392 6.87188 7.27912 6.67095 7.07819C6.47002 6.87725 6.35714 6.60473 6.35714 6.32057C6.35714 5.64633 6.54425 4.98531 6.89767 4.41112C7.25108 3.83692 7.75691 3.37207 8.35886 3.06831C8.9608 2.76456 9.63523 2.63383 10.3071 2.69066C10.9789 2.7475 11.6218 2.98968 12.1642 3.39024C12.7065 3.7908 13.1271 4.33402 13.379 4.95942C13.6309 5.58483 13.7043 6.26789 13.5911 6.93255C13.4778 7.59721 13.1823 8.21739 12.7374 8.72405C12.2926 9.23072 11.7158 9.60398 11.0714 9.80229C11.0644 10.0864 10.9447 10.3562 10.7388 10.5521C10.5329 10.7481 10.2576 10.8542 9.97342 10.8471C9.68926 10.8401 9.41954 10.7205 9.22359 10.5145C9.02764 10.3086 8.92152 10.0333 8.92857 9.74914V8.892C8.92857 8.30057 9.40857 7.82057 10 7.82057C10.372 7.81988 10.7304 7.68099 11.0058 7.43086C11.2811 7.18074 11.4537 6.83723 11.49 6.46702C11.5263 6.0968 11.4238 5.7263 11.2023 5.42744C10.9808 5.12858 10.6579 4.92268 10.2931 4.84971ZM10 15.2297C9.60217 15.2297 9.22064 15.0717 8.93933 14.7904C8.65803 14.5091 8.5 14.1275 8.5 13.7297C8.5 13.3319 8.65803 12.9504 8.93933 12.6691C9.22064 12.3877 9.60217 12.2297 10 12.2297C10.3978 12.2297 10.7794 12.3877 11.0607 12.6691C11.342 12.9504 11.5 13.3319 11.5 13.7297C11.5 14.1275 11.342 14.5091 11.0607 14.7904C10.7794 15.0717 10.3978 15.2297 10 15.2297Z" fill="#FF9F30"/>
</svg>
