<svg width="19" height="19" viewBox="0 0 19 19" fill="none" xmlns="http://www.w3.org/2000/svg">
<g clip-path="url(#clip0_864_800)">
<path d="M9.98642 18.04C8.10033 15.9635 5.54248 14.6185 2.76273 14.2415C2.44633 14.2065 2.15411 14.0554 1.94248 13.8177C1.73084 13.5799 1.61479 13.2721 1.61672 12.9538V2.58827C1.61671 2.40228 1.65699 2.2185 1.73479 2.04956C1.81259 1.88063 1.92606 1.73055 2.0674 1.60966C2.20625 1.49097 2.36876 1.40317 2.54415 1.35211C2.71953 1.30105 2.90378 1.28789 3.08464 1.3135C5.74271 1.75466 8.17434 3.07935 9.98642 5.07343V18.04Z" stroke="white" stroke-width="1.28764" stroke-linecap="round" stroke-linejoin="round"/>
<path d="M9.98633 18.04C11.8724 15.9635 14.4302 14.6185 17.21 14.2415C17.5264 14.2065 17.8187 14.0554 18.0302 13.8177C18.2419 13.5799 18.358 13.2721 18.356 12.9538V2.58827C18.356 2.40228 18.3157 2.2185 18.2379 2.04956C18.1602 1.88063 18.0467 1.73055 17.9053 1.60966C17.7665 1.49097 17.604 1.40317 17.4287 1.35211C17.2532 1.30105 17.069 1.28789 16.8881 1.3135C14.23 1.75466 11.7984 3.07935 9.98633 5.07343V18.04Z" stroke="white" stroke-width="1.28764" stroke-linecap="round" stroke-linejoin="round"/>
</g>
<defs>
<clipPath id="clip0_864_800">
<rect width="18.027" height="18.027" fill="white" transform="translate(0.9729 0.65625)"/>
</clipPath>
</defs>
</svg>
