<svg width="15" height="15" viewBox="0 0 15 15" fill="none" xmlns="http://www.w3.org/2000/svg">
<path d="M7.50002 14.162C6.03526 12.5493 4.04881 11.5048 1.89002 11.212C1.6443 11.1848 1.41736 11.0675 1.253 10.8829C1.08865 10.6982 0.998519 10.4592 1.00002 10.212V2.16199C1.00001 2.01755 1.03129 1.87482 1.09171 1.74362C1.15213 1.61243 1.24025 1.49588 1.35002 1.40199C1.45785 1.30981 1.58406 1.24163 1.72027 1.20197C1.85647 1.16232 1.99956 1.1521 2.14002 1.17199C4.20431 1.5146 6.09274 2.54337 7.50002 4.09199V14.162Z" fill="#9C9B9B" stroke="white" stroke-linecap="round" stroke-linejoin="round"/>
<path d="M7.5 14.162C8.96476 12.5493 10.9512 11.5048 13.11 11.212C13.3557 11.1848 13.5827 11.0675 13.747 10.8829C13.9114 10.6982 14.0015 10.4592 14 10.212V2.16199C14 2.01755 13.9687 1.87482 13.9083 1.74362C13.8479 1.61243 13.7598 1.49588 13.65 1.40199C13.5422 1.30981 13.416 1.24163 13.2798 1.20197C13.1435 1.16232 13.0005 1.1521 12.86 1.17199C10.7957 1.5146 8.90728 2.54337 7.5 4.09199V14.162Z" fill="#9C9B9B" stroke="white" stroke-linecap="round" stroke-linejoin="round"/>
</svg>
