<svg width="18" height="18" viewBox="0 0 18 18" fill="none" xmlns="http://www.w3.org/2000/svg">
<path d="M11.8525 15.5579C11.8525 15.7197 11.8152 15.8793 11.7433 16.0243C11.6714 16.1693 11.5671 16.2957 11.4383 16.3936C11.3096 16.4916 11.16 16.5585 11.0011 16.5891C10.8422 16.6197 10.6784 16.6132 10.5225 16.5701L3.17247 14.5282C2.95153 14.4671 2.75667 14.3353 2.61763 14.1531C2.4786 13.9708 2.40303 13.748 2.40247 13.5188V2.23968C2.40243 2.07788 2.43979 1.91826 2.51162 1.77329C2.58346 1.62831 2.68782 1.5019 2.81657 1.4039C2.94532 1.30592 3.09498 1.23901 3.25385 1.20841C3.41273 1.1778 3.57653 1.18433 3.73247 1.22748L11.0825 3.60118C11.3037 3.6624 11.4989 3.79447 11.6379 3.97716C11.777 4.15985 11.8524 4.38308 11.8525 4.61268V15.5579Z" stroke="#7A7A7A" stroke-width="1.2" stroke-linecap="round" stroke-linejoin="round"/>
<path d="M3.45245 1.18945H13.9525C14.2309 1.18945 14.498 1.30008 14.6949 1.49699C14.8919 1.6939 15.0025 1.96098 15.0025 2.23945V13.2645C15.0025 13.5429 14.8919 13.81 14.6949 14.0069C14.498 14.2038 14.2309 14.3145 13.9525 14.3145H11.8525" stroke="#7A7A7A" stroke-width="1.2" stroke-linecap="round" stroke-linejoin="round"/>
</svg>
