<svg width="25" height="25" viewBox="0 0 25 25" fill="none" xmlns="http://www.w3.org/2000/svg">
<g clip-path="url(#clip0_512_10721)">
<path fill-rule="evenodd" clip-rule="evenodd" d="M11.3839 2.95142C9.61786 1.96214 6.31429 0.749636 2.67143 0.319279C1.20357 0.146064 0 1.35678 0 2.83535V17.1211C0 18.6014 1.20893 19.78 2.66429 20.0443C5.95 20.6407 8.68393 22.2157 10.4286 23.4621C10.7214 23.6711 11.0446 23.8282 11.3839 23.9371V2.95142ZM13.6161 23.9371C13.9554 23.83 14.2768 23.6711 14.5696 23.4639C16.3143 22.2175 19.0482 20.6407 22.3357 20.0443C23.7911 19.78 25 18.6014 25 17.1211V2.83535C25 1.35678 23.7964 0.146064 22.3286 0.321064C18.6857 0.753207 15.3821 1.96392 13.6161 2.95321V23.9389V23.9371Z" fill="#3B72FF"/>
</g>
<defs>
<clipPath id="clip0_512_10721">
<rect width="25" height="25" fill="white"/>
</clipPath>
</defs>
</svg>
