<svg width="13" height="15" viewBox="0 0 13 15" fill="none" xmlns="http://www.w3.org/2000/svg">
<path d="M5.09998 4.55469C5.09998 4.25802 5.18795 3.96801 5.35278 3.72134C5.5176 3.47466 5.75187 3.2824 6.02595 3.16887C6.30004 3.05534 6.60164 3.02564 6.89262 3.08351C7.18359 3.14139 7.45086 3.28425 7.66064 3.49403C7.87042 3.70381 8.01328 3.97108 8.07116 4.26206C8.12904 4.55303 8.09933 4.85463 7.9858 5.12872C7.87227 5.40281 7.68001 5.63707 7.43334 5.8019C7.18666 5.96672 6.89665 6.05469 6.59998 6.05469V6.55469" stroke="#9C9B9B" stroke-linecap="round" stroke-linejoin="round"/>
<path d="M6.59998 8.61719C6.46191 8.61719 6.34998 8.50526 6.34998 8.36719C6.34998 8.22912 6.46191 8.11719 6.59998 8.11719" stroke="#9C9B9B" stroke-linecap="round" stroke-linejoin="round"/>
<path d="M6.59998 8.61719C6.73805 8.61719 6.84998 8.50526 6.84998 8.36719C6.84998 8.22912 6.73805 8.11719 6.59998 8.11719" stroke="#9C9B9B" stroke-linecap="round" stroke-linejoin="round"/>
<path d="M12.1 14H2.59998C2.20216 14 1.82062 13.842 1.53932 13.5607C1.25802 13.2794 1.09998 12.8978 1.09998 12.5C1.09998 12.1022 1.25802 11.7206 1.53932 11.4393C1.82062 11.158 2.20216 11 2.59998 11H11.1C11.3652 11 11.6196 10.8946 11.8071 10.7071C11.9946 10.5196 12.1 10.2652 12.1 10V2C12.1 1.73478 11.9946 1.48043 11.8071 1.29289C11.6196 1.10536 11.3652 1 11.1 1H2.59998C2.20899 0.999861 1.8334 1.15239 1.55322 1.42511C1.27303 1.69782 1.11041 2.06915 1.09998 2.46V12.46" stroke="#9C9B9B" stroke-linecap="round" stroke-linejoin="round"/>
<path d="M11.1 11V14" stroke="#9C9B9B" stroke-linecap="round" stroke-linejoin="round"/>
</svg>
