<svg width="8" height="8" viewBox="0 0 8 8" fill="none" xmlns="http://www.w3.org/2000/svg">
<path fill-rule="evenodd" clip-rule="evenodd" d="M3.64286 0.920425C3.07771 0.603854 2.02057 0.215854 0.854857 0.0781396C0.385143 0.022711 0 0.41014 0 0.883282V5.45471C0 5.92842 0.386857 6.30557 0.852571 6.39014C1.904 6.581 2.77886 7.085 3.33714 7.48385C3.43086 7.55071 3.53429 7.601 3.64286 7.63585V0.920425ZM4.35714 7.63585C4.46571 7.60157 4.56857 7.55071 4.66229 7.48442C5.22057 7.08557 6.09543 6.581 7.14743 6.39014C7.61314 6.30557 8 5.92842 8 5.45471V0.883282C8 0.41014 7.61486 0.022711 7.14514 0.078711C5.97943 0.216997 4.92229 0.604425 4.35714 0.920997V7.63642V7.63585Z" fill="white"/>
</svg>
