<svg width="12" height="15" viewBox="0 0 12 15" fill="none" xmlns="http://www.w3.org/2000/svg">
<path fill-rule="evenodd" clip-rule="evenodd" d="M11.1 11.4121H10.85V13.1621H11.1C11.2989 13.1621 11.4897 13.2411 11.6303 13.3818C11.771 13.5224 11.85 13.7132 11.85 13.9121C11.85 14.111 11.771 14.3018 11.6303 14.4424C11.4897 14.5831 11.2989 14.6621 11.1 14.6621H2.72498C2.09509 14.6621 1.491 14.4119 1.0456 13.9665C0.600198 13.5211 0.349976 12.917 0.349976 12.2871V2.91211C0.349976 2.31537 0.587028 1.74308 1.00899 1.32112C1.43094 0.899162 2.00324 0.662109 2.59998 0.662109L9.59998 0.662109C10.1967 0.662109 10.769 0.899162 11.191 1.32112C11.6129 1.74308 11.85 2.31537 11.85 2.91211V10.6621C11.85 10.861 11.771 11.0518 11.6303 11.1924C11.4897 11.3331 11.2989 11.4121 11.1 11.4121ZM2.72498 11.4121H9.34998V13.1621H2.72498C2.49291 13.1621 2.27035 13.0699 2.10626 12.9058C1.94216 12.7417 1.84998 12.5192 1.84998 12.2871C1.84998 12.055 1.94216 11.8325 2.10626 11.6684C2.27035 11.5043 2.49291 11.4121 2.72498 11.4121ZM6.27098 3.49111C6.14407 3.46582 6.01315 3.46899 5.88762 3.5004C5.76209 3.5318 5.64509 3.59065 5.54505 3.67272C5.445 3.75478 5.3644 3.85801 5.30906 3.97497C5.25371 4.09193 5.22499 4.21971 5.22498 4.34911C5.22498 4.51487 5.15913 4.67384 5.04192 4.79105C4.92471 4.90826 4.76574 4.97411 4.59998 4.97411C4.43422 4.97411 4.27524 4.90826 4.15803 4.79105C4.04082 4.67384 3.97498 4.51487 3.97498 4.34911C3.97497 3.9558 4.08413 3.57021 4.29028 3.23526C4.49644 2.90031 4.79151 2.62915 5.14264 2.45196C5.49378 2.27477 5.8872 2.19851 6.27911 2.23166C6.67101 2.26482 7.04603 2.40609 7.36241 2.63975C7.67879 2.87341 7.92411 3.19029 8.07107 3.55511C8.21802 3.91993 8.26085 4.31838 8.19477 4.7061C8.1287 5.09381 7.95632 5.45559 7.69682 5.75114C7.43732 6.04669 7.10089 6.26443 6.72498 6.38011C6.72086 6.54587 6.65107 6.70321 6.53096 6.81751C6.41084 6.93181 6.25024 6.99372 6.08448 6.98961C5.91872 6.9855 5.76138 6.91571 5.64707 6.79559C5.53277 6.67547 5.47086 6.51487 5.47498 6.34911V5.84911C5.47498 5.50411 5.75498 5.22411 6.09998 5.22411C6.31697 5.2237 6.52607 5.14268 6.68669 4.99678C6.8473 4.85087 6.94798 4.65049 6.96916 4.43453C6.99035 4.21858 6.93053 4.00245 6.80133 3.82812C6.67213 3.65378 6.48375 3.53367 6.27098 3.49111ZM6.09998 9.54611C5.86791 9.54611 5.64535 9.45392 5.48126 9.28983C5.31716 9.12573 5.22498 8.90317 5.22498 8.67111C5.22498 8.43904 5.31716 8.21649 5.48126 8.05239C5.64535 7.8883 5.86791 7.79611 6.09998 7.79611C6.33204 7.79611 6.5546 7.8883 6.71869 8.05239C6.88279 8.21649 6.97498 8.43904 6.97498 8.67111C6.97498 8.90317 6.88279 9.12573 6.71869 9.28983C6.5546 9.45392 6.33204 9.54611 6.09998 9.54611Z" fill="white"/>
</svg>
