<svg width="8" height="8" viewBox="0 0 8 8" fill="none" xmlns="http://www.w3.org/2000/svg">
<path fill-rule="evenodd" clip-rule="evenodd" d="M3.64286 0.919845C3.07771 0.603274 2.02057 0.215274 0.854857 0.0775598C0.385143 0.0221312 0 0.40956 0 0.882703V5.45413C0 5.92784 0.386857 6.30499 0.852571 6.38956C1.904 6.58042 2.77886 7.08442 3.33714 7.48327C3.43086 7.55013 3.53429 7.60042 3.64286 7.63527V0.919845ZM4.35714 7.63527C4.46571 7.60099 4.56857 7.55013 4.66229 7.48384C5.22057 7.08499 6.09543 6.58042 7.14743 6.38956C7.61314 6.30499 8 5.92784 8 5.45413V0.882703C8 0.40956 7.61486 0.0221312 7.14514 0.0781312C5.97943 0.216417 4.92229 0.603845 4.35714 0.920417V7.63584V7.63527Z" fill="#F2994A"/>
</svg>
