<svg width="556" height="197" viewBox="0 0 556 197" fill="none" xmlns="http://www.w3.org/2000/svg">
<path d="M14.2144 97.5459C11.1735 97.1923 9.29945 96.2022 8.59226 94.5757C7.9558 92.8785 7.9558 91.0398 8.59226 89.0597V45.9923C7.46077 45.9923 6.43536 45.7094 5.51602 45.1436C4.6674 44.5072 3.96022 43.7293 3.39447 42.8099C2.89945 41.8906 2.65193 40.9006 2.65193 39.8398C2.65193 38.7083 2.97017 37.6829 3.60663 36.7635C5.02099 34.642 6.82431 32.9801 9.01657 31.7779C11.2796 30.5757 13.6133 29.5856 16.0177 28.8077C19.7657 27.6055 23.5138 26.9337 27.2619 26.7923C31.0807 26.6508 34.8287 27.4287 38.5061 29.126C41.8298 30.6818 44.4464 32.6972 46.3558 35.1724C48.2652 37.6475 49.4674 40.2994 49.9624 43.1282C50.4575 45.8862 50.2099 48.7503 49.2199 51.7204C48.2298 54.6199 46.4619 57.3425 43.916 59.8884C47.2398 62.0099 49.6088 64.5558 51.0232 67.526C52.4376 70.4254 53.0033 73.4309 52.7204 76.5425C52.5083 79.6541 51.5182 82.6597 49.7503 85.5591C48.053 88.4586 45.7193 90.9691 42.7492 93.0906C40.9812 94.3635 38.895 95.3182 36.4906 95.9547C34.1569 96.6619 31.7171 97.1569 29.1713 97.4398C26.6961 97.7227 24.221 97.8641 21.7459 97.8641C19.2707 97.8641 17.0077 97.7934 14.9569 97.6519L14.2144 97.5459ZM36.8088 70.6022C35.5359 69.7536 34.2983 69.1171 33.0961 68.6928C31.8939 68.2685 30.6564 67.9856 29.3834 67.8442C28.1812 67.7028 26.9436 67.6674 25.6707 67.7381C24.3978 67.8088 23.0188 67.8796 21.5337 67.9503V84.9227C23.0895 84.9227 24.7514 84.8873 26.5193 84.8166C28.2873 84.6751 29.9845 84.3923 31.611 83.968C33.2376 83.4729 34.758 82.8011 36.1724 81.9525C37.5867 81.1039 38.7182 79.937 39.5668 78.4519C39.779 76.7547 39.7436 75.305 39.4608 74.1028C39.1779 72.8298 38.2939 71.663 36.8088 70.6022ZM21.5337 54.2663C22.8066 54.2663 24.0796 54.2663 25.3525 54.2663C26.6254 54.2663 27.863 54.1602 29.0652 53.9481C30.3381 53.6652 31.5403 53.2409 32.6718 52.6751C33.874 52.1094 34.9348 51.2961 35.8541 50.2354C37.1978 48.7503 37.6575 47.1945 37.2331 45.568C36.8796 43.8707 35.8895 42.5271 34.263 41.537C32.4243 40.3348 30.3381 39.7337 28.0044 39.7337C25.6707 39.663 23.5138 39.9105 21.5337 40.4762V54.2663ZM64.4501 62.5403C64.4501 62.8232 64.4854 62.7525 64.5561 62.3282C64.6269 61.8332 64.5915 60.9845 64.4501 59.7823C63.3186 59.1459 62.4346 58.3326 61.7981 57.3425C61.1617 56.3525 60.7727 55.2917 60.6313 54.1602C60.5606 53.0287 60.7727 51.968 61.2677 50.9779C61.8335 49.9171 62.7175 49.0332 63.9197 48.326C65.5462 47.4066 67.3142 47.2298 69.2235 47.7956C71.2037 48.3613 72.9009 49.2099 74.3153 50.3414C76.0832 48.9978 77.9219 47.8663 79.8313 46.947C81.7407 46.0276 83.6854 45.4265 85.6655 45.1436C87.6456 44.7901 89.6611 44.8254 91.7119 45.2497C93.7628 45.674 95.7782 46.558 97.7584 47.9017C98.7484 48.5381 99.6677 49.3514 100.516 50.3414C101.365 51.2608 101.895 52.3215 102.108 53.5238C102.461 55.2917 102.32 56.8475 101.683 58.1912C101.047 59.4641 100.163 60.4188 99.0313 61.0553C97.8998 61.621 96.6269 61.7978 95.2125 61.5856C93.7981 61.3028 92.4545 60.5249 91.1816 59.2519C90.7573 58.9691 90.439 58.7569 90.2269 58.6155C90.0854 58.4033 89.7318 58.1558 89.1661 57.8729C88.0346 57.5901 86.9031 57.6608 85.7716 58.0851C84.7108 58.5094 83.6501 59.1105 82.5893 59.8884C81.5992 60.5956 80.6445 61.4088 79.7252 62.3282C78.8766 63.1768 78.0987 63.9547 77.3915 64.6619V91.7116C77.3915 92.7724 77.1793 93.7978 76.755 94.7878C76.1186 96.4144 75.0932 97.5459 73.6788 98.1823C72.3352 98.8188 70.9561 98.9956 69.5418 98.7127C68.1981 98.4298 66.9959 97.7227 65.9352 96.5912C64.9451 95.4597 64.4501 94.0099 64.4501 92.242V62.5403ZM122.594 92.0298C122.452 93.4442 121.957 94.6818 121.109 95.7425C120.26 96.874 119.27 97.6873 118.139 98.1823C117.078 98.6773 115.911 98.7834 114.638 98.5006C113.365 98.2177 112.234 97.4398 111.244 96.1669C110.678 95.4597 110.254 94.6818 109.971 93.8331C109.759 92.9138 109.617 91.9945 109.546 91.0751C109.476 90.0851 109.44 89.1304 109.44 88.2111C109.511 87.221 109.546 86.337 109.546 85.5591C109.476 81.3867 109.44 77.2497 109.44 73.1481C109.511 69.0464 109.511 64.9094 109.44 60.737C109.44 59.0398 109.334 57.3425 109.122 55.6453C108.91 53.8773 109.016 52.1448 109.44 50.4475C109.794 49.1746 110.395 48.0785 111.244 47.1591C112.163 46.2398 113.153 45.6033 114.214 45.2497C115.345 44.8961 116.477 44.8608 117.608 45.1436C118.81 45.4265 119.836 46.1691 120.685 47.3713C121.816 48.7856 122.382 50.2 122.382 51.6144C122.382 52.958 122.382 54.6199 122.382 56.6C122.382 59.0044 122.382 61.4088 122.382 63.8133C122.382 66.2177 122.417 68.5867 122.488 70.9204C122.559 74.3149 122.594 77.7094 122.594 81.1039C122.594 84.4983 122.594 87.8928 122.594 91.2873V92.0298ZM108.592 31.6718C108.875 29.0553 109.759 27.1459 111.244 25.9436C112.799 24.6707 114.426 24.0696 116.123 24.1403C117.82 24.1403 119.376 24.7768 120.791 26.0497C122.276 27.3227 123.054 29.126 123.124 31.4597C123.266 33.8641 122.629 35.7381 121.215 37.0818C119.871 38.3547 118.315 39.0972 116.548 39.3094C114.78 39.4508 113.118 38.9558 111.562 37.8243C110.006 36.6928 109.051 34.8895 108.698 32.4144L108.592 31.6718ZM137.412 117.17C136.21 115.685 135.574 114.129 135.503 112.503C135.432 110.947 135.786 109.603 136.564 108.472C137.342 107.34 138.438 106.562 139.852 106.138C141.337 105.714 142.964 105.926 144.732 106.775C145.509 107.34 146.217 107.765 146.853 108.048C147.49 108.33 148.374 108.755 149.505 109.32C150.566 109.815 151.768 110.169 153.112 110.381C154.455 110.664 155.728 110.735 156.93 110.593C159.335 110.452 161.174 110.028 162.446 109.32C163.79 108.684 164.745 107.8 165.311 106.669C165.876 105.608 166.195 104.264 166.265 102.638C166.407 101.082 166.477 99.3138 166.477 97.3337C164.214 98.1116 161.951 98.6773 159.688 99.0309C157.425 99.4552 155.092 99.526 152.687 99.2431C148.02 98.6773 144.166 97.0155 141.125 94.2575C138.155 91.4994 135.962 88.2111 134.548 84.3923C133.204 80.5735 132.639 76.5072 132.851 72.1934C133.134 67.8088 134.159 63.7779 135.927 60.1006C136.988 57.979 138.438 56.0343 140.276 54.2663C142.115 52.4276 144.166 50.9425 146.429 49.8111C148.762 48.6088 151.167 47.8309 153.642 47.4774C156.188 47.1238 158.628 47.3359 160.961 48.1138C162.305 48.6088 163.613 49.1039 164.886 49.5989C166.159 50.0939 167.397 50.7304 168.599 51.5083C169.943 50.3061 171.498 49.705 173.266 49.705C175.105 49.705 176.661 50.5536 177.934 52.2508C178.217 52.6751 178.535 53.1702 178.888 53.7359C179.242 54.2309 179.419 54.726 179.419 55.221C179.49 62.7878 179.49 70.3547 179.419 77.9215C179.419 85.4177 179.419 92.9492 179.419 100.516C179.419 103.557 178.995 106.386 178.146 109.002C177.368 111.619 176.166 113.917 174.539 115.897C172.913 117.948 170.897 119.61 168.493 120.883C166.088 122.156 163.295 122.969 160.113 123.323C158.486 123.464 156.895 123.535 155.339 123.535C153.783 123.535 152.192 123.358 150.566 123.004C148.303 122.58 146.111 121.873 143.989 120.883C141.938 119.893 139.887 118.797 137.837 117.594L137.412 117.17ZM149.929 84.8166C153.041 86.3017 155.905 86.7967 158.522 86.3017C161.138 85.7359 163.79 84.5337 166.477 82.695V65.8287C164.427 63.7779 162.411 62.3635 160.431 61.5856C158.522 60.737 156.223 60.4895 153.536 60.8431C153.041 61.126 152.546 61.3735 152.051 61.5856C151.627 61.7978 151.167 62.0099 150.672 62.2221C149.187 63.9193 148.055 65.5812 147.277 67.2077C146.5 68.7635 146.04 70.3901 145.898 72.0873C145.757 73.7138 145.863 75.4111 146.217 77.179C146.641 78.8762 147.242 80.7503 148.02 82.8011C148.232 83.1547 148.55 83.5083 148.975 83.8619C149.399 84.2155 149.717 84.5337 149.929 84.8166ZM203.263 92.1359C202.839 94.4696 201.92 96.1315 200.505 97.1215C199.091 98.1823 197.606 98.6773 196.05 98.6066C194.565 98.5359 193.221 97.8994 192.019 96.6972C190.888 95.5657 190.322 93.9746 190.322 91.9238V32.9448C190.322 31.3182 190.958 29.9392 192.231 28.8077C193.504 27.6762 194.919 26.9691 196.474 26.6862C198.03 26.4033 199.48 26.6508 200.824 27.4287C202.167 28.2066 202.91 29.6564 203.051 31.7779C203.334 35.4552 203.44 39.0619 203.369 42.5978C203.369 46.063 203.334 49.5635 203.263 53.0994C205.88 51.3315 208.603 50.1646 211.431 49.5989C214.26 48.9624 216.983 48.9624 219.599 49.5989C222.216 50.2354 224.656 51.5083 226.919 53.4177C229.182 55.3271 231.02 57.979 232.435 61.3735C233.425 63.6365 234.097 66.0762 234.45 68.6928C234.804 71.2387 234.98 73.8552 234.98 76.5425C235.051 79.1591 235.016 81.7757 234.874 84.3923C234.804 87.0088 234.768 89.484 234.768 91.8177C234.768 93.3028 234.379 94.6464 233.601 95.8486C232.824 97.0508 231.834 97.9348 230.631 98.5006C229.5 99.0663 228.262 99.2431 226.919 99.0309C225.646 98.8188 224.479 98.0409 223.418 96.6972C222.357 95.2829 221.685 93.621 221.403 91.7116C221.19 89.8022 221.12 87.7867 221.19 85.6652C221.332 83.4729 221.509 81.2453 221.721 78.9823C221.933 76.7193 221.968 74.5624 221.827 72.5116C221.756 70.3901 221.367 68.4453 220.66 66.6773C219.953 64.9094 218.715 63.4597 216.947 62.3282C215.533 62.116 214.26 62.2221 213.129 62.6464C211.997 63 210.972 63.5657 210.052 64.3436C209.133 65.1215 208.249 66.0055 207.4 66.9956C206.622 67.9856 205.809 68.9757 204.961 69.9657C204.748 70.3193 204.501 70.6729 204.218 71.0265C203.935 71.3094 203.617 71.6276 203.263 71.9812V92.1359ZM247.292 59.6762C245.877 59.3227 244.64 58.7215 243.579 57.8729C242.589 57.0243 241.882 56.0343 241.458 54.9028C241.104 53.7713 241.104 52.6044 241.458 51.4022C241.882 50.2 242.766 49.1039 244.109 48.1138C245.241 47.2652 246.514 46.8409 247.928 46.8409C249.343 46.8409 250.722 46.8409 252.065 46.8409C252.065 46.3459 252.03 45.2851 251.959 43.6586C251.888 41.9613 251.853 40.1227 251.853 38.1425C251.924 36.1624 252.065 34.2884 252.277 32.5204C252.49 30.6818 252.879 29.4088 253.444 28.7017C254.859 26.7215 256.591 25.8022 258.642 25.9436C260.764 26.0144 262.496 27.0044 263.84 28.9138C264.123 29.2674 264.37 29.6917 264.582 30.1867C264.865 30.6818 265.007 31.1414 265.007 31.5657C265.077 34.1116 265.077 36.6575 265.007 39.2033C265.007 41.7492 265.007 44.295 265.007 46.8409H273.387C274.66 46.8409 275.756 47.2652 276.675 48.1138C277.595 48.9624 278.231 49.9525 278.585 51.084C279.009 52.2155 279.115 53.3823 278.903 54.5845C278.761 55.7867 278.231 56.7768 277.312 57.5547C275.685 58.8983 273.776 59.6055 271.583 59.6762C269.462 59.747 267.27 59.7823 265.007 59.7823C265.007 63.6718 264.971 67.5613 264.901 71.4508C264.901 75.3403 264.936 79.2298 265.007 83.1193C265.007 84.8166 265.077 86.5492 265.219 88.3171C265.431 90.0851 265.325 91.7823 264.901 93.4088C264.547 94.6818 263.946 95.6718 263.097 96.379C262.249 97.1569 261.294 97.6166 260.233 97.758C259.172 97.9702 258.076 97.8994 256.945 97.5459C255.813 97.263 254.753 96.6972 253.762 95.8486C253.267 95.3536 252.879 94.505 252.596 93.3028C252.383 92.1006 252.242 90.8276 252.171 89.484C252.101 87.9282 252.101 86.2663 252.171 84.4983C252.171 83.084 252.171 81.2453 252.171 78.9823C252.171 76.7193 252.136 74.3856 252.065 71.9812C252.065 69.5061 252.065 67.1724 252.065 64.9801C252.065 62.7878 252.065 61.0552 252.065 59.7823L247.292 59.6762ZM405.145 81.7403C406.913 80.6088 408.575 80.1138 410.131 80.2552C411.758 80.3967 413.066 80.9624 414.056 81.9525C415.117 82.8718 415.682 84.1448 415.753 85.7713C415.895 87.3271 415.364 88.989 414.162 90.7569C413.384 91.9591 412.253 93.0552 410.768 94.0453C409.353 95.0354 407.974 95.8133 406.631 96.379C403.519 97.7934 400.372 98.4298 397.19 98.2884C394.007 98.147 391.037 97.3691 388.279 95.9547C385.592 94.5403 383.258 92.5956 381.278 90.1204C379.298 87.5746 377.954 84.6398 377.247 81.316C375.833 74.9514 376.116 68.8343 378.096 62.9646C378.874 60.8431 379.793 58.7923 380.854 56.8122C381.985 54.832 383.329 53.0287 384.885 51.4022C386.44 49.7757 388.173 48.3613 390.082 47.1591C391.992 45.8862 394.078 45.0376 396.341 44.6133C397.897 44.3304 399.877 44.3657 402.281 44.7193C404.686 45.0022 407.019 45.6033 409.282 46.5227C411.616 47.442 413.632 48.6442 415.329 50.1293C417.097 51.6144 418.087 53.3823 418.299 55.4332C418.44 56.5646 418.299 57.6254 417.875 58.6155C417.45 59.5348 416.849 60.3127 416.071 60.9492C415.294 61.5856 414.374 62.0453 413.313 62.3282C412.323 62.5403 411.298 62.505 410.237 62.2221C408.964 61.8685 407.939 61.4088 407.161 60.8431C406.454 60.2066 405.499 59.3934 404.297 58.4033C403.731 58.2619 403.201 58.0497 402.706 57.7669C402.211 57.4133 401.68 57.2718 401.115 57.3425L398.25 57.6608C397.755 57.9436 397.296 58.1912 396.871 58.4033C396.447 58.6155 396.023 58.8276 395.598 59.0398C393.194 61.4442 391.426 64.1315 390.295 67.1017C389.163 70.0011 388.88 73.1481 389.446 76.5425C389.8 78.7348 390.471 80.5381 391.461 81.9525C392.522 83.3669 393.724 84.3569 395.068 84.9227C396.482 85.4177 398.003 85.453 399.629 85.0287C401.327 84.6044 402.989 83.6497 404.615 82.1646L405.145 81.7403ZM441.598 88.4232C442.376 89.1304 443.012 90.0497 443.507 91.1812C444.073 92.242 444.356 93.3381 444.356 94.4696C444.427 95.5304 444.179 96.5204 443.613 97.4398C443.118 98.4298 442.199 99.1724 440.855 99.6674C439.795 100.021 438.628 100.092 437.355 99.8796C436.082 99.6674 434.809 99.2431 433.536 98.6066C432.334 97.9702 431.238 97.1923 430.248 96.2729C429.328 95.4243 428.656 94.4696 428.232 93.4088C428.091 93.0552 427.985 92.6663 427.914 92.242C427.843 91.747 427.808 91.3227 427.808 90.9691V32.0961C427.808 30.4696 428.409 29.0906 429.611 27.9591C430.884 26.8276 432.263 26.1558 433.748 25.9436C434.455 25.8729 435.198 25.979 435.976 26.2619C436.824 26.5448 437.602 26.9691 438.31 27.5348C439.017 28.0298 439.582 28.6309 440.007 29.3381C440.502 30.0453 440.749 30.7878 440.749 31.5657C440.749 33.4044 440.749 35.8442 440.749 38.8851C440.749 41.926 440.749 45.2497 440.749 48.8564C440.82 52.463 440.855 56.2111 440.855 60.1006C440.855 63.9193 440.82 67.5967 440.749 71.1326C440.749 74.6685 440.749 77.9215 440.749 80.8917C440.749 83.7912 440.714 86.1249 440.643 87.8928L441.598 88.4232ZM497.399 86.726C498.036 87.6453 498.389 88.7414 498.46 90.0144C498.601 91.2166 498.46 92.3834 498.036 93.5149C497.682 94.5757 497.045 95.4597 496.126 96.1669C495.278 96.874 494.146 97.1923 492.732 97.1215C490.893 96.9801 489.408 96.3436 488.276 95.2122C487.145 94.0807 486.084 92.8077 485.094 91.3934C482.336 93.6564 479.472 95.2122 476.502 96.0608C473.602 96.9801 470.738 97.1923 467.91 96.6972C465.081 96.2022 462.429 95.0354 459.954 93.1967C457.479 91.2873 455.392 88.7414 453.695 85.5591C452.139 82.589 451.255 79.3006 451.043 75.6939C450.902 72.0873 450.866 68.6575 450.937 65.4044C450.937 64.2729 450.973 63.1768 451.043 62.116C451.114 60.9845 451.185 59.8177 451.255 58.6155C451.326 57.6961 451.361 56.8122 451.361 55.9635C451.361 55.0442 451.397 54.1956 451.468 53.4177C451.609 52.6398 451.821 51.8619 452.104 51.084C452.458 50.3061 452.953 49.5635 453.589 48.8564C454.438 47.937 455.463 47.4066 456.665 47.2652C457.868 47.053 458.999 47.1591 460.06 47.5834C461.191 48.0077 462.146 48.6796 462.924 49.5989C463.773 50.4475 464.232 51.5083 464.303 52.7812C464.444 56.3878 464.338 60.0298 463.985 63.7072C463.702 67.3845 463.737 70.9912 464.091 74.5271C464.232 76.2243 464.657 77.9569 465.364 79.7249C466.142 81.4928 467.344 82.7657 468.97 83.5436C470.597 84.2508 472.223 84.2155 473.85 83.4376C475.547 82.589 476.926 81.5989 477.987 80.4674C478.482 79.9017 478.942 79.3006 479.366 78.6641C479.861 77.9569 480.391 77.3558 480.957 76.8608C480.674 74.3856 480.497 71.9105 480.427 69.4354C480.356 66.9602 480.356 64.4851 480.427 62.0099C480.427 60.6663 480.462 59.2166 480.533 57.6608C480.674 56.0343 480.957 54.5138 481.381 53.0994C481.876 51.6144 482.584 50.3414 483.503 49.2807C484.422 48.1492 485.731 47.442 487.428 47.1591C488.206 47.0177 488.948 47.0884 489.655 47.3713C490.433 47.6541 491.105 48.0431 491.671 48.5381C492.661 49.3867 493.333 50.3414 493.686 51.4022C494.04 52.463 494.217 53.5945 494.217 54.7967C494.217 55.9989 494.111 57.2365 493.899 58.5094C493.757 59.7116 493.651 60.8431 493.58 61.9039C493.439 63.884 493.333 65.9702 493.262 68.1624C493.191 70.3547 493.262 72.547 493.474 74.7392C493.686 76.9315 494.075 79.053 494.641 81.1039C495.278 83.1547 496.197 85.0287 497.399 86.726ZM526.313 97.758C524.262 97.8287 522.282 97.6873 520.373 97.3337C518.534 96.9801 516.695 96.379 514.857 95.5304C513.937 96.0254 513.018 96.2729 512.099 96.2729C511.25 96.2729 510.437 96.1315 509.659 95.8486C508.952 95.5657 508.315 95.2475 507.749 94.8939C507.254 94.4696 506.901 94.1514 506.689 93.9392C505.911 92.8077 505.451 91.5348 505.31 90.1204C505.168 88.7061 505.628 87.3624 506.689 86.0895V31.5657C506.689 29.9392 507.254 28.5956 508.386 27.5348C509.517 26.4033 510.826 25.6961 512.311 25.4133C513.796 25.1304 515.21 25.3779 516.554 26.1558C517.968 26.9337 518.923 28.3481 519.418 30.3989C519.701 31.6718 519.913 32.9448 520.054 34.2177C520.267 35.4199 520.373 36.8343 520.373 38.4608C520.443 40.0873 520.443 41.9613 520.373 44.0829C520.373 46.2044 520.302 48.821 520.16 51.9326C520.797 51.579 521.433 51.2608 522.07 50.9779C522.777 50.6243 523.484 50.2707 524.191 49.9171C526.171 48.9978 528.293 48.432 530.556 48.2199C532.819 48.0077 535.011 48.1492 537.133 48.6442C539.325 49.0685 541.341 49.9171 543.179 51.1901C545.089 52.3923 546.644 53.9834 547.847 55.9635C549.544 58.7923 550.675 62.116 551.241 65.9348C551.878 69.6829 551.878 73.4309 551.241 77.179C550.675 80.8564 549.438 84.2862 547.528 87.4685C545.69 90.6508 543.073 93.0199 539.679 94.5757C537.557 95.5657 535.365 96.3083 533.102 96.8033C530.91 97.3691 528.647 97.6873 526.313 97.758ZM519.63 70.6022V83.3315C519.771 83.4729 519.913 83.579 520.054 83.6497C520.196 83.7204 520.337 83.8265 520.479 83.968C526.843 86.0895 532.359 84.6398 537.027 79.6188C538.087 76.7901 538.583 74.1381 538.512 71.663C538.512 69.1171 538.052 66.3945 537.133 63.495C536.779 62.6464 536.178 62.116 535.329 61.9039C534.552 61.621 533.844 61.3028 533.208 60.9492C532.076 60.737 530.839 60.9492 529.495 61.5856C528.222 62.2221 526.985 63.0354 525.783 64.0254C524.58 64.9448 523.484 65.9702 522.494 67.1017C521.504 68.2331 520.726 69.1878 520.16 69.9657L519.63 70.6022Z" fill="white"/>
<path d="M299.263 92.3481C299.051 94.116 298.309 95.5657 297.036 96.6972C295.763 97.8287 294.384 98.5359 292.899 98.8188C291.414 99.1724 290.035 99.0309 288.762 98.3945C287.559 97.758 286.923 96.4851 286.852 94.5757C286.499 86.4431 286.322 78.0276 286.322 69.3293C286.322 60.5602 286.322 51.8619 286.322 43.2343C285.19 42.8099 284.342 42.1735 283.776 41.3249C283.21 40.4762 282.857 39.5569 282.715 38.5669C282.645 37.5061 282.786 36.4453 283.14 35.3845C283.493 34.3238 284.024 33.4044 284.731 32.6265C285.509 31.7779 286.569 31 287.913 30.2928C289.257 29.5856 290.706 28.9492 292.262 28.3834C293.889 27.747 295.48 27.2166 297.036 26.7923C298.592 26.368 299.9 26.0497 300.961 25.8376C305.416 24.9182 309.906 24.9536 314.432 25.9436C318.958 26.863 322.919 28.5602 326.313 31.0354C329.778 33.5105 332.359 36.7282 334.057 40.6884C335.754 44.6486 335.931 49.1746 334.587 54.2663C334.163 55.6807 333.632 57.095 332.996 58.5094C332.359 59.9238 331.617 61.232 330.768 62.4343C329.566 64.2729 328.152 65.8994 326.525 67.3138C324.899 68.7282 323.131 70.0365 321.221 71.2387C322.565 72.653 323.838 74.1381 325.04 75.6939C326.242 77.2497 327.586 78.6641 329.071 79.937C329.637 80.432 330.45 81.2099 331.511 82.2707C332.642 83.3315 333.703 84.463 334.693 85.6652C335.754 86.8674 336.673 88.0696 337.451 89.2718C338.229 90.4033 338.583 91.358 338.512 92.1359C338.441 93.4796 338.052 94.6818 337.345 95.7425C336.709 96.874 335.895 97.7227 334.905 98.2884C333.986 98.9249 332.961 99.2431 331.829 99.2431C330.698 99.2431 329.566 98.8541 328.435 98.0762C327.162 97.0862 325.959 95.9193 324.828 94.5757C323.697 93.232 322.6 91.9945 321.54 90.863C319.206 88.3171 316.908 85.7713 314.645 83.2254C312.452 80.6088 310.189 78.063 307.856 75.5878C306.441 75.8707 304.992 76.0829 303.506 76.2243C302.092 76.295 300.678 76.4011 299.263 76.5425V91.6055V92.3481ZM318.251 41.0066C315.422 39.3094 312.311 38.3547 308.916 38.1425C305.593 37.9304 302.375 38.3901 299.263 39.5215V63.495C302.446 63.2829 305.557 62.8939 308.598 62.3282C311.71 61.6917 314.574 60.3481 317.19 58.2972C318.605 57.1657 319.736 55.8575 320.585 54.3724C321.504 52.8166 322.035 51.2608 322.176 49.705C322.388 48.0785 322.176 46.5227 321.54 45.0376C320.974 43.4818 319.878 42.1381 318.251 41.0066ZM367.691 89.1657C367.691 90.9337 367.266 92.4541 366.418 93.7271C365.64 94.9293 364.65 95.8486 363.447 96.4851C362.245 97.1215 360.902 97.4398 359.416 97.4398C358.002 97.5105 356.658 97.263 355.386 96.6972C354.113 96.2022 353.016 95.389 352.097 94.2575C351.249 93.126 350.753 91.6762 350.612 89.9083C350.471 88.0696 350.789 86.5492 351.567 85.347C352.415 84.074 353.476 83.1193 354.749 82.4829C356.022 81.8464 357.401 81.5282 358.886 81.5282C360.371 81.4575 361.75 81.705 363.023 82.2707C364.367 82.7657 365.463 83.6144 366.311 84.8166C367.231 85.9481 367.691 87.3978 367.691 89.1657Z" fill="#FF9F30"/>
<path d="M26.1326 179.177C26.895 179.541 27.4751 180.006 27.8729 180.569C28.2707 181.133 28.453 181.713 28.4199 182.309C28.4199 182.873 28.2044 183.42 27.7735 183.95C27.3757 184.448 26.7459 184.829 25.884 185.094C25.5525 185.193 25.0884 185.243 24.4917 185.243C23.895 185.276 23.0663 185.293 22.0055 185.293C20.9448 185.293 19.6022 185.293 17.9779 185.293C16.3536 185.293 14.3481 185.309 11.9613 185.343C11.3646 185.376 10.7514 185.392 10.1215 185.392C9.49171 185.392 8.94475 185.177 8.48066 184.746C8.08287 184.414 7.78453 183.917 7.58564 183.254C7.41989 182.558 7.30387 181.845 7.23757 181.116C7.20442 180.354 7.18785 179.608 7.18785 178.878C7.22099 178.116 7.23757 177.486 7.23757 176.989C7.23757 175.994 7.23757 174.851 7.23757 173.558C7.27072 172.265 7.28729 170.956 7.28729 169.63C7.32044 168.271 7.33702 166.945 7.33702 165.652C7.33702 164.359 7.33702 163.215 7.33702 162.221C7.33702 160.464 7.35359 159.055 7.38674 157.994C7.41989 156.901 7.48619 156.055 7.58564 155.459C7.71823 154.829 7.91713 154.381 8.18232 154.116C8.44751 153.818 8.81215 153.569 9.27624 153.37C9.67403 153.204 10.105 153.155 10.5691 153.221C11.0663 153.254 11.5138 153.387 11.9116 153.619C12.3425 153.818 12.6906 154.116 12.9558 154.514C13.2541 154.878 13.4033 155.293 13.4033 155.757C13.4696 159.735 13.4696 163.68 13.4033 167.591C13.337 171.503 13.3039 175.414 13.3039 179.326C15.3923 179.326 17.4641 179.309 19.5193 179.276C21.6077 179.21 23.7127 179.144 25.8343 179.077L26.1326 179.177ZM38.252 182.608C38.1857 183.271 37.9537 183.851 37.5559 184.348C37.1581 184.878 36.694 185.26 36.1636 185.492C35.6664 185.724 35.1194 185.773 34.5228 185.641C33.9261 185.508 33.3957 185.144 32.9316 184.547C32.6664 184.215 32.4675 183.851 32.3349 183.453C32.2355 183.022 32.1692 182.591 32.136 182.16C32.1029 181.696 32.0863 181.249 32.0863 180.818C32.1194 180.354 32.136 179.939 32.136 179.575C32.1029 177.619 32.0863 175.68 32.0863 173.757C32.1194 171.834 32.1194 169.895 32.0863 167.939C32.0863 167.144 32.0366 166.348 31.9371 165.552C31.8377 164.724 31.8874 163.912 32.0863 163.116C32.252 162.519 32.5338 162.006 32.9316 161.575C33.3625 161.144 33.8266 160.845 34.3239 160.68C34.8542 160.514 35.3846 160.497 35.915 160.63C36.4786 160.762 36.9592 161.11 37.357 161.674C37.8874 162.337 38.1526 163 38.1526 163.663C38.1526 164.293 38.1526 165.072 38.1526 166C38.1526 167.127 38.1526 168.254 38.1526 169.381C38.1526 170.508 38.1692 171.619 38.2023 172.713C38.2355 174.304 38.252 175.895 38.252 177.486C38.252 179.077 38.252 180.669 38.252 182.26V182.608ZM31.6885 154.315C31.8211 153.088 32.2355 152.193 32.9316 151.63C33.6609 151.033 34.4233 150.751 35.2189 150.785C36.0145 150.785 36.7437 151.083 37.4067 151.68C38.1029 152.276 38.4675 153.122 38.5007 154.215C38.567 155.343 38.2686 156.221 37.6056 156.851C36.9758 157.448 36.2465 157.796 35.4178 157.895C34.5891 157.961 33.81 157.729 33.0808 157.199C32.3515 156.669 31.904 155.823 31.7382 154.663L31.6885 154.315ZM53.9992 185.293C53.0379 185.326 52.1097 185.26 51.2147 185.094C50.3528 184.928 49.4909 184.646 48.6291 184.249C48.1981 184.481 47.7672 184.597 47.3362 184.597C46.9384 184.597 46.5572 184.53 46.1926 184.398C45.8611 184.265 45.5628 184.116 45.2976 183.95C45.0655 183.751 44.8998 183.602 44.8003 183.503C44.4357 182.972 44.2202 182.376 44.1539 181.713C44.0876 181.05 44.3031 180.42 44.8003 179.823V154.265C44.8003 153.503 45.0655 152.873 45.5959 152.376C46.1263 151.845 46.7395 151.514 47.4357 151.381C48.1318 151.249 48.7948 151.365 49.4246 151.729C50.0876 152.094 50.5351 152.757 50.7672 153.718C50.8998 154.315 50.9992 154.912 51.0655 155.508C51.165 156.072 51.2147 156.735 51.2147 157.497C51.2478 158.26 51.2478 159.138 51.2147 160.133C51.2147 161.127 51.1815 162.354 51.1152 163.812C51.4136 163.646 51.7119 163.497 52.0103 163.365C52.3418 163.199 52.6733 163.033 53.0047 162.867C53.9329 162.436 54.9274 162.171 55.9882 162.072C57.0489 161.972 58.0766 162.039 59.071 162.271C60.0987 162.47 61.0434 162.867 61.9053 163.464C62.8003 164.028 63.5296 164.773 64.0931 165.702C64.8887 167.028 65.4191 168.586 65.6843 170.376C65.9826 172.133 65.9826 173.89 65.6843 175.646C65.4191 177.37 64.839 178.978 63.944 180.47C63.0821 181.961 61.8556 183.072 60.2644 183.801C59.2699 184.265 58.2423 184.613 57.1815 184.845C56.1539 185.11 55.0931 185.26 53.9992 185.293ZM50.8666 172.564V178.53C50.9329 178.597 50.9992 178.646 51.0655 178.68C51.1318 178.713 51.1981 178.762 51.2644 178.829C54.2478 179.823 56.8335 179.144 59.0213 176.79C59.5186 175.464 59.7506 174.221 59.7174 173.061C59.7174 171.867 59.502 170.591 59.071 169.232C58.9053 168.834 58.6235 168.586 58.2257 168.486C57.8611 168.354 57.5296 168.204 57.2313 168.039C56.7009 167.939 56.1208 168.039 55.4909 168.337C54.8942 168.635 54.3141 169.017 53.7506 169.481C53.1871 169.912 52.6733 170.392 52.2092 170.923C51.7451 171.453 51.3804 171.901 51.1152 172.265L50.8666 172.564ZM71.2461 168.785C71.2461 168.917 71.2627 168.884 71.2958 168.685C71.329 168.453 71.3124 168.055 71.2461 167.492C70.7157 167.193 70.3014 166.812 70.003 166.348C69.7047 165.884 69.5224 165.387 69.4561 164.856C69.4229 164.326 69.5224 163.829 69.7544 163.365C70.0196 162.867 70.434 162.453 70.9975 162.122C71.7599 161.691 72.5887 161.608 73.4837 161.873C74.4119 162.138 75.2075 162.536 75.8704 163.066C76.6992 162.436 77.561 161.906 78.4561 161.475C79.3511 161.044 80.2627 160.762 81.1909 160.63C82.1191 160.464 83.0638 160.481 84.0251 160.68C84.9865 160.878 85.9312 161.293 86.8594 161.923C87.3235 162.221 87.7544 162.602 88.1522 163.066C88.55 163.497 88.7986 163.994 88.8981 164.558C89.0638 165.387 88.9975 166.116 88.6992 166.746C88.4008 167.343 87.9865 167.79 87.4561 168.088C86.9257 168.354 86.329 168.436 85.666 168.337C85.003 168.204 84.3732 167.84 83.7765 167.243C83.5776 167.11 83.4284 167.011 83.329 166.945C83.2627 166.845 83.097 166.729 82.8318 166.597C82.3014 166.464 81.771 166.497 81.2406 166.696C80.7434 166.895 80.2461 167.177 79.7489 167.541C79.2848 167.873 78.8373 168.254 78.4063 168.685C78.0086 169.083 77.6439 169.448 77.3124 169.779V182.459C77.3124 182.956 77.213 183.436 77.0141 183.901C76.7157 184.663 76.2351 185.193 75.5721 185.492C74.9423 185.79 74.2958 185.873 73.6329 185.74C73.003 185.608 72.4395 185.276 71.9423 184.746C71.4782 184.215 71.2461 183.536 71.2461 182.707V168.785ZM109.243 181.812C109.509 182.773 109.459 183.569 109.094 184.199C108.73 184.829 108.216 185.243 107.553 185.442C106.923 185.674 106.227 185.657 105.464 185.392C104.702 185.127 104.039 184.597 103.475 183.801C102.547 184.497 101.636 184.978 100.741 185.243C99.8787 185.541 98.8843 185.707 97.7572 185.74C96.0666 185.807 94.5583 185.608 93.2323 185.144C91.9064 184.713 90.7793 184.05 89.8511 183.155C88.9561 182.26 88.2931 181.149 87.8622 179.823C87.4312 178.464 87.2821 176.906 87.4147 175.149C87.4809 174.42 87.597 173.707 87.7627 173.011C87.9616 172.315 88.1771 171.635 88.4091 170.972C88.6743 170.243 89.039 169.464 89.503 168.635C90.0003 167.807 90.4975 167.094 90.9948 166.497C92.7848 164.309 95.0224 162.735 97.7075 161.773C98.1716 161.608 98.8014 161.459 99.597 161.326C100.393 161.193 101.188 161.144 101.984 161.177C102.812 161.177 103.591 161.276 104.321 161.475C105.083 161.674 105.647 162.022 106.011 162.519C106.31 162.917 106.525 163.265 106.658 163.564C106.79 163.862 106.857 164.177 106.857 164.508C106.89 164.84 106.89 165.204 106.857 165.602C106.857 165.967 106.857 166.431 106.857 166.994C106.857 167.923 106.84 168.834 106.807 169.729C106.807 170.591 106.823 171.47 106.857 172.365C106.857 172.663 106.857 173.061 106.857 173.558C106.857 174.022 106.873 174.519 106.906 175.05C106.94 175.58 106.973 176.094 107.006 176.591C107.072 177.055 107.155 177.436 107.254 177.735L109.243 181.812ZM98.7019 179.575C99.0666 179.343 99.4809 179.094 99.945 178.829C100.409 178.53 100.823 178.199 101.188 177.834C100.89 176.077 100.707 174.32 100.641 172.564C100.608 170.807 100.625 169.033 100.691 167.243C99.1992 167.508 97.8566 168.155 96.6633 169.182C95.4699 170.21 94.6412 171.42 94.1771 172.812C93.9782 173.376 93.8124 173.956 93.6798 174.552C93.5472 175.149 93.4975 175.729 93.5307 176.293C93.5638 177.055 93.7627 177.702 94.1274 178.232C94.492 178.729 94.9229 179.11 95.4202 179.376C95.9506 179.641 96.4975 179.79 97.0611 179.823C97.6577 179.856 98.2047 179.773 98.7019 179.575ZM113.39 168.785C113.39 168.917 113.406 168.884 113.439 168.685C113.473 168.453 113.456 168.055 113.39 167.492C112.859 167.193 112.445 166.812 112.147 166.348C111.848 165.884 111.666 165.387 111.6 164.856C111.566 164.326 111.666 163.829 111.898 163.365C112.163 162.867 112.578 162.453 113.141 162.122C113.903 161.691 114.732 161.608 115.627 161.873C116.555 162.138 117.351 162.536 118.014 163.066C118.843 162.436 119.705 161.906 120.6 161.475C121.495 161.044 122.406 160.762 123.334 160.63C124.263 160.464 125.207 160.481 126.169 160.68C127.13 160.878 128.075 161.293 129.003 161.923C129.467 162.221 129.898 162.602 130.296 163.066C130.694 163.497 130.942 163.994 131.042 164.558C131.207 165.387 131.141 166.116 130.843 166.746C130.544 167.343 130.13 167.79 129.6 168.088C129.069 168.354 128.473 168.436 127.81 168.337C127.147 168.204 126.517 167.84 125.92 167.243C125.721 167.11 125.572 167.011 125.473 166.945C125.406 166.845 125.241 166.729 124.975 166.597C124.445 166.464 123.915 166.497 123.384 166.696C122.887 166.895 122.39 167.177 121.892 167.541C121.428 167.873 120.981 168.254 120.55 168.685C120.152 169.083 119.787 169.448 119.456 169.779V182.459C119.456 182.956 119.357 183.436 119.158 183.901C118.859 184.663 118.379 185.193 117.716 185.492C117.086 185.79 116.439 185.873 115.776 185.74C115.147 185.608 114.583 185.276 114.086 184.746C113.622 184.215 113.39 183.536 113.39 182.707V168.785ZM150.83 162.072C151.228 161.409 151.725 160.961 152.322 160.729C152.918 160.464 153.498 160.398 154.062 160.53C154.659 160.663 155.172 160.961 155.603 161.425C156.067 161.89 156.349 162.503 156.449 163.265C156.515 163.829 156.399 164.624 156.101 165.652C155.835 166.68 155.487 167.74 155.056 168.834C154.659 169.928 154.244 170.972 153.813 171.967C153.382 172.961 153.034 173.74 152.769 174.304C151.642 176.79 150.416 179.227 149.09 181.613C147.764 184 146.405 186.37 145.012 188.724C144.813 189.088 144.581 189.536 144.316 190.066C144.051 190.597 143.769 191.144 143.471 191.707C143.206 192.271 142.924 192.801 142.626 193.298C142.327 193.796 142.045 194.16 141.78 194.392C141.184 194.956 140.57 195.287 139.94 195.387C139.311 195.486 138.73 195.403 138.2 195.138C137.703 194.873 137.288 194.459 136.957 193.895C136.659 193.331 136.543 192.652 136.609 191.856C136.642 191.558 136.775 191.16 137.007 190.663C137.239 190.199 137.504 189.702 137.802 189.171C138.101 188.674 138.399 188.193 138.697 187.729C138.996 187.265 139.228 186.884 139.393 186.586C140.056 185.492 140.686 184.398 141.283 183.304C141.913 182.21 142.543 181.116 143.172 180.022C140.985 178.199 139.079 176.177 137.454 173.956C135.863 171.702 134.637 169.232 133.775 166.547C133.609 166.083 133.443 165.619 133.277 165.155C133.112 164.691 133.062 164.21 133.128 163.713C133.195 163.149 133.344 162.652 133.576 162.221C133.841 161.757 134.172 161.392 134.57 161.127C134.968 160.829 135.416 160.663 135.913 160.63C136.443 160.597 136.974 160.713 137.504 160.978C137.935 161.21 138.266 161.541 138.498 161.972C138.764 162.37 138.979 162.818 139.145 163.315C139.311 163.779 139.443 164.26 139.543 164.757C139.675 165.254 139.824 165.702 139.99 166.099C141.316 169.381 143.322 172.182 146.007 174.503C146.968 172.514 147.83 170.525 148.592 168.536C149.355 166.514 150.034 164.459 150.631 162.37L150.83 162.072ZM244.07 167.044C244.865 167.276 245.462 167.707 245.86 168.337C246.258 168.934 246.44 169.564 246.407 170.227C246.407 170.89 246.208 171.519 245.81 172.116C245.412 172.68 244.832 173.044 244.07 173.21V181.862C244.07 182.691 243.854 183.42 243.423 184.05C243.026 184.713 242.528 185.177 241.932 185.442C241.335 185.707 240.705 185.757 240.042 185.591C239.379 185.459 238.782 185.028 238.252 184.298C238.02 183.967 237.854 183.586 237.755 183.155C237.689 182.724 237.655 182.326 237.655 181.961V173.359H226.07V181.812C226.07 182.177 226.037 182.558 225.97 182.956C225.904 183.32 225.788 183.652 225.622 183.95C225.191 184.746 224.644 185.26 223.981 185.492C223.318 185.724 222.672 185.707 222.042 185.442C221.412 185.21 220.865 184.779 220.401 184.149C219.97 183.552 219.755 182.807 219.755 181.912V156.204C219.755 155.343 220.003 154.597 220.501 153.967C221.031 153.337 221.628 152.906 222.291 152.674C222.954 152.409 223.617 152.392 224.28 152.624C224.976 152.823 225.49 153.337 225.821 154.166C225.921 154.431 225.987 154.68 226.02 154.912C226.053 155.11 226.07 155.343 226.07 155.608V166.845H237.655V156.204C237.655 155.541 237.805 154.912 238.103 154.315C238.468 153.586 238.981 153.072 239.644 152.773C240.34 152.475 241.003 152.392 241.633 152.525C242.296 152.657 242.86 152.989 243.324 153.519C243.821 154.017 244.07 154.713 244.07 155.608V167.044ZM248.311 172.116C248.543 171.155 248.858 170.21 249.256 169.282C249.687 168.354 250.201 167.475 250.797 166.646C251.394 165.785 252.057 165.006 252.786 164.309C253.549 163.613 254.361 163.05 255.223 162.619C256.748 161.823 258.273 161.425 259.797 161.425C261.355 161.392 262.797 161.691 264.123 162.32C265.449 162.95 266.576 163.895 267.505 165.155C268.433 166.381 269.046 167.856 269.344 169.58C269.51 170.707 269.593 171.785 269.593 172.812C269.626 173.807 269.527 174.851 269.295 175.945C268.963 177.503 268.284 179.061 267.256 180.619C266.261 182.144 265.052 183.42 263.626 184.448C262.234 185.508 260.692 186.204 259.002 186.536C257.344 186.867 255.67 186.602 253.98 185.74C253.217 185.376 252.521 184.945 251.891 184.448C251.295 183.983 250.748 183.42 250.25 182.757C249.687 182.028 249.239 181.265 248.908 180.47C248.61 179.674 248.361 178.845 248.162 177.983C247.93 177.055 247.847 176.127 247.913 175.199C247.98 174.238 248.096 173.309 248.261 172.414L248.311 172.116ZM254.278 173.16C254.179 173.691 254.096 174.221 254.029 174.751C253.963 175.249 253.963 175.762 254.029 176.293C254.129 177.055 254.328 177.751 254.626 178.381C254.958 179.011 255.372 179.508 255.869 179.873C256.4 180.238 256.996 180.436 257.659 180.47C258.322 180.47 259.035 180.254 259.797 179.823C260.759 179.26 261.587 178.398 262.284 177.238C262.98 176.044 263.411 174.818 263.576 173.558C263.742 172.265 263.61 171.055 263.179 169.928C262.748 168.768 261.902 167.939 260.643 167.442C259.814 167.442 259.052 167.608 258.355 167.939C257.659 168.238 257.046 168.652 256.516 169.182C256.018 169.68 255.571 170.276 255.173 170.972C254.808 171.669 254.51 172.398 254.278 173.16ZM285.585 169.779V169.083C285.287 168.32 284.806 167.79 284.143 167.492C283.48 167.16 282.767 166.961 282.005 166.895C281.574 167.028 281.226 167.177 280.961 167.343C280.696 167.508 280.464 167.691 280.265 167.89C280.066 168.088 279.883 168.32 279.718 168.586C279.552 168.818 279.353 169.066 279.121 169.331V182.359C279.121 183.387 278.806 184.182 278.176 184.746C277.58 185.343 276.9 185.674 276.138 185.74C275.408 185.84 274.729 185.657 274.099 185.193C273.469 184.762 273.138 184.017 273.104 182.956C273.038 180.403 273.005 177.503 273.005 174.254C273.038 171.006 273.055 167.376 273.055 163.365C273.055 162.669 273.254 162.088 273.651 161.624C274.082 161.16 274.58 160.845 275.143 160.68C275.74 160.514 276.336 160.53 276.933 160.729C277.563 160.895 278.077 161.26 278.475 161.823C280.331 160.895 282.171 160.613 283.994 160.978C285.85 161.309 287.524 162.171 289.016 163.564C289.679 162.901 290.392 162.304 291.154 161.773C291.917 161.243 292.745 160.895 293.64 160.729C294.668 160.564 295.696 160.613 296.723 160.878C297.784 161.11 298.762 161.508 299.657 162.072C300.552 162.635 301.331 163.331 301.994 164.16C302.69 164.989 303.204 165.884 303.535 166.845C303.701 167.508 303.784 168.105 303.784 168.635V182.16C303.784 182.558 303.734 182.939 303.635 183.304C303.336 184.166 302.856 184.762 302.193 185.094C301.563 185.459 300.9 185.591 300.204 185.492C299.541 185.392 298.961 185.077 298.464 184.547C297.966 184.017 297.718 183.304 297.718 182.409V169.033C297.419 168.238 296.988 167.657 296.425 167.293C295.861 166.928 295.281 166.762 294.685 166.796C294.088 166.829 293.508 167.044 292.944 167.442C292.414 167.84 291.983 168.387 291.651 169.083V182.11C291.651 183.006 291.353 183.751 290.756 184.348C290.193 184.945 289.563 185.326 288.867 185.492C288.171 185.657 287.508 185.591 286.878 185.293C286.281 184.994 285.933 184.398 285.834 183.503L285.585 169.779ZM326.697 177.337C327.492 177.138 328.188 177.138 328.785 177.337C329.415 177.503 329.896 177.801 330.227 178.232C330.559 178.663 330.708 179.193 330.675 179.823C330.641 180.453 330.36 181.116 329.829 181.812C329.398 182.376 328.802 182.856 328.039 183.254C327.277 183.652 326.564 183.967 325.901 184.199C324.277 184.796 322.735 185.21 321.277 185.442C319.818 185.674 318.442 185.674 317.15 185.442C315.89 185.21 314.697 184.729 313.57 184C312.476 183.271 311.448 182.243 310.487 180.917C309.824 180.022 309.326 179.011 308.995 177.884C308.697 176.724 308.531 175.547 308.498 174.354C308.465 173.16 308.564 171.983 308.796 170.823C309.028 169.663 309.36 168.619 309.791 167.691C310.354 166.53 311.249 165.47 312.476 164.508C313.702 163.547 315.061 162.785 316.553 162.221C318.045 161.657 319.57 161.343 321.128 161.276C322.686 161.177 324.061 161.409 325.255 161.972C326.249 162.436 327.094 163.116 327.791 164.011C328.52 164.873 329.017 165.818 329.282 166.845C329.547 167.873 329.564 168.917 329.332 169.978C329.133 171.006 328.603 171.95 327.741 172.812C326.912 173.641 326.001 174.32 325.006 174.851C324.012 175.348 322.984 175.796 321.923 176.193C320.862 176.558 319.768 176.873 318.641 177.138C317.547 177.403 316.487 177.702 315.459 178.033C316.155 178.829 316.951 179.343 317.846 179.575C318.741 179.773 319.669 179.807 320.63 179.674C321.625 179.541 322.619 179.276 323.614 178.878C324.608 178.448 325.536 177.983 326.398 177.486L326.697 177.337ZM316.652 168.785C315.89 169.215 315.326 169.762 314.962 170.425C314.597 171.055 314.332 171.95 314.166 173.11C315.028 172.845 315.989 172.564 317.05 172.265C318.144 171.967 319.172 171.652 320.133 171.32C321.094 170.989 321.907 170.624 322.57 170.227C323.233 169.829 323.564 169.398 323.564 168.934C323.564 168.669 323.514 168.42 323.415 168.188C323.349 167.923 323.183 167.74 322.918 167.641C321.989 167.309 321.028 167.243 320.034 167.442C319.039 167.641 318.21 167.923 317.547 168.287L316.652 168.785ZM356.458 185.89C355.596 185.724 354.85 185.326 354.22 184.696C353.624 184.066 353.325 183.287 353.325 182.359V161.425C352.729 161.525 352.149 161.459 351.585 161.227C351.021 160.961 350.574 160.63 350.242 160.232C349.911 159.801 349.729 159.32 349.695 158.79C349.629 158.227 349.795 157.696 350.193 157.199C350.624 156.635 351.137 156.171 351.734 155.807C352.331 155.409 352.961 155.094 353.624 154.862C354.287 154.597 354.966 154.381 355.662 154.215C356.392 154.05 357.088 153.901 357.751 153.768C359.607 153.47 361.463 153.403 363.32 153.569C365.176 153.702 366.933 154.099 368.591 154.762C370.248 155.425 371.756 156.354 373.115 157.547C374.508 158.74 375.635 160.232 376.497 162.022C377.027 163.116 377.408 164.26 377.64 165.453C377.872 166.613 378.005 167.79 378.038 168.983C378.071 170.541 377.889 172.05 377.491 173.508C377.093 174.967 376.497 176.343 375.701 177.635C374.905 178.895 373.944 180.022 372.817 181.017C371.69 182.011 370.43 182.84 369.038 183.503C367.811 184.066 366.502 184.481 365.11 184.746C363.751 185.011 362.408 185.243 361.082 185.442C360.419 185.541 359.707 185.641 358.944 185.74C358.215 185.873 357.502 185.939 356.806 185.939L356.458 185.89ZM361.828 159.486C361.397 159.486 360.983 159.503 360.585 159.536C360.22 159.569 359.823 159.619 359.392 159.685V179.624C359.591 179.624 359.756 179.608 359.889 179.575C360.021 179.541 360.154 179.525 360.287 179.525C360.419 179.525 360.535 179.508 360.635 179.475C361.099 179.409 361.48 179.359 361.778 179.326C362.077 179.293 362.358 179.26 362.624 179.227C362.889 179.16 363.154 179.094 363.419 179.028C363.718 178.961 364.049 178.878 364.414 178.779C366.336 178.282 367.845 177.503 368.939 176.442C370.066 175.348 370.911 173.856 371.474 171.967C371.839 170.873 372.005 169.762 371.972 168.635C371.939 167.508 371.723 166.431 371.325 165.403C370.961 164.376 370.414 163.448 369.684 162.619C368.955 161.757 368.06 161.077 366.999 160.58C366.137 160.182 365.276 159.917 364.414 159.785C363.585 159.652 362.723 159.552 361.828 159.486ZM399.162 177.337C399.958 177.138 400.654 177.138 401.251 177.337C401.881 177.503 402.361 177.801 402.693 178.232C403.024 178.663 403.174 179.193 403.14 179.823C403.107 180.453 402.825 181.116 402.295 181.812C401.864 182.376 401.267 182.856 400.505 183.254C399.743 183.652 399.03 183.967 398.367 184.199C396.743 184.796 395.201 185.21 393.743 185.442C392.284 185.674 390.908 185.674 389.615 185.442C388.356 185.21 387.162 184.729 386.035 184C384.941 183.271 383.914 182.243 382.953 180.917C382.29 180.022 381.792 179.011 381.461 177.884C381.162 176.724 380.997 175.547 380.964 174.354C380.93 173.16 381.03 171.983 381.262 170.823C381.494 169.663 381.825 168.619 382.256 167.691C382.82 166.53 383.715 165.47 384.941 164.508C386.168 163.547 387.527 162.785 389.019 162.221C390.511 161.657 392.035 161.343 393.593 161.276C395.151 161.177 396.527 161.409 397.72 161.972C398.715 162.436 399.56 163.116 400.256 164.011C400.986 164.873 401.483 165.818 401.748 166.845C402.013 167.873 402.03 168.917 401.798 169.978C401.599 171.006 401.069 171.95 400.207 172.812C399.378 173.641 398.466 174.32 397.472 174.851C396.477 175.348 395.45 175.796 394.389 176.193C393.328 176.558 392.234 176.873 391.107 177.138C390.013 177.403 388.953 177.702 387.925 178.033C388.621 178.829 389.417 179.343 390.312 179.575C391.207 179.773 392.135 179.807 393.096 179.674C394.091 179.541 395.085 179.276 396.08 178.878C397.074 178.448 398.002 177.983 398.864 177.486L399.162 177.337ZM389.118 168.785C388.356 169.215 387.792 169.762 387.428 170.425C387.063 171.055 386.798 171.95 386.632 173.11C387.494 172.845 388.455 172.564 389.516 172.265C390.61 171.967 391.638 171.652 392.599 171.32C393.56 170.989 394.372 170.624 395.035 170.227C395.698 169.829 396.03 169.398 396.03 168.934C396.03 168.669 395.98 168.42 395.881 168.188C395.814 167.923 395.649 167.74 395.383 167.641C394.455 167.309 393.494 167.243 392.499 167.442C391.505 167.641 390.676 167.923 390.013 168.287L389.118 168.785ZM413.225 180.917C413.589 181.249 413.888 181.68 414.12 182.21C414.385 182.707 414.517 183.221 414.517 183.751C414.551 184.249 414.435 184.713 414.169 185.144C413.937 185.608 413.506 185.956 412.877 186.188C412.379 186.354 411.832 186.387 411.236 186.287C410.639 186.188 410.042 185.989 409.446 185.691C408.882 185.392 408.368 185.028 407.904 184.597C407.473 184.199 407.158 183.751 406.959 183.254C406.893 183.088 406.843 182.906 406.81 182.707C406.777 182.475 406.761 182.276 406.761 182.11V154.514C406.761 153.751 407.042 153.105 407.606 152.575C408.203 152.044 408.849 151.729 409.545 151.63C409.877 151.597 410.225 151.646 410.589 151.779C410.987 151.912 411.352 152.11 411.683 152.376C412.015 152.608 412.28 152.89 412.479 153.221C412.711 153.552 412.827 153.901 412.827 154.265C412.827 155.127 412.827 156.271 412.827 157.696C412.827 159.122 412.827 160.68 412.827 162.37C412.86 164.061 412.877 165.818 412.877 167.641C412.877 169.431 412.86 171.155 412.827 172.812C412.827 174.47 412.827 175.994 412.827 177.387C412.827 178.746 412.81 179.84 412.777 180.669L413.225 180.917ZM425.103 182.608C425.036 183.271 424.804 183.851 424.406 184.348C424.009 184.878 423.545 185.26 423.014 185.492C422.517 185.724 421.97 185.773 421.373 185.641C420.777 185.508 420.246 185.144 419.782 184.547C419.517 184.215 419.318 183.851 419.185 183.453C419.086 183.022 419.02 182.591 418.987 182.16C418.953 181.696 418.937 181.249 418.937 180.818C418.97 180.354 418.987 179.939 418.987 179.575C418.953 177.619 418.937 175.68 418.937 173.757C418.97 171.834 418.97 169.895 418.937 167.939C418.937 167.144 418.887 166.348 418.788 165.552C418.688 164.724 418.738 163.912 418.937 163.116C419.103 162.519 419.384 162.006 419.782 161.575C420.213 161.144 420.677 160.845 421.174 160.68C421.705 160.514 422.235 160.497 422.766 160.63C423.329 160.762 423.81 161.11 424.208 161.674C424.738 162.337 425.003 163 425.003 163.663C425.003 164.293 425.003 165.072 425.003 166C425.003 167.127 425.003 168.254 425.003 169.381C425.003 170.508 425.02 171.619 425.053 172.713C425.086 174.304 425.103 175.895 425.103 177.486C425.103 179.077 425.103 180.669 425.103 182.26V182.608ZM418.539 154.315C418.672 153.088 419.086 152.193 419.782 151.63C420.511 151.033 421.274 150.751 422.069 150.785C422.865 150.785 423.594 151.083 424.257 151.68C424.953 152.276 425.318 153.122 425.351 154.215C425.418 155.343 425.119 156.221 424.456 156.851C423.826 157.448 423.097 157.796 422.268 157.895C421.44 157.961 420.661 157.729 419.931 157.199C419.202 156.669 418.755 155.823 418.589 154.663L418.539 154.315ZM443.778 162.519C444.275 161.856 444.838 161.409 445.468 161.177C446.131 160.912 446.745 160.862 447.308 161.028C447.872 161.16 448.352 161.492 448.75 162.022C449.148 162.552 449.363 163.265 449.397 164.16C449.397 164.392 449.347 164.691 449.247 165.055C449.181 165.42 449.082 165.801 448.949 166.199C448.816 166.564 448.7 166.912 448.601 167.243C448.501 167.541 448.435 167.74 448.402 167.84C447.838 169.63 447.176 171.569 446.413 173.657C445.684 175.713 445.004 177.635 444.374 179.425C444.109 180.188 443.827 180.917 443.529 181.613C443.264 182.276 442.982 182.972 442.684 183.702C442.452 184.298 442.104 184.779 441.64 185.144C441.209 185.508 440.728 185.74 440.198 185.84C439.7 185.939 439.187 185.89 438.656 185.691C438.126 185.492 437.662 185.127 437.264 184.597C436.999 184.232 436.767 183.768 436.568 183.204C436.402 182.641 436.269 182.227 436.17 181.961C435.805 181 435.441 180.055 435.076 179.127C434.711 178.199 434.347 177.271 433.982 176.343C433.485 175.083 432.971 173.84 432.441 172.613C431.91 171.387 431.363 170.177 430.8 168.983C430.468 168.254 430.104 167.541 429.706 166.845C429.308 166.149 429.01 165.42 428.811 164.657C428.612 163.961 428.629 163.348 428.861 162.818C429.126 162.254 429.49 161.823 429.955 161.525C430.452 161.227 430.999 161.061 431.595 161.028C432.225 160.994 432.822 161.16 433.385 161.525C433.816 161.79 434.214 162.204 434.579 162.768C434.943 163.331 435.275 163.945 435.573 164.608C435.872 165.271 436.137 165.934 436.369 166.597C436.634 167.227 436.866 167.757 437.065 168.188C437.529 169.249 437.977 170.309 438.408 171.37C438.872 172.431 439.319 173.492 439.75 174.552C440.446 172.597 441.109 170.657 441.739 168.735C442.402 166.779 443.015 164.807 443.579 162.818L443.778 162.519ZM470.178 177.337C470.974 177.138 471.67 177.138 472.266 177.337C472.896 177.503 473.377 177.801 473.708 178.232C474.04 178.663 474.189 179.193 474.156 179.823C474.123 180.453 473.841 181.116 473.311 181.812C472.88 182.376 472.283 182.856 471.521 183.254C470.758 183.652 470.045 183.967 469.382 184.199C467.758 184.796 466.217 185.21 464.758 185.442C463.3 185.674 461.924 185.674 460.631 185.442C459.371 185.21 458.178 184.729 457.051 184C455.957 183.271 454.929 182.243 453.968 180.917C453.305 180.022 452.808 179.011 452.476 177.884C452.178 176.724 452.012 175.547 451.979 174.354C451.946 173.16 452.045 171.983 452.278 170.823C452.51 169.663 452.841 168.619 453.272 167.691C453.836 166.53 454.731 165.47 455.957 164.508C457.184 163.547 458.543 162.785 460.034 162.221C461.526 161.657 463.051 161.343 464.609 161.276C466.167 161.177 467.543 161.409 468.736 161.972C469.731 162.436 470.576 163.116 471.272 164.011C472.001 164.873 472.499 165.818 472.764 166.845C473.029 167.873 473.045 168.917 472.813 169.978C472.615 171.006 472.084 171.95 471.222 172.812C470.394 173.641 469.482 174.32 468.487 174.851C467.493 175.348 466.465 175.796 465.405 176.193C464.344 176.558 463.25 176.873 462.123 177.138C461.029 177.403 459.968 177.702 458.941 178.033C459.637 178.829 460.432 179.343 461.327 179.575C462.222 179.773 463.15 179.807 464.112 179.674C465.106 179.541 466.101 179.276 467.095 178.878C468.09 178.448 469.018 177.983 469.88 177.486L470.178 177.337ZM460.134 168.785C459.371 169.215 458.808 169.762 458.443 170.425C458.079 171.055 457.813 171.95 457.648 173.11C458.51 172.845 459.471 172.564 460.532 172.265C461.626 171.967 462.653 171.652 463.615 171.32C464.576 170.989 465.388 170.624 466.051 170.227C466.714 169.829 467.045 169.398 467.045 168.934C467.045 168.669 466.996 168.42 466.896 168.188C466.83 167.923 466.664 167.74 466.399 167.641C465.471 167.309 464.51 167.243 463.515 167.442C462.521 167.641 461.692 167.923 461.029 168.287L460.134 168.785ZM479.234 168.785C479.234 168.917 479.251 168.884 479.284 168.685C479.317 168.453 479.301 168.055 479.234 167.492C478.704 167.193 478.29 166.812 477.991 166.348C477.693 165.884 477.511 165.387 477.444 164.856C477.411 164.326 477.511 163.829 477.743 163.365C478.008 162.867 478.422 162.453 478.986 162.122C479.748 161.691 480.577 161.608 481.472 161.873C482.4 162.138 483.196 162.536 483.859 163.066C484.687 162.436 485.549 161.906 486.444 161.475C487.339 161.044 488.251 160.762 489.179 160.63C490.107 160.464 491.052 160.481 492.013 160.68C492.975 160.878 493.919 161.293 494.848 161.923C495.312 162.221 495.743 162.602 496.14 163.066C496.538 163.497 496.787 163.994 496.886 164.558C497.052 165.387 496.986 166.116 496.687 166.746C496.389 167.343 495.975 167.79 495.444 168.088C494.914 168.354 494.317 168.436 493.654 168.337C492.991 168.204 492.361 167.84 491.765 167.243C491.566 167.11 491.417 167.011 491.317 166.945C491.251 166.845 491.085 166.729 490.82 166.597C490.29 166.464 489.759 166.497 489.229 166.696C488.732 166.895 488.234 167.177 487.737 167.541C487.273 167.873 486.826 168.254 486.395 168.685C485.997 169.083 485.632 169.448 485.301 169.779V182.459C485.301 182.956 485.201 183.436 485.002 183.901C484.704 184.663 484.223 185.193 483.56 185.492C482.931 185.79 482.284 185.873 481.621 185.74C480.991 185.608 480.428 185.276 479.931 184.746C479.466 184.215 479.234 183.536 479.234 182.707V168.785ZM515.53 177.337C516.325 177.138 517.021 177.138 517.618 177.337C518.248 177.503 518.729 177.801 519.06 178.232C519.392 178.663 519.541 179.193 519.508 179.823C519.474 180.453 519.193 181.116 518.662 181.812C518.231 182.376 517.635 182.856 516.872 183.254C516.11 183.652 515.397 183.967 514.734 184.199C513.11 184.796 511.568 185.21 510.11 185.442C508.651 185.674 507.275 185.674 505.983 185.442C504.723 185.21 503.53 184.729 502.403 184C501.309 183.271 500.281 182.243 499.32 180.917C498.657 180.022 498.159 179.011 497.828 177.884C497.53 176.724 497.364 175.547 497.331 174.354C497.298 173.16 497.397 171.983 497.629 170.823C497.861 169.663 498.193 168.619 498.624 167.691C499.187 166.53 500.082 165.47 501.309 164.508C502.535 163.547 503.894 162.785 505.386 162.221C506.878 161.657 508.403 161.343 509.961 161.276C511.519 161.177 512.894 161.409 514.088 161.972C515.082 162.436 515.927 163.116 516.624 164.011C517.353 164.873 517.85 165.818 518.115 166.845C518.38 167.873 518.397 168.917 518.165 169.978C517.966 171.006 517.436 171.95 516.574 172.812C515.745 173.641 514.834 174.32 513.839 174.851C512.845 175.348 511.817 175.796 510.756 176.193C509.695 176.558 508.601 176.873 507.474 177.138C506.38 177.403 505.32 177.702 504.292 178.033C504.988 178.829 505.784 179.343 506.679 179.575C507.574 179.773 508.502 179.807 509.463 179.674C510.458 179.541 511.452 179.276 512.447 178.878C513.441 178.448 514.369 177.983 515.231 177.486L515.53 177.337ZM505.485 168.785C504.723 169.215 504.159 169.762 503.795 170.425C503.43 171.055 503.165 171.95 502.999 173.11C503.861 172.845 504.822 172.564 505.883 172.265C506.977 171.967 508.005 171.652 508.966 171.32C509.927 170.989 510.74 170.624 511.403 170.227C512.066 169.829 512.397 169.398 512.397 168.934C512.397 168.669 512.347 168.42 512.248 168.188C512.182 167.923 512.016 167.74 511.751 167.641C510.822 167.309 509.861 167.243 508.867 167.442C507.872 167.641 507.043 167.923 506.38 168.287L505.485 168.785ZM546.016 180.022C546.579 180.983 546.762 181.845 546.563 182.608C546.397 183.37 546.032 183.934 545.469 184.298C544.905 184.696 544.209 184.845 543.38 184.746C542.585 184.68 541.806 184.265 541.043 183.503C540.248 184.066 539.419 184.497 538.557 184.796C537.695 185.127 536.784 185.409 535.822 185.641C534.331 185.972 532.889 185.939 531.497 185.541C530.137 185.177 528.927 184.564 527.867 183.702C526.806 182.84 525.944 181.779 525.281 180.519C524.618 179.227 524.253 177.834 524.187 176.343C524.088 174.685 524.204 173.094 524.535 171.569C524.9 170.044 525.463 168.652 526.226 167.392C526.988 166.133 527.983 165.055 529.209 164.16C530.469 163.265 531.944 162.635 533.635 162.271C534.629 162.072 535.624 161.972 536.618 161.972C537.646 161.972 538.657 162.055 539.651 162.221C539.618 161.492 539.585 160.663 539.552 159.735C539.552 158.773 539.552 157.845 539.552 156.95C539.552 156.055 539.585 155.26 539.651 154.564C539.717 153.834 539.8 153.32 539.9 153.022C540.132 152.425 540.48 151.978 540.944 151.68C541.441 151.348 541.955 151.182 542.485 151.182C543.016 151.149 543.53 151.282 544.027 151.58C544.557 151.845 544.972 152.26 545.27 152.823C545.336 152.989 545.419 153.155 545.519 153.32C545.618 153.453 545.668 153.602 545.668 153.768C545.701 158.11 545.701 162.403 545.668 166.646C545.668 170.89 545.668 175.182 545.668 179.525C545.8 179.724 545.916 179.89 546.016 180.022ZM539.104 177.287C539.171 177.188 539.287 177.088 539.452 176.989C539.651 176.89 539.751 176.757 539.751 176.591C539.751 175.199 539.751 173.84 539.751 172.514C539.751 171.155 539.734 169.779 539.701 168.387C538.905 168.221 538.077 168.122 537.215 168.088C536.353 168.055 535.508 168.138 534.679 168.337C533.883 168.536 533.137 168.867 532.441 169.331C531.778 169.796 531.248 170.459 530.85 171.32C530.651 171.95 530.469 172.58 530.303 173.21C530.137 173.84 530.038 174.453 530.005 175.05C530.005 175.646 530.088 176.243 530.253 176.84C530.419 177.403 530.701 177.95 531.099 178.481C531.231 178.613 531.38 178.746 531.546 178.878C531.745 179.011 532.11 179.243 532.64 179.575C533.867 179.674 535.027 179.558 536.121 179.227C537.248 178.895 538.242 178.249 539.104 177.287Z" fill="white"/>
<path d="M180.832 176.939C180.136 176.773 179.539 176.459 179.042 175.994C178.544 175.53 178.213 175.017 178.047 174.453C177.915 173.89 177.964 173.326 178.196 172.762C178.428 172.199 178.909 171.718 179.638 171.32C180.235 170.989 180.931 170.84 181.727 170.873C182.556 170.873 183.301 170.873 183.964 170.873C187.511 170.807 191.091 170.807 194.705 170.873C194.904 170.873 195.119 170.939 195.351 171.072C195.583 171.171 195.782 171.287 195.948 171.42C196.412 171.718 196.76 172.099 196.992 172.564C197.224 172.994 197.34 173.442 197.34 173.906C197.373 174.337 197.274 174.768 197.042 175.199C196.843 175.63 196.511 175.994 196.047 176.293C195.517 176.624 194.837 176.84 194.009 176.939C193.213 177.039 192.401 177.088 191.572 177.088C190.743 177.088 189.981 177.072 189.285 177.039C188.589 176.972 188.108 176.939 187.843 176.939H180.832Z" fill="#FF9F30"/>
</svg>
