<svg width="29" height="28" viewBox="0 0 29 28" fill="none" xmlns="http://www.w3.org/2000/svg">
<path fill-rule="evenodd" clip-rule="evenodd" d="M1.54082 0.25C0.990262 0.25 0.543945 0.696317 0.543945 1.24687V21.1843C0.543945 21.7349 0.990262 22.1811 1.54082 22.1811H11.0232C10.6926 21.2459 10.5127 20.2392 10.5127 19.1906C10.5127 16.6558 11.5639 14.3665 13.2541 12.7349V2.84679C12.6897 1.33029 11.2289 0.25 9.51581 0.25H1.54082ZM15.7463 2.84677V11.0323C16.8843 10.5099 18.1504 10.2187 19.4846 10.2187C24.0973 10.2187 27.897 13.6998 28.4 18.1782H28.4564V1.24687C28.4564 0.696317 28.01 0.25 27.4595 0.25H19.4846C17.7715 0.25 16.3107 1.33026 15.7463 2.84677ZM19.4846 15.7015C17.5576 15.7015 15.9955 17.2637 15.9955 19.1906C15.9955 21.1175 17.5576 22.6796 19.4846 22.6796C21.4115 22.6796 22.9736 21.1175 22.9736 19.1906C22.9736 17.2637 21.4115 15.7015 19.4846 15.7015ZM13.0049 19.1906C13.0049 15.612 15.9059 12.7109 19.4846 12.7109C23.0631 12.7109 25.9642 15.612 25.9642 19.1906C25.9642 20.4382 25.6117 21.6034 25.0007 22.5921L27.5192 25.1104C28.1031 25.6943 28.1031 26.6412 27.5192 27.2251C26.9352 27.8091 25.9884 27.8091 25.4044 27.2251L22.8861 24.7068C21.8974 25.3177 20.732 25.6702 19.4846 25.6702C15.9059 25.6702 13.0049 22.7693 13.0049 19.1906Z" fill="#FF9F30"/>
</svg>
