<svg width="10" height="10" viewBox="0 0 10 10" fill="none" xmlns="http://www.w3.org/2000/svg">
<path fill-rule="evenodd" clip-rule="evenodd" d="M3.21429 0.714286C3.21429 0.319796 2.89449 0 2.5 0C2.10551 0 1.78571 0.319796 1.78571 0.714286V1.42857H1.07143C0.479695 1.42857 0 1.90826 0 2.5V3.57143H10V2.5C10 1.90826 9.52029 1.42857 8.92857 1.42857H8.21436V0.714286C8.21436 0.319796 7.89457 0 7.50007 0C7.10558 0 6.78578 0.319796 6.78578 0.714286V1.42857H3.21429V0.714286ZM10 4.46429H0V8.92857C0 9.52029 0.479695 10 1.07143 10H8.92857C9.52029 10 10 9.52029 10 8.92857V4.46429Z" fill="#FF9F30"/>
</svg>
