<svg width="25" height="25" viewBox="0 0 25 25" fill="none" xmlns="http://www.w3.org/2000/svg">
<g clip-path="url(#clip0_512_10731)">
<path fill-rule="evenodd" clip-rule="evenodd" d="M8.03571 1.78571C8.03571 1.31211 7.84758 0.85791 7.51269 0.523024C7.1778 0.188137 6.7236 0 6.25 0C5.7764 0 5.3222 0.188137 4.98731 0.523024C4.65242 0.85791 4.46429 1.31211 4.46429 1.78571V3.57143H2.67857C1.96817 3.57143 1.28686 3.85363 0.784535 4.35596C0.282206 4.85829 0 5.5396 0 6.25L0 8.92857H25V6.25C25 5.5396 24.7178 4.85829 24.2155 4.35596C23.7131 3.85363 23.0318 3.57143 22.3214 3.57143H20.5357V1.78571C20.5357 1.31211 20.3476 0.85791 20.0127 0.523024C19.6778 0.188137 19.2236 0 18.75 0C18.2764 0 17.8222 0.188137 17.4873 0.523024C17.1524 0.85791 16.9643 1.31211 16.9643 1.78571V3.57143H8.03571V1.78571ZM25 11.1607H0V22.3214C0 23.0318 0.282206 23.7131 0.784535 24.2155C1.28686 24.7178 1.96817 25 2.67857 25H22.3214C23.0318 25 23.7131 24.7178 24.2155 24.2155C24.7178 23.7131 25 23.0318 25 22.3214V11.1607Z" fill="#3B72FF"/>
</g>
<defs>
<clipPath id="clip0_512_10731">
<rect width="25" height="25" fill="white"/>
</clipPath>
</defs>
</svg>
