<svg width="24" height="24" viewBox="0 0 24 24" fill="none" xmlns="http://www.w3.org/2000/svg">
<path fill-rule="evenodd" clip-rule="evenodd" d="M11.7512 0.0726472C11.9109 0.127938 12.0581 0.214162 12.1844 0.326388C12.3107 0.438615 12.4137 0.574642 12.4874 0.726691C12.5611 0.87874 12.6041 1.04383 12.614 1.21252C12.6239 1.38121 12.6004 1.55018 12.5449 1.70979C12.0506 3.13181 12.1162 4.68867 12.7283 6.06408C12.7967 6.21851 12.8339 6.38489 12.8379 6.55372C12.842 6.72254 12.8127 6.89051 12.7518 7.04802C12.6909 7.20554 12.5996 7.34952 12.4831 7.47174C12.3665 7.59396 12.2271 7.69204 12.0726 7.76036C11.9182 7.82869 11.7518 7.86592 11.583 7.86995C11.4142 7.87397 11.2462 7.84471 11.0887 7.78382C10.9312 7.72293 10.7872 7.63161 10.665 7.51508C10.5427 7.39855 10.4447 7.25908 10.3763 7.10465C9.50073 5.13438 9.40697 2.90491 10.1141 0.868076C10.169 0.708094 10.255 0.560527 10.3671 0.43383C10.4791 0.307134 10.6151 0.2038 10.7672 0.129748C10.9193 0.0556964 11.0845 0.0123832 11.2533 0.00229062C11.4222 -0.00780199 11.5914 0.0155243 11.7512 0.0709329V0.0726472ZM7.71748 4.67036C7.76431 4.33255 7.67503 3.98997 7.46927 3.71799C7.26352 3.44601 6.95815 3.26691 6.62034 3.22008C6.28253 3.17325 5.93995 3.26253 5.66797 3.46828C5.39599 3.67404 5.21688 3.97941 5.17005 4.31722C5.00594 5.49782 5.27908 6.6977 5.93805 7.69093C6.03148 7.83163 6.1517 7.95256 6.29186 8.0468C6.43202 8.14104 6.58937 8.20675 6.75492 8.24018C6.92048 8.2736 7.09099 8.2741 7.25674 8.24163C7.42248 8.20916 7.58021 8.14436 7.72091 8.05093C7.86161 7.95751 7.98253 7.83728 8.07677 7.69712C8.17101 7.55696 8.23672 7.39962 8.27015 7.23406C8.30358 7.06851 8.30407 6.89799 8.2716 6.73225C8.23913 6.5665 8.17434 6.40878 8.08091 6.26808C7.76898 5.79764 7.63973 5.22943 7.71748 4.67036ZM17.8061 7.08236C17.3376 6.96169 16.8462 6.96127 16.3775 7.08114C15.9088 7.20101 15.4779 7.43729 15.1249 7.76808L15.1043 7.78865L8.39977 14.4932L8.3912 14.5018C8.05762 14.8451 7.81561 15.2667 7.6874 15.7279C7.55919 16.189 7.54887 16.675 7.6574 17.1412C7.76593 17.6074 7.98983 18.0389 8.30855 18.3961C8.62726 18.7532 9.03058 19.0245 9.48148 19.1852L20.1649 23.1675L20.1769 23.1726C20.6731 23.3484 21.2087 23.3813 21.7226 23.2675C22.2366 23.1538 22.7082 22.8979 23.0838 22.5291C23.4594 22.1603 23.7239 21.6933 23.847 21.1816C23.9702 20.6698 23.9471 20.1337 23.7803 19.6344L19.8152 8.9595C19.6636 8.50348 19.4001 8.09273 19.0489 7.76481C18.6976 7.43689 18.2697 7.20225 17.8043 7.08236H17.8061ZM5.58491 13.2881C5.04465 13.1652 4.47806 13.2464 3.99405 13.5161C3.69625 13.6823 3.34464 13.7233 3.01655 13.6303C2.68847 13.5372 2.4108 13.3176 2.24462 13.0198C2.07845 12.722 2.03738 12.3704 2.13045 12.0423C2.22352 11.7142 2.44311 11.4365 2.74091 11.2704C3.77915 10.6914 4.99482 10.5168 6.15405 10.7801C6.48663 10.8555 6.77561 11.06 6.95742 11.3486C7.13922 11.6371 7.19895 11.9861 7.12348 12.3186C7.04801 12.6512 6.84351 12.9402 6.55497 13.122C6.26643 13.3038 5.91749 13.3635 5.58491 13.2881ZM1.78948 5.72808C1.56436 5.72808 1.34144 5.77242 1.13345 5.85857C0.925466 5.94472 0.736484 6.07099 0.577298 6.23018C0.418112 6.38936 0.291838 6.57835 0.205688 6.78633C0.119537 6.99432 0.0751953 7.21724 0.0751953 7.44236C0.0751953 7.66748 0.119537 7.8904 0.205688 8.09839C0.291838 8.30638 0.418112 8.49536 0.577298 8.65454C0.736484 8.81373 0.925466 8.94 1.13345 9.02616C1.34144 9.11231 1.56436 9.15665 1.78948 9.15665C2.24414 9.15665 2.68017 8.97604 3.00166 8.65454C3.32316 8.33305 3.50377 7.89702 3.50377 7.44236C3.50377 6.9877 3.32316 6.55167 3.00166 6.23018C2.68017 5.90869 2.24414 5.72808 1.78948 5.72808Z" fill="#FF9F30"/>
</svg>
