<svg width="15" height="16" viewBox="0 0 15 16" fill="none" xmlns="http://www.w3.org/2000/svg">
<path fill-rule="evenodd" clip-rule="evenodd" d="M15 8C15 3.85787 11.6421 0.5 7.5 0.5C3.35787 0.5 0 3.85787 0 8C0 9.45004 0.411504 10.804 1.1241 11.9513C1.1618 12.0121 1.20038 12.0722 1.23975 12.1318C2.58194 14.1614 4.88458 15.5 7.5 15.5C11.6421 15.5 15 12.1421 15 8ZM7.50001 13.8929C8.08918 13.8929 8.65815 13.8064 9.19494 13.6455C8.73087 11.5414 7.31145 9.80804 4.89701 9.80804C3.8835 9.80804 3.00957 10.1571 2.2761 10.7296C3.26059 12.6098 5.23047 13.8929 7.50001 13.8929ZM10.2789 13.1978C11.3593 12.619 12.2382 11.7133 12.7834 10.6128C12.7335 10.5817 12.6828 10.5518 12.6314 10.5229C12.0315 10.1859 11.3551 10.0089 10.667 10.0089C10.0371 10.0089 9.41688 10.1573 8.85626 10.441C8.90711 10.497 8.95682 10.5541 9.00538 10.6123C9.62992 11.361 10.0442 12.26 10.2789 13.1978ZM5.06689 3.97462C6.39544 3.97462 7.47244 5.05162 7.47244 6.38017C7.47244 7.70872 6.39544 8.78572 5.06689 8.78572C3.73835 8.78572 2.66134 7.70872 2.66134 6.38017C2.66134 5.05162 3.73835 3.97462 5.06689 3.97462ZM12.6407 7.07849C12.6407 5.97782 11.7484 5.08555 10.6478 5.08555C9.54714 5.08555 8.65487 5.97782 8.65487 7.07849C8.65487 8.17915 9.54714 9.07142 10.6478 9.07142C11.7484 9.07142 12.6407 8.17915 12.6407 7.07849Z" fill="#FF9F30"/>
</svg>
