<svg width="18" height="18" viewBox="0 0 18 18" fill="none" xmlns="http://www.w3.org/2000/svg">
<g clip-path="url(#clip0_948_15851)">
<path d="M8.89969 11.4039C9.56659 11.4039 10.227 11.2725 10.8431 11.0173C11.4592 10.7621 12.0191 10.388 12.4907 9.91644C12.9622 9.44487 13.3363 8.88503 13.5915 8.26889C13.8467 7.65275 13.9781 6.99238 13.9781 6.32547C13.9781 5.65857 13.8467 4.99819 13.5915 4.38205C13.3363 3.76591 12.9622 3.20607 12.4907 2.7345C12.0191 2.26293 11.4592 1.88885 10.8431 1.63364C10.227 1.37843 9.56659 1.24707 8.89969 1.24707C7.55281 1.24707 6.2611 1.78211 5.30872 2.7345C4.35633 3.68688 3.82129 4.9786 3.82129 6.32547C3.82129 7.67235 4.35633 8.96406 5.30872 9.91644C6.2611 10.8688 7.55281 11.4039 8.89969 11.4039Z" fill="white"/>
<path d="M16.3159 16.8053C15.8121 15.2343 14.8225 13.8639 13.4896 12.8917C12.1568 11.9194 10.5497 11.3955 8.89989 11.3955C7.25012 11.3955 5.64297 11.9194 4.31015 12.8917C2.97732 13.8639 1.98767 15.2343 1.48389 16.8053H16.3159Z" fill="#D7E0FF" fill-opacity="0.2"/>
<path d="M16.3159 16.8053C15.8121 15.2343 14.8225 13.8639 13.4896 12.8917C12.1568 11.9194 10.5497 11.3955 8.89989 11.3955C7.25012 11.3955 5.64297 11.9194 4.31015 12.8917C2.97732 13.8639 1.98767 15.2343 1.48389 16.8053H16.3159Z" stroke="#F2994A" stroke-width="1.2" stroke-linecap="round" stroke-linejoin="round"/>
<path d="M8.89969 11.4039C9.56659 11.4039 10.227 11.2725 10.8431 11.0173C11.4592 10.7621 12.0191 10.388 12.4907 9.91644C12.9622 9.44487 13.3363 8.88503 13.5915 8.26889C13.8467 7.65275 13.9781 6.99238 13.9781 6.32547C13.9781 5.65857 13.8467 4.99819 13.5915 4.38205C13.3363 3.76591 12.9622 3.20607 12.4907 2.7345C12.0191 2.26293 11.4592 1.88885 10.8431 1.63364C10.227 1.37843 9.56659 1.24707 8.89969 1.24707C7.55281 1.24707 6.2611 1.78211 5.30872 2.7345C4.35633 3.68688 3.82129 4.9786 3.82129 6.32547C3.82129 7.67235 4.35633 8.96406 5.30872 9.91644C6.2611 10.8688 7.55281 11.4039 8.89969 11.4039Z" stroke="#F2994A" stroke-width="1.2" stroke-linecap="round" stroke-linejoin="round"/>
<path d="M10.558 8.28809C10.558 8.28809 10.1356 9.11729 8.89961 9.11729C7.66361 9.11729 7.24121 8.28929 7.24121 8.28929" stroke="#F2994A" stroke-width="1.2" stroke-linecap="round" stroke-linejoin="round"/>
<path d="M13.8858 5.36066H13.8522C13.151 5.36132 12.4577 5.21271 11.8183 4.9247C11.179 4.63669 10.6083 4.21588 10.1442 3.69026C9.67993 4.21603 9.10904 4.63693 8.46949 4.92494C7.82994 5.21296 7.13639 5.36149 6.43498 5.36066C5.60795 5.36238 4.79378 5.15605 4.06738 4.76066C4.41568 3.69026 5.10957 2.76583 6.04013 2.13249C6.97068 1.49915 8.08521 1.19276 9.20875 1.26142C10.3323 1.33008 11.4012 1.7699 12.2477 2.51183C13.0943 3.25377 13.6704 4.25581 13.8858 5.36066Z" fill="#D7E0FF" fill-opacity="0.2"/>
<path d="M13.8858 5.36066H13.8522C13.151 5.36132 12.4577 5.21271 11.8183 4.9247C11.179 4.63669 10.6083 4.21588 10.1442 3.69026C9.67993 4.21603 9.10904 4.63693 8.46949 4.92494C7.82994 5.21296 7.13639 5.36149 6.43498 5.36066C5.60795 5.36238 4.79378 5.15605 4.06738 4.76066C4.41568 3.69026 5.10957 2.76583 6.04013 2.13249C6.97068 1.49915 8.08521 1.19276 9.20875 1.26142C10.3323 1.33008 11.4012 1.7699 12.2477 2.51183C13.0943 3.25377 13.6704 4.25581 13.8858 5.36066Z" stroke="#F2994A" stroke-width="1.2" stroke-linecap="round" stroke-linejoin="round"/>
</g>
<defs>
<clipPath id="clip0_948_15851">
<rect width="16.8" height="16.8" fill="white" transform="translate(0.5 0.609375)"/>
</clipPath>
</defs>
</svg>
