<svg width="10" height="10" viewBox="0 0 10 10" fill="none" xmlns="http://www.w3.org/2000/svg">
<path fill-rule="evenodd" clip-rule="evenodd" d="M5.11475 9.69434C7.54367 9.69434 9.5127 7.72531 9.5127 5.29639C9.5127 2.86747 7.54367 0.898438 5.11475 0.898438C2.68583 0.898438 0.716797 2.86747 0.716797 5.29639C0.716797 7.72531 2.68583 9.69434 5.11475 9.69434ZM5.50742 3.72569C5.50742 3.50882 5.33161 3.33302 5.11475 3.33302C4.89788 3.33302 4.72207 3.50882 4.72207 3.72569V5.29639C4.72207 5.38825 4.75428 5.4772 4.81308 5.54777L6.38378 7.4326C6.52262 7.59922 6.77022 7.62171 6.93683 7.48286C7.10344 7.34407 7.12593 7.09644 6.9871 6.92984L5.50742 5.15422V3.72569Z" fill="#FF9F30"/>
</svg>
