<svg width="32" height="29" viewBox="0 0 32 29" fill="none" xmlns="http://www.w3.org/2000/svg">
<path fill-rule="evenodd" clip-rule="evenodd" d="M7.50593 8.56987C8.51339 8.56987 9.47958 8.16966 10.192 7.45728C10.9043 6.74491 11.3045 5.77872 11.3045 4.77126C11.3045 3.76381 10.9043 2.79762 10.192 2.08524C9.47958 1.37287 8.51339 0.972656 7.50593 0.972656C6.49877 0.972656 5.53286 1.37275 4.82069 2.08492C4.10853 2.79709 3.70843 3.763 3.70843 4.77016C3.70843 5.77732 4.10853 6.74322 4.82069 7.45539C5.53286 8.16756 6.49877 8.56987 7.50593 8.56987ZM24.4939 8.56987C25.5014 8.56987 26.4676 8.16966 27.18 7.45728C27.8923 6.74491 28.2925 5.77872 28.2925 4.77126C28.2925 3.76381 27.8923 2.79762 27.18 2.08524C26.4676 1.37287 25.5014 0.972656 24.4939 0.972656C23.4868 0.972656 22.5209 1.37275 21.8087 2.08492C21.0965 2.79709 20.6964 3.763 20.6964 4.77016C20.6964 5.77732 21.0965 6.74322 21.8087 7.45539C22.5209 8.16756 23.4868 8.56987 24.4939 8.56987ZM24.4939 9.36037C22.9695 9.358 21.4888 9.86977 20.2912 10.8129C21.1987 11.5945 21.8746 12.6098 22.2454 13.7486C22.6163 14.8873 22.668 16.106 22.3948 17.272H30.1913C30.4849 17.272 30.7665 17.1554 30.9742 16.9477C31.1818 16.7401 31.2984 16.4585 31.2984 16.1649C31.2984 14.3602 30.5815 12.6295 29.3054 11.3534C28.0293 10.0773 26.2986 9.36037 24.4939 9.36037ZM7.50593 9.36037C9.03035 9.358 10.511 9.86977 11.7086 10.8129C10.8012 11.5945 10.1253 12.6098 9.75443 13.7486C9.38356 14.8873 9.33191 16.106 9.60507 17.272H1.80636C1.51273 17.272 1.23112 17.1554 1.02349 16.9477C0.815864 16.7401 0.699219 16.4585 0.699219 16.1649C0.699509 15.2713 0.875801 14.3865 1.21803 13.5611C1.56025 12.7356 2.06171 11.9857 2.69378 11.354C3.32584 10.7224 4.07612 10.2214 4.90179 9.8797C5.72747 9.53801 6.61235 9.36229 7.50593 9.36258V9.36037ZM15.9999 19.5815C16.4986 19.5815 16.9924 19.4833 17.4532 19.2924C17.9139 19.1016 18.3325 18.8219 18.6852 18.4692C19.0378 18.1166 19.3175 17.698 19.5084 17.2373C19.6992 16.7765 19.7974 16.2827 19.7974 15.784C19.7974 15.2853 19.6992 14.7915 19.5084 14.3308C19.3175 13.87 19.0378 13.4514 18.6852 13.0988C18.3325 12.7461 17.9139 12.4664 17.4532 12.2756C16.9924 12.0847 16.4986 11.9865 15.9999 11.9865C14.9928 11.9865 14.0269 12.3866 13.3147 13.0988C12.6025 13.8109 12.2024 14.7769 12.2024 15.784C12.2024 16.7912 12.6025 17.7571 13.3147 18.4692C14.0269 19.1814 14.9928 19.5815 15.9999 19.5815ZM9.19543 27.1765C9.19543 26.2829 9.37144 25.3981 9.71339 24.5725C10.0554 23.747 10.5566 22.9969 11.1884 22.365C11.8203 21.7331 12.5704 21.2319 13.396 20.89C14.2215 20.548 15.1064 20.372 15.9999 20.372C16.8935 20.372 17.7783 20.548 18.6039 20.89C19.4295 21.2319 20.1796 21.7331 20.8114 22.365C21.4433 22.9969 21.9445 23.747 22.2865 24.5725C22.6284 25.3981 22.8044 26.2829 22.8044 27.1765C22.8044 27.4701 22.6878 27.7518 22.4802 27.9594C22.2725 28.167 21.9909 28.2837 21.6973 28.2837H10.3026C10.0089 28.2837 9.72734 28.167 9.51971 27.9594C9.31208 27.7518 9.19543 27.4701 9.19543 27.1765Z" fill="#FF9F30"/>
</svg>
