<svg width="21" height="21" viewBox="0 0 21 21" fill="none" xmlns="http://www.w3.org/2000/svg">
<g clip-path="url(#clip0_963_16372)">
<path d="M18.2904 19.6983H4.92819C4.36863 19.6983 3.83199 19.476 3.43631 19.0803C3.04065 18.6847 2.81836 18.1481 2.81836 17.5884C2.81836 17.0289 3.04065 16.4922 3.43631 16.0965C3.83199 15.701 4.36863 15.4787 4.92819 15.4787H16.8839C17.257 15.4787 17.6147 15.3305 17.8785 15.0667C18.1423 14.8029 18.2904 14.4451 18.2904 14.0721V2.81964C18.2904 2.44661 18.1423 2.08884 17.8785 1.82506C17.6147 1.56128 17.257 1.41309 16.8839 1.41309H4.92819C4.37824 1.41289 3.84995 1.62744 3.45586 2.01101C3.06177 2.3946 2.83302 2.9169 2.81836 3.46666V17.5323" stroke="#FF9F30" stroke-width="1.43216" stroke-linecap="round" stroke-linejoin="round"/>
<path d="M16.8838 15.4785V19.6982" stroke="#FF9F30" stroke-width="1.43216" stroke-linecap="round" stroke-linejoin="round"/>
<path d="M11.2749 12.2663C11.7517 12.468 12.2804 12.5127 12.7843 12.3939C13.2882 12.2751 13.7412 11.999 14.0777 11.6055L14.4309 11.2523C14.5845 11.129 14.6845 10.9511 14.71 10.7557C14.7355 10.5604 14.6844 10.3628 14.5676 10.2042L13.4282 9.06484C13.2697 8.94797 13.072 8.89695 12.8767 8.92243C12.6813 8.9479 12.5034 9.04793 12.3801 9.20157C12.2568 9.35521 12.0788 9.45523 11.8835 9.48071C11.6881 9.50619 11.4905 9.45516 11.3319 9.33828L9.50897 7.51537C9.3921 7.35677 9.34108 7.15913 9.36655 6.96379C9.39203 6.76844 9.49206 6.59051 9.6457 6.4672C9.79934 6.34389 9.89936 6.16594 9.92484 5.9706C9.95032 5.77525 9.89929 5.57761 9.78241 5.41901L8.64308 4.2797C8.4845 4.16282 8.28686 4.11179 8.09152 4.13727C7.89616 4.16275 7.71822 4.26277 7.59491 4.41642L7.24173 4.7696C6.84975 5.10716 6.5747 5.56014 6.456 6.06362C6.33729 6.56709 6.38101 7.09523 6.58092 7.57234C7.7362 9.49887 9.34838 11.1111 11.2749 12.2663Z" stroke="#FF9F30" stroke-width="1.43216" stroke-linecap="round" stroke-linejoin="round"/>
</g>
<defs>
<clipPath id="clip0_963_16372">
<rect width="20.0503" height="20.0503" fill="white" transform="translate(0.5 0.474609)"/>
</clipPath>
</defs>
</svg>
