<svg width="26" height="25" viewBox="0 0 26 25" fill="none" xmlns="http://www.w3.org/2000/svg">
<path fill-rule="evenodd" clip-rule="evenodd" d="M12.9963 4.21616e-06C19.8171 -0.00565779 25.5037 5.69221 25.5037 12.4998C25.5037 19.3131 19.8171 24.994 12.9963 24.9902C11.2038 24.9912 9.43203 24.6076 7.80046 23.8654L1.60999 24.9846C1.44567 25.0147 1.2763 25.0006 1.11919 24.9438C0.962085 24.887 0.822871 24.7895 0.715772 24.6613C0.608673 24.5331 0.53753 24.3788 0.50961 24.214C0.481691 24.0493 0.497996 23.8802 0.55686 23.7238L2.33096 19.0093C1.13573 17.0475 0.502446 14.7951 0.50024 12.4979C0.502127 5.69032 6.18301 0.00377889 12.9963 4.21616e-06ZM19.2717 17.8089C17.8807 18.9338 15.7273 20.0699 13.6682 18.7488C10.9693 17.0143 8.57993 14.7363 6.84735 12.0355C5.83008 10.454 6.78696 7.92115 8.21756 6.37731C8.78753 5.76015 9.72743 5.8583 10.3484 6.4245L11.6544 7.61729C12.0507 7.97966 12.0658 8.61003 11.8186 9.08942C11.4279 9.84058 11.1977 10.8503 11.6808 11.6033C12.2885 12.547 13.0359 13.4775 14.8213 14.0191C15.3611 14.1852 16.0538 14.1135 16.6426 13.8757C17.1352 13.6756 17.7599 13.6775 18.1242 14.0663L19.3396 15.3591C20.0096 16.0726 20.0323 17.1936 19.2717 17.8089Z" fill="#3B72FF"/>
</svg>
