<svg width="50" height="53" viewBox="0 0 50 53" fill="none" xmlns="http://www.w3.org/2000/svg">
<path fill-rule="evenodd" clip-rule="evenodd" d="M6.75 0C5.0924 0 3.50268 0.65848 2.33058 1.83058C1.15848 3.00268 0.5 4.5924 0.5 6.25V43.75C0.5 45.8643 1.78929 47.4357 2.82143 48.3143C3.37857 48.7893 3.99286 49.1821 4.6 49.4643C5.15 49.725 5.92143 50 6.75 50H29.9643C31.6219 50 33.2116 49.3415 34.3837 48.1694C35.5558 46.9973 36.2143 45.4076 36.2143 43.75V6.25C36.2143 4.5924 35.5558 3.00268 34.3837 1.83058C33.2116 0.65848 31.6219 0 29.9643 0L6.75 0Z" fill="white"/>
<path fill-rule="evenodd" clip-rule="evenodd" d="M13.8926 43.5028C13.8926 42.7924 14.1748 42.1111 14.6771 41.6088C15.1794 41.1064 15.8607 40.8242 16.5712 40.8242H20.1426C20.853 40.8242 21.5343 41.1064 22.0366 41.6088C22.5389 42.1111 22.8212 42.7924 22.8212 43.5028C22.8212 44.2132 22.5389 44.8945 22.0366 45.3968C21.5343 45.8992 20.853 46.1814 20.1426 46.1814H16.5712C15.8607 46.1814 15.1794 45.8992 14.6771 45.3968C14.1748 44.8945 13.8926 44.2132 13.8926 43.5028Z" fill="#FF9F30"/>
<path d="M6.5 15C6.5 18.1826 7.76428 21.2348 10.0147 23.4853C12.2652 25.7357 15.3174 27 18.5 27C21.6826 27 24.7348 25.7357 26.9853 23.4853C29.2357 21.2348 30.5 18.1826 30.5 15C30.5 11.8174 29.2357 8.76515 26.9853 6.51472C24.7348 4.26428 21.6826 3 18.5 3C15.3174 3 12.2652 4.26428 10.0147 6.51472C7.76428 8.76515 6.5 11.8174 6.5 15Z" fill="#FF9F30"/>
<path d="M14.2143 11.5709C14.2143 12.7075 14.6658 13.7976 15.4696 14.6013C16.2733 15.4051 17.3634 15.8566 18.5 15.8566C19.6367 15.8566 20.7267 15.4051 21.5305 14.6013C22.3342 13.7976 22.7857 12.7075 22.7857 11.5709C22.7857 10.4342 22.3342 9.34414 21.5305 8.54041C20.7267 7.73669 19.6367 7.28516 18.5 7.28516C17.3634 7.28516 16.2733 7.73669 15.4696 8.54041C14.6658 9.34414 14.2143 10.4342 14.2143 11.5709Z" fill="white"/>
<path d="M25.7737 20.9989C24.8899 19.9255 23.7792 19.0613 22.5215 18.4685C21.2638 17.8757 19.8904 17.5689 18.5 17.5703C17.1096 17.5689 15.7361 17.8757 14.4784 18.4685C13.2207 19.0613 12.11 19.9255 11.2263 20.9989C12.11 22.0723 13.2207 22.9365 14.4784 23.5293C15.7361 24.1221 17.1096 24.4289 18.5 24.4275C19.8904 24.4289 21.2638 24.1221 22.5215 23.5293C23.7792 22.9365 24.8899 22.0723 25.7737 20.9989Z" fill="white"/>
<path d="M38.5 52.8282C44.9165 52.8282 49.5 50.5543 49.5 45.496C49.5 39.9951 46.7496 37.2089 41.2504 34.4585L43.6281 30.7414C43.721 30.562 43.7668 30.362 43.7612 30.1601C43.7557 29.9582 43.699 29.761 43.5964 29.587C43.4938 29.413 43.3488 29.2679 43.1748 29.1653C43.0009 29.0626 42.8037 29.0058 42.6018 29.0002H34.8288C34.6132 28.9961 34.4005 29.0506 34.2135 29.1579C34.0264 29.2652 33.872 29.4212 33.7667 29.6094C33.6613 29.7975 33.609 30.0107 33.6153 30.2263C33.6216 30.4418 33.6863 30.6516 33.8025 30.8333L35.7496 34.4585C30.2521 37.2464 27.5 40.0326 27.5 45.5317C27.5 50.5543 32.0835 52.8282 38.5 52.8282Z" fill="#FF9F30"/>
<path fill-rule="evenodd" clip-rule="evenodd" d="M37.8889 40.0653H35.0245C34.7988 40.0653 34.5823 39.9756 34.4227 39.816C34.2631 39.6564 34.1735 39.44 34.1735 39.2143C34.1735 38.9886 34.2631 38.7721 34.4227 38.6125C34.5823 38.4529 34.7988 38.3633 35.0245 38.3633H37.9842H38.0217H41.9754C42.2011 38.3633 42.4176 38.4529 42.5772 38.6125C42.7368 38.7721 42.8264 38.9886 42.8264 39.2143C42.8264 39.44 42.7368 39.6564 42.5772 39.816C42.4176 39.9756 42.2011 40.0653 41.9754 40.0653H40.4572C40.6155 40.3648 40.733 40.7052 40.7942 41.0933H41.9754C42.0872 41.0933 42.1978 41.1153 42.3011 41.1581C42.4043 41.2008 42.4981 41.2635 42.5772 41.3425C42.6562 41.4216 42.7189 41.5154 42.7616 41.6186C42.8044 41.7219 42.8264 41.8325 42.8264 41.9443C42.8264 42.056 42.8044 42.1667 42.7616 42.2699C42.7189 42.3732 42.6562 42.467 42.5772 42.546C42.4981 42.6251 42.4043 42.6877 42.3011 42.7305C42.1978 42.7733 42.0872 42.7953 41.9754 42.7953H40.6785C40.5338 43.2548 40.3006 43.6514 40.0045 43.9833C39.5109 44.5398 38.8761 44.8836 38.3025 45.0998C38.2714 45.1114 38.2402 45.1227 38.2089 45.1338C38.9901 45.5712 40.0079 46.0359 41.1874 46.332C41.298 46.3569 41.4026 46.4037 41.4949 46.4696C41.5872 46.5355 41.6654 46.6191 41.725 46.7157C41.7845 46.8122 41.8241 46.9197 41.8415 47.0317C41.8589 47.1438 41.8537 47.2582 41.8263 47.3683C41.7988 47.4783 41.7496 47.5817 41.6816 47.6725C41.6136 47.7633 41.5282 47.8395 41.4303 47.8968C41.3324 47.9541 41.224 47.9912 41.1116 48.006C40.9991 48.0208 40.8849 48.013 40.7755 47.983C38.8467 47.4886 37.0452 46.5893 35.4908 45.3449L35.4687 45.3244L35.4602 45.3193L35.4585 45.3159L36.0167 44.6743L35.4568 45.3159C35.3261 45.2021 35.2334 45.0512 35.1908 44.8833C35.1483 44.7153 35.158 44.5384 35.2187 44.3762C35.2794 44.2139 35.3881 44.074 35.5304 43.9752C35.6727 43.8765 35.8418 43.8234 36.015 43.8233H36.0184H36.0406C36.0627 43.8233 36.0967 43.8233 36.1427 43.8199C36.6753 43.7899 37.2008 43.6839 37.7034 43.505C38.1171 43.3641 38.488 43.1198 38.7808 42.7953H35.0245C34.7988 42.7953 34.5823 42.7056 34.4227 42.546C34.2631 42.3864 34.1735 42.17 34.1735 41.9443C34.1735 41.7186 34.2631 41.5021 34.4227 41.3425C34.5823 41.1829 34.7988 41.0933 35.0245 41.0933H39.0514C38.9783 40.8622 38.8456 40.6544 38.6667 40.4908C38.4425 40.2926 38.1767 40.1472 37.8889 40.0653Z" fill="white"/>
</svg>
