<svg width="25" height="25" viewBox="0 0 25 25" fill="none" xmlns="http://www.w3.org/2000/svg">
<path fill-rule="evenodd" clip-rule="evenodd" d="M14.2588 3.40287C14.3613 3.25367 14.4986 3.13165 14.6589 3.04734C14.8191 2.96304 14.9974 2.91897 15.1784 2.91895H19.6427C19.9387 2.91895 20.2226 3.03653 20.4319 3.24584C20.6412 3.45514 20.7588 3.73902 20.7588 4.03502C20.7588 4.33102 20.6412 4.61489 20.4319 4.8242C20.2226 5.0335 19.9387 5.15109 19.6427 5.15109H16.8034L18.8856 10.5636C20.0137 10.3951 21.1657 10.607 22.1601 11.1657C23.1544 11.7245 23.9345 12.5983 24.3772 13.6495C24.82 14.7007 24.9002 15.8693 24.6052 16.9711C24.3102 18.0729 23.6569 19.0451 22.7482 19.7345C21.8395 20.4239 20.7272 20.7911 19.5866 20.7784C18.4461 20.7656 17.3423 20.3735 16.4493 19.6639C15.5563 18.9544 14.9249 17.9677 14.6547 16.8596C14.3845 15.7515 14.4908 14.5849 14.957 13.5439L13.3767 15.4404C13.2839 15.5585 13.1683 15.6565 13.0366 15.7287C12.9049 15.8008 12.76 15.8455 12.6106 15.86L10.4677 16.1279C10.3686 17.1712 9.95247 18.1591 9.27536 18.9591C8.59826 19.759 7.69257 20.3325 6.67997 20.6026C5.66736 20.8727 4.59635 20.8264 3.61081 20.47C2.62528 20.1136 1.77242 19.4641 1.16683 18.6087C0.56123 17.7534 0.231901 16.7333 0.223082 15.6853C0.214263 14.6373 0.526376 13.6117 1.11749 12.7464C1.70861 11.881 2.55041 11.2172 3.52981 10.8442C4.50921 10.4713 5.57929 10.407 6.59629 10.66L7.57308 8.70645L6.51058 6.9368H5.35701C5.06101 6.9368 4.77713 6.81922 4.56783 6.60991C4.35852 6.40061 4.24094 6.11673 4.24094 5.82073C4.24094 5.52473 4.35852 5.24085 4.56783 5.03155C4.77713 4.82225 5.06101 4.70466 5.35701 4.70466H7.12308H7.16058H9.82129C10.1173 4.70466 10.4012 4.82225 10.6105 5.03155C10.8198 5.24085 10.9374 5.52473 10.9374 5.82073C10.9374 6.11673 10.8198 6.40061 10.6105 6.60991C10.4012 6.81922 10.1173 6.9368 9.82129 6.9368H9.11415L9.79272 8.07073L9.80879 8.09395L12.6481 12.8261L15.8749 8.95823L14.1374 4.4368C14.0724 4.26781 14.0495 4.08555 14.0706 3.90574C14.0918 3.72592 14.1564 3.55216 14.2588 3.40287ZM18.6017 16.0422L17.6392 13.5422C17.1535 14.005 16.8433 14.6217 16.7611 15.2875C16.679 15.9532 16.8301 16.6269 17.1886 17.1939C17.5472 17.7608 18.0911 18.186 18.7278 18.3971C19.3646 18.6082 20.0548 18.5922 20.681 18.3518C21.3073 18.1114 21.8309 17.6614 22.1628 17.0785C22.4947 16.4955 22.6144 15.8156 22.5015 15.1543C22.3885 14.4931 22.05 13.8914 21.5435 13.4516C21.0369 13.0118 20.3936 12.7611 19.7231 12.7422L20.6838 15.2422C20.7771 15.5154 20.7608 15.8141 20.6385 16.0756C20.5162 16.3371 20.2973 16.541 20.0279 16.6445C19.7584 16.7481 19.4593 16.7432 19.1933 16.6308C18.9274 16.5185 18.7153 16.3075 18.6017 16.0422ZM16.7927 11.3404L16.8017 11.3654C16.7789 11.3807 16.7563 11.3961 16.7338 11.4118L16.7927 11.3404ZM8.93558 10.9761L8.14987 12.5475L7.28736 14.2761L9.20522 14.0368L10.6606 13.8547L8.93379 10.9761H8.93558ZM8.15344 16.4172L5.49629 16.7493C5.2957 16.7746 5.09201 16.7449 4.90697 16.6635C4.72193 16.582 4.5625 16.4518 4.4457 16.2868C4.3289 16.1217 4.25912 15.9281 4.24381 15.7265C4.2285 15.5249 4.26825 15.3229 4.35879 15.1422L5.55522 12.7475C5.1583 12.7198 4.75992 12.7741 4.3849 12.9071C4.00989 13.0401 3.66627 13.2488 3.37545 13.5204C3.08463 13.7919 2.85284 14.1205 2.69453 14.4855C2.53621 14.8505 2.45475 15.2443 2.45522 15.6422C2.45672 16.3429 2.71176 17.0195 3.17324 17.5468C3.63471 18.0742 4.27144 18.4168 4.96582 18.5112C5.66019 18.6057 6.36529 18.4457 6.95088 18.0608C7.53647 17.6759 7.96478 17.0921 8.15344 16.4172Z" fill="#3B72FF"/>
</svg>
