<svg width="13" height="12" viewBox="0 0 13 12" fill="none" xmlns="http://www.w3.org/2000/svg">
<path fill-rule="evenodd" clip-rule="evenodd" d="M4.17941 5.15896H1.60845C1.13519 5.15896 0.751465 4.77524 0.751465 4.30197V1.73101C0.751465 1.25774 1.13519 0.874023 1.60845 0.874023H4.17941C4.65268 0.874023 5.0364 1.25774 5.0364 1.73101V4.30197C5.0364 4.77524 4.65268 5.15896 4.17941 5.15896ZM7.60736 1.51676C7.25241 1.51676 6.96462 1.80455 6.96462 2.1595C6.96462 2.51445 7.25241 2.80225 7.60736 2.80225H8.2501V8.76775C8.63662 8.38963 9.16551 8.15658 9.74887 8.15658C10.9326 8.15658 11.8923 9.11623 11.8923 10.2999C11.8923 10.3489 11.8906 10.3974 11.8874 10.4454C12.4242 10.2572 12.7493 9.70589 12.7493 9.0154C12.7493 7.36422 11.3948 5.91188 9.53558 5.80765V4.98695C9.72465 5.09635 9.94423 5.15896 10.1783 5.15896H11.0353C11.2719 5.15896 11.4638 4.9671 11.4638 4.73047V3.01649C11.4638 2.77986 11.2719 2.588 11.0353 2.588H10.1783C9.94423 2.588 9.72465 2.65061 9.53558 2.76001V2.1595C9.53558 1.80455 9.2478 1.51676 8.89285 1.51676H7.60736ZM7.6162 10.5151C7.60911 10.4443 7.60553 10.3726 7.60553 10.2999C7.60553 9.91008 7.70959 9.54455 7.89148 9.22965H7.82161C7.46666 9.22965 7.17887 8.94186 7.17887 8.58691V8.15842C7.17887 6.85684 6.12373 5.8017 4.82215 5.8017H3.10818C1.80661 5.8017 0.751465 6.85684 0.751465 8.15842V9.87239C0.751465 10.2273 1.03926 10.5151 1.39421 10.5151H1.61728C1.6102 10.4444 1.60662 10.3726 1.60662 10.2999C1.60662 9.11623 2.56627 8.15658 3.74996 8.15658C4.93374 8.15658 5.89339 9.11623 5.89339 10.2999C5.89339 10.3726 5.88972 10.4444 5.88272 10.5151H7.6162ZM2.4636 10.2999C2.4636 11.0104 3.03953 11.5864 3.75005 11.5864C4.46056 11.5864 5.0364 11.0104 5.0364 10.2999C5.0364 9.5895 4.46047 9.01357 3.75005 9.01357C3.03962 9.01357 2.4636 9.5895 2.4636 10.2999ZM8.46251 10.2999C8.46251 11.0103 9.03845 11.5864 9.74887 11.5864C10.4594 11.5864 11.0353 11.0103 11.0353 10.2999C11.0353 9.5895 10.4594 9.01357 9.74887 9.01357C9.03845 9.01357 8.46251 9.5895 8.46251 10.2999Z" fill="white"/>
</svg>
