<svg width="28" height="25" viewBox="0 0 28 25" fill="none" xmlns="http://www.w3.org/2000/svg">
<path fill-rule="evenodd" clip-rule="evenodd" d="M8 10H2C0.89551 10 0 9.10449 0 8V2C0 0.89551 0.89551 0 2 0H8C9.10449 0 10 0.89551 10 2V8C10 9.10449 9.10449 10 8 10ZM16 1.5C15.1716 1.5 14.5 2.17163 14.5 3C14.5 3.82837 15.1716 4.5 16 4.5H17.5V18.422C18.402 17.5396 19.6363 16.9957 20.9978 16.9957C23.7604 16.9957 26 19.2353 26 21.9978C26 22.112 25.9961 22.2253 25.9886 22.3373C27.2412 21.8982 28 20.6114 28 19C28 15.1465 24.839 11.7571 20.5 11.5139V9.59857C20.9412 9.85388 21.4537 10 22 10H24C24.5522 10 25 9.55225 25 9V5C25 4.44775 24.5522 4 24 4H22C21.4537 4 20.9412 4.14612 20.5 4.40143V3C20.5 2.17163 19.8284 1.5 19 1.5H16ZM16.0206 22.5C16.0041 22.3347 15.9957 22.1673 15.9957 21.9978C15.9957 21.088 16.2386 20.2349 16.6631 19.5H16.5C15.6716 19.5 15 18.8284 15 18V17C15 13.9624 12.5376 11.5 9.5 11.5H5.5C2.46245 11.5 0 13.9624 0 17V21C0 21.8284 0.671633 22.5 1.5 22.5H2.02061C2.00408 22.3349 1.99571 22.1673 1.99571 21.9978C1.99571 19.2353 4.23531 16.9957 6.99776 16.9957C9.76041 16.9957 12 19.2353 12 21.9978C12 22.1673 11.9914 22.3349 11.9751 22.5H16.0206ZM3.99571 21.9978C3.99571 23.6559 5.3398 25 6.99796 25C8.65612 25 10 23.6559 10 21.9978C10 20.3398 8.65592 18.9957 6.99796 18.9957C5.34 18.9957 3.99571 20.3398 3.99571 21.9978ZM17.9957 21.9978C17.9957 23.6557 19.3398 25 20.9978 25C22.6559 25 24 23.6557 24 21.9978C24 20.3398 22.6559 18.9957 20.9978 18.9957C19.3398 18.9957 17.9957 20.3398 17.9957 21.9978Z" fill="#3B72FF"/>
</svg>
