<svg width="59" height="50" viewBox="0 0 59 50" fill="none" xmlns="http://www.w3.org/2000/svg">
<path d="M45.8264 7.14453C42.4453 7.14453 39.704 9.88589 39.704 13.267C39.704 16.6481 42.4453 19.3894 45.8264 19.3894H49.9081C51.0351 19.3894 51.9489 18.4756 51.9489 17.3486V9.18535C51.9489 8.05832 51.0351 7.14453 49.9081 7.14453H45.8264Z" fill="#FF9F30"/>
<path fill-rule="evenodd" clip-rule="evenodd" d="M33.5816 2.03906C31.8911 2.03906 30.5204 3.40974 30.5204 5.10029C30.5204 6.79083 31.8911 8.16151 33.5816 8.16151H36.6429V38.7738H34.6021C32.9115 38.7738 31.5408 37.4031 31.5408 35.7125V31.6309C31.5408 25.4318 26.5154 20.4064 20.3163 20.4064H12.1531C5.954 20.4064 0.928589 25.4318 0.928589 31.6309V41.835C0.928589 43.5255 2.29927 44.8962 3.98981 44.8962H51.949C55.6862 44.8962 58.0714 41.835 58.0714 37.7533C58.0714 29.8891 51.6204 22.972 42.7653 22.4755V5.10029C42.7653 3.40974 41.3946 2.03906 39.7041 2.03906H33.5816Z" fill="white"/>
<path fill-rule="evenodd" clip-rule="evenodd" d="M9.08386 43.8684C9.08386 47.2528 11.8269 49.9954 15.2105 49.9954C18.5941 49.9954 21.3375 47.2528 21.3375 43.8684C21.3375 40.4848 18.5941 37.7422 15.2105 37.7422C11.8269 37.7422 9.08386 40.4848 9.08386 43.8684ZM37.6553 43.8684C37.6553 47.2524 40.3983 49.9954 43.7819 49.9954C47.1655 49.9954 49.9085 47.2524 49.9085 43.8684C49.9085 40.4848 47.1655 37.7422 43.7819 37.7422C40.3983 37.7422 37.6553 40.4848 37.6553 43.8684Z" fill="#FF9F30"/>
<path d="M5.01022 20.4082H17.2551C19.5092 20.4082 21.3368 18.5806 21.3368 16.3265V4.08163C21.3368 1.82716 19.5092 0 17.2551 0H5.01022C2.75616 0 0.928589 1.82716 0.928589 4.08163V16.3265C0.928589 18.5806 2.75616 20.4082 5.01022 20.4082Z" fill="#FF9F30"/>
<path fill-rule="evenodd" clip-rule="evenodd" d="M10.3929 6.27137C9.54516 5.79651 7.95945 5.21451 6.21087 5.00794C5.5063 4.9248 4.92859 5.50594 4.92859 6.21566V13.0728C4.92859 13.7834 5.50887 14.3491 6.20745 14.4759C7.78459 14.7622 9.09687 15.5182 9.9343 16.1165C10.0749 16.2168 10.23 16.2922 10.3929 16.3445V6.27137ZM11.4643 16.3445C11.6272 16.2931 11.7814 16.2168 11.922 16.1174C12.7594 15.5191 14.0717 14.7622 15.6497 14.4759C16.3483 14.3491 16.9286 13.7834 16.9286 13.0728V6.21566C16.9286 5.50594 16.3509 4.9248 15.6463 5.0088C13.8977 5.21623 12.312 5.79737 11.4643 6.27223V16.3454V16.3445Z" fill="white"/>
</svg>
