<svg width="11" height="11" viewBox="0 0 11 11" fill="none" xmlns="http://www.w3.org/2000/svg">
<path d="M8.15357 0.916016C8.01086 0.916016 7.86957 0.944532 7.738 0.99989C7.60728 1.0549 7.48877 1.13533 7.38937 1.23648L1.50523 7.09206C1.46154 7.13553 1.42985 7.18957 1.41324 7.24891L0.513236 10.4632C0.478446 10.5874 0.513378 10.7208 0.604613 10.8121C0.695849 10.9033 0.8292 10.9382 0.953448 10.9034L4.16774 10.0034C4.22708 9.98678 4.28111 9.95507 4.32459 9.91143L10.1801 4.02736L10.1811 4.02639C10.281 3.92698 10.3604 3.80883 10.4146 3.67868C10.469 3.54813 10.497 3.40808 10.497 3.26664C10.497 3.1252 10.469 2.98516 10.4146 2.85459C10.3604 2.72445 10.281 2.60628 10.1811 2.50688L10.1801 2.50593L8.9185 1.23723C8.819 1.13572 8.70021 1.05504 8.56914 0.99989C8.43757 0.944532 8.29629 0.916016 8.15357 0.916016Z" fill="#3B72FF"/>
</svg>
