<svg width="18" height="18" viewBox="0 0 18 18" fill="none" xmlns="http://www.w3.org/2000/svg">
<path d="M6.561 4.53802C6.40512 4.49489 6.24138 4.48835 6.08256 4.51892C5.92373 4.54949 5.77412 4.61634 5.64539 4.71424C5.51665 4.81215 5.41227 4.93848 5.34039 5.08336C5.26851 5.22825 5.23108 5.38778 5.231 5.54952V10.5622C5.21917 11.7966 5.67164 12.9904 6.4987 13.9068C7.63978 15.1547 9.06043 16.1142 10.6441 16.7068C10.8776 16.7924 11.1338 16.7924 11.3672 16.7068C12.9513 16.1147 14.3723 15.155 15.5133 13.9068C16.3404 12.9904 16.7928 11.7966 16.781 10.5622V5.54952C16.7811 5.38739 16.7436 5.22745 16.6715 5.08223C16.5994 4.93701 16.4947 4.81044 16.3656 4.71246C16.2364 4.61448 16.0863 4.54774 15.927 4.51748C15.7678 4.48721 15.6036 4.49425 15.4475 4.53802C12.5433 5.36679 9.46517 5.36679 6.561 4.53802Z" stroke="#7A7A7A" stroke-width="1.2" stroke-linecap="round" stroke-linejoin="round"/>
<path d="M12.5775 3.32638V2.07688C12.5774 1.91514 12.5399 1.75561 12.468 1.61071C12.3962 1.46583 12.2918 1.33951 12.1631 1.2416C12.0343 1.14369 11.8847 1.07684 11.7259 1.04628C11.5671 1.01571 11.4033 1.02225 11.2475 1.06538C8.34442 1.89419 5.26745 1.89419 2.36445 1.06538C2.20812 1.02095 2.04361 1.01343 1.88388 1.04339C1.72415 1.07335 1.57355 1.13998 1.44394 1.23803C1.31434 1.33608 1.20926 1.46288 1.13699 1.60845C1.06472 1.754 1.02722 1.91436 1.02745 2.07688V7.09028C1.01562 8.32469 1.46809 9.51847 2.29515 10.4348C2.41485 10.565 2.54225 10.6966 2.67595 10.8289" stroke="#7A7A7A" stroke-width="1.2" stroke-linecap="round" stroke-linejoin="round"/>
<path d="M13.1025 11.5254C13.1025 12.0823 12.8812 12.6165 12.4874 13.0103C12.0936 13.4041 11.5594 13.6254 11.0025 13.6254C10.4455 13.6254 9.91138 13.4041 9.51756 13.0103C9.12374 12.6165 8.90247 12.0823 8.90247 11.5254" stroke="#7A7A7A" stroke-width="1.2" stroke-linecap="round" stroke-linejoin="round"/>
<path d="M7.32745 8.37617C7.32745 8.09771 7.43808 7.83059 7.63496 7.63368C7.83187 7.4368 8.09899 7.32617 8.37745 7.32617C8.65591 7.32617 8.92303 7.4368 9.11994 7.63368C9.31685 7.83059 9.42745 8.09771 9.42745 8.37617" stroke="#7A7A7A" stroke-width="1.2" stroke-linecap="round" stroke-linejoin="round"/>
<path d="M12.5775 8.37617C12.5775 8.09771 12.6881 7.83059 12.885 7.63368C13.0819 7.4368 13.349 7.32617 13.6275 7.32617C13.9059 7.32617 14.173 7.4368 14.3699 7.63368C14.5669 7.83059 14.6775 8.09771 14.6775 8.37617" stroke="#7A7A7A" stroke-width="1.2" stroke-linecap="round" stroke-linejoin="round"/>
</svg>
