<svg width="16" height="15" viewBox="0 0 16 15" fill="none" xmlns="http://www.w3.org/2000/svg">
<g clip-path="url(#clip0_512_10816)">
<path d="M7.99999 14.3491C11.8157 14.3491 14.9089 11.2559 14.9089 7.44017C14.9089 3.62448 11.8157 0.53125 7.99999 0.53125C4.1843 0.53125 1.09106 3.62448 1.09106 7.44017C1.09106 11.2559 4.1843 14.3491 7.99999 14.3491Z" stroke="#747474" stroke-width="0.620032" stroke-linecap="round" stroke-linejoin="round"/>
<path d="M6.40552 10.6289H9.59425" stroke="#747474" stroke-width="0.620032" stroke-linecap="round" stroke-linejoin="round"/>
<path d="M7.99992 10.6294V6.90918H6.93701" stroke="#747474" stroke-width="0.620032" stroke-linecap="round" stroke-linejoin="round"/>
<path d="M7.99986 4.51681C7.8531 4.51681 7.73413 4.39784 7.73413 4.25108C7.73413 4.10432 7.8531 3.98535 7.99986 3.98535" stroke="#747474" stroke-width="0.620032" stroke-linecap="round" stroke-linejoin="round"/>
<path d="M8 4.51681C8.14676 4.51681 8.26573 4.39784 8.26573 4.25108C8.26573 4.10432 8.14676 3.98535 8 3.98535" stroke="#747474" stroke-width="0.620032" stroke-linecap="round" stroke-linejoin="round"/>
</g>
<defs>
<clipPath id="clip0_512_10816">
<rect width="14.8808" height="14.8808" fill="white" transform="translate(0.55957)"/>
</clipPath>
</defs>
</svg>
