<svg width="10" height="14" viewBox="0 0 10 14" fill="none" xmlns="http://www.w3.org/2000/svg">
<path fill-rule="evenodd" clip-rule="evenodd" d="M1.5 1.75C1.5 1.61193 1.61193 1.5 1.75 1.5H8.25C8.3881 1.5 8.5 1.61193 8.5 1.75V12.25C8.5 12.3881 8.3881 12.5 8.25 12.5H1.80187C1.79688 12.4979 1.79111 12.4954 1.78463 12.4924C1.73851 12.4707 1.67937 12.4343 1.62329 12.3864C1.56669 12.3382 1.52996 12.2927 1.51076 12.26C1.50486 12.2499 1.50165 12.2429 1.5 12.2388V1.75ZM1.75 0C0.7835 0 0 0.783502 0 1.75V12.25C0 12.8419 0.36126 13.2816 0.65 13.5278C0.80613 13.6609 0.97809 13.7709 1.14782 13.8505C1.30218 13.9229 1.51778 14 1.75 14H8.25C9.2165 14 10 13.2165 10 12.25V1.75C10 0.783502 9.2165 0 8.25 0H1.75ZM4.5 9.75C4.08579 9.75 3.75 10.0858 3.75 10.5C3.75 10.9142 4.08579 11.25 4.5 11.25H5.5C5.91421 11.25 6.25 10.9142 6.25 10.5C6.25 10.0858 5.91421 9.75 5.5 9.75H4.5Z" fill="#FF9F30"/>
</svg>
