<svg width="13" height="14" viewBox="0 0 13 14" fill="none" xmlns="http://www.w3.org/2000/svg">
<path fill-rule="evenodd" clip-rule="evenodd" d="M12.9631 9.69213C12.9631 12.6641 10.2701 14.0001 6.50011 14.0001C2.73011 14.0001 0.0371094 12.6641 0.0371094 9.71313C0.0371094 6.48213 1.65311 4.84513 4.88411 3.20813L3.74011 1.07713C3.67185 0.97039 3.63384 0.84713 3.63013 0.72049C3.62643 0.593849 3.65716 0.468577 3.71905 0.358029C3.78095 0.247482 3.87168 0.155806 3.98159 0.0927751C4.09149 0.0297445 4.21644 -0.00227669 4.34311 0.000125912H8.91011C9.02884 0.0031639 9.14485 0.0363627 9.24721 0.0965977C9.34958 0.156833 9.43493 0.242123 9.49524 0.344442C9.55555 0.446761 9.58884 0.562743 9.59196 0.681472C9.59509 0.800202 9.56795 0.917775 9.51311 1.02313L8.11611 3.20813C11.3461 4.82313 12.9631 6.46013 12.9631 9.69213ZM4.45711 6.50013H6.14011C6.28011 6.54213 6.45611 6.62013 6.59711 6.75013C6.70226 6.8462 6.78021 6.96831 6.82311 7.10413H4.45811C4.39245 7.10413 4.32743 7.11706 4.26677 7.14219C4.2061 7.16731 4.15098 7.20414 4.10456 7.25057C4.05813 7.297 4.0213 7.35212 3.99617 7.41278C3.97104 7.47345 3.95811 7.53847 3.95811 7.60413C3.95811 7.66979 3.97104 7.7348 3.99617 7.79547C4.0213 7.85613 4.05813 7.91125 4.10456 7.95768C4.15098 8.00411 4.2061 8.04094 4.26677 8.06607C4.32743 8.09119 4.39245 8.10413 4.45811 8.10413H6.66511C6.49308 8.29479 6.27519 8.43833 6.03211 8.52113C5.71865 8.63571 5.38873 8.69886 5.05511 8.70813H5.04211H5.04011C4.93833 8.70821 4.839 8.73936 4.75539 8.79741C4.67178 8.85546 4.60788 8.93764 4.57223 9.03297C4.53657 9.12831 4.53086 9.23225 4.55586 9.33092C4.58085 9.42958 4.63537 9.51827 4.71211 9.58513L4.71411 9.58713L4.71911 9.59013L4.73211 9.60213C4.80274 9.66273 4.8758 9.72044 4.95111 9.77513C5.814 10.4181 6.79445 10.8859 7.83711 11.1521C7.90137 11.1697 7.96851 11.1743 8.03457 11.1657C8.10064 11.157 8.1643 11.1351 8.22182 11.1015C8.27933 11.0679 8.32954 11.023 8.3695 10.9697C8.40945 10.9164 8.43834 10.8556 8.45447 10.791C8.4706 10.7263 8.47365 10.6591 8.46342 10.5932C8.4532 10.5274 8.42992 10.4642 8.39495 10.4075C8.35998 10.3508 8.31403 10.3016 8.25979 10.2629C8.20555 10.2242 8.14412 10.1968 8.07911 10.1821C7.4673 10.0256 6.87887 9.78888 6.32911 9.47813L6.38311 9.45813C6.72111 9.33113 7.09311 9.12913 7.38311 8.80213C7.55811 8.60713 7.69511 8.37413 7.78011 8.10413H8.54211C8.67472 8.10413 8.8019 8.05145 8.89566 7.95768C8.98943 7.86391 9.04211 7.73673 9.04211 7.60413C9.04211 7.47152 8.98943 7.34434 8.89566 7.25057C8.8019 7.1568 8.67472 7.10413 8.54211 7.10413H7.84811C7.81629 6.89315 7.74936 6.68899 7.65011 6.50013H8.54211C8.67472 6.50013 8.8019 6.44745 8.89566 6.35368C8.98943 6.25991 9.04211 6.13273 9.04211 6.00013C9.04211 5.86752 8.98943 5.74034 8.89566 5.64657C8.8019 5.5528 8.67472 5.50013 8.54211 5.50013H6.21911H6.19711H4.45811C4.3255 5.50013 4.19832 5.5528 4.10456 5.64657C4.01079 5.74034 3.95811 5.86752 3.95811 6.00013C3.95811 6.13273 4.01079 6.25991 4.10456 6.35368C4.19832 6.44745 4.3255 6.50013 4.45811 6.50013H4.45711Z" fill="black" fill-opacity="0.5"/>
</svg>
