<svg width="15" height="12" viewBox="0 0 15 12" fill="none" xmlns="http://www.w3.org/2000/svg">
<path fill-rule="evenodd" clip-rule="evenodd" d="M1.60714 0.642578C0.719543 0.642578 0 1.36212 0 2.24972V9.74972C0 10.6373 0.719543 11.3569 1.60714 11.3569H13.3929C14.2804 11.3569 15 10.6373 15 9.74972V2.24972C15 1.36212 14.2804 0.642578 13.3929 0.642578H1.60714ZM4.57963 3.72293C3.3222 3.72293 2.30284 4.74228 2.30284 5.99972C2.30284 7.25715 3.3222 8.27651 4.57963 8.27651C5.83707 8.27651 6.85641 7.25715 6.85641 5.99972C6.85641 4.74228 5.83707 3.72293 4.57963 3.72293ZM8.6793 4.39258C8.6793 4.02274 8.97911 3.72293 9.34894 3.72293H12.0275C12.3974 3.72293 12.6972 4.02274 12.6972 4.39258C12.6972 4.76241 12.3974 5.06222 12.0275 5.06222H9.34894C8.97911 5.06222 8.6793 4.76241 8.6793 4.39258ZM9.34894 6.93722C8.97911 6.93722 8.6793 7.23703 8.6793 7.60686C8.6793 7.9767 8.97911 8.27651 9.34894 8.27651H12.0275C12.3974 8.27651 12.6972 7.9767 12.6972 7.60686C12.6972 7.23703 12.3974 6.93722 12.0275 6.93722H9.34894Z" fill="#3B72FF"/>
</svg>
