<svg width="149" height="148" viewBox="0 0 149 148" fill="none" xmlns="http://www.w3.org/2000/svg">
<g clip-path="url(#clip0_694_14544)">
<path d="M131.82 91.4898H131.217C126.622 104.096 116.852 114.136 104.376 119.07V91.4898L119.412 78.0659L104.376 64.642V45.8535C117.529 45.8904 128.277 35.3764 128.535 22.2294C128.535 6.05547 113.1 0.352467 104.376 0.352467C102.118 0.309402 99.8602 0.555486 97.6639 1.09072V1.89665H101.084C106.012 1.0292 110.712 4.32058 111.58 9.24842C111.629 9.51911 111.666 9.80211 111.691 10.0851C111.488 14.9391 107.384 18.7042 102.536 18.495C102.413 18.4889 102.284 18.4827 102.161 18.4704C87.1253 18.4704 69.4134 6.25849 50.1511 6.25849C35.0784 5.45257 22.1652 16.9078 21.1562 31.962C20.6887 41.3871 27.1484 49.7539 36.3888 51.6918V50.9536C33.565 49.1387 31.9655 45.915 32.23 42.5621C32.6853 36.3177 38.1176 31.6175 44.3681 32.0728C44.4358 32.0851 44.5096 32.0912 44.5773 32.0974C60.7512 32.0974 86.8546 45.5213 103.029 45.5213H103.631V64.8512L88.5957 78.2751L103.631 91.699V119.685C97.6147 121.666 91.3087 122.644 84.9721 122.57C74.6796 123.087 64.5594 119.765 56.5862 113.244L83.8339 101.032V46.1857L45.7154 62.9625C49.3575 52.1963 57.3737 43.4726 67.7954 38.9385V38.3356C40.0124 44.5123 17.7295 64.439 17.7295 91.8897C17.7295 123.838 42.4917 147.997 78.1309 147.997C115.111 147.997 131.82 121.155 131.82 93.7723V91.4898ZM55.4481 112.229C47.0628 103.849 42.584 92.3265 43.1008 80.4837C43.0024 75.0699 43.7714 69.6806 45.3832 64.5128L58.0012 58.7422V110.887L55.4481 112.229Z" fill="black"/>
</g>
<defs>
<clipPath id="clip0_694_14544">
<rect width="147.651" height="147.651" fill="white" transform="translate(0.952637 0.347656)"/>
</clipPath>
</defs>
</svg>
