<svg width="9" height="11" viewBox="0 0 9 11" fill="none" xmlns="http://www.w3.org/2000/svg">
<path d="M8.13536 6.46976H8.09452C7.78327 7.32351 7.1216 8.00352 6.27659 8.33769V6.46976L7.29493 5.56058L6.27659 4.65141V3.3789C7.16743 3.3814 7.89535 2.66931 7.91286 1.77888C7.91286 0.683454 6.86743 0.297201 6.27659 0.297201C6.12367 0.294284 5.97075 0.310951 5.822 0.347201V0.401785H6.05367C6.38742 0.343035 6.70576 0.565953 6.76451 0.899706C6.76784 0.91804 6.77034 0.937207 6.77201 0.956373C6.75826 1.28513 6.48034 1.54013 6.152 1.52596C6.14367 1.52555 6.13492 1.52513 6.12659 1.5243C5.10825 1.5243 3.90865 0.697204 2.60406 0.697204C1.58321 0.642621 0.708622 1.41846 0.640289 2.43805C0.608622 3.07639 1.04613 3.64306 1.67196 3.77432V3.72431C1.48071 3.6014 1.37238 3.38306 1.3903 3.15598C1.42113 2.73306 1.78905 2.41472 2.21239 2.44555C2.21697 2.44639 2.22197 2.4468 2.22655 2.44722C3.32198 2.44722 5.08991 3.3564 6.18534 3.3564H6.22617V4.66557L5.20783 5.57475L6.22617 6.48392V8.37936C5.81867 8.51353 5.39158 8.57978 4.96241 8.57478C4.26532 8.60978 3.5799 8.38477 3.03989 7.9431L4.88533 7.11601V3.4014L2.30364 4.53766C2.55031 3.80848 3.09323 3.21764 3.79907 2.91056V2.86972C1.91738 3.28806 0.408203 4.63766 0.408203 6.49684C0.408203 8.66061 2.0853 10.2969 4.49907 10.2969C7.00368 10.2969 8.13536 8.47894 8.13536 6.62434V6.46976ZM2.96281 7.87435C2.39489 7.30685 2.09155 6.52642 2.12655 5.72433C2.11989 5.35766 2.17197 4.99266 2.28114 4.64266L3.13573 4.25182V7.78352L2.96281 7.87435Z" fill="black"/>
</svg>
