<svg width="15" height="16" viewBox="0 0 15 16" fill="none" xmlns="http://www.w3.org/2000/svg">
<path fill-rule="evenodd" clip-rule="evenodd" d="M7.49994 0.499023C10.3087 0.499023 12.6493 2.83963 12.6493 5.64842C12.6493 6.56512 12.3342 7.46918 11.8938 8.28829C11.4518 9.11059 10.8666 9.87836 10.2852 10.532C9.70265 11.1869 9.11407 11.7383 8.6555 12.1279C8.42645 12.3225 8.22597 12.48 8.07139 12.5915C7.99506 12.6466 7.92355 12.695 7.86181 12.7321C7.83177 12.7501 7.79516 12.7709 7.75622 12.7889C7.73684 12.7978 7.70896 12.8098 7.67569 12.8204C7.64953 12.8287 7.58413 12.8483 7.49994 12.8483C7.41499 12.8483 7.34908 12.8284 7.32283 12.82C7.28939 12.8091 7.2614 12.797 7.24199 12.788C7.20298 12.7698 7.16634 12.7489 7.1363 12.7307C7.07459 12.6933 7.0031 12.6445 6.92682 12.589C6.77235 12.4767 6.57195 12.3181 6.34302 12.1222C5.88467 11.7303 5.29637 11.1761 4.71415 10.5194C4.13308 9.864 3.54816 9.09553 3.10622 8.27515C2.66617 7.4583 2.35054 6.55793 2.35054 5.64842C2.35054 2.83963 4.69114 0.499023 7.49994 0.499023ZM7.49994 7.1863C6.65057 7.1863 5.96204 6.49777 5.96204 5.64842C5.96204 4.79907 6.65057 4.11052 7.49994 4.11052C8.34929 4.11052 9.03782 4.79907 9.03782 5.64842C9.03782 6.49777 8.34929 7.1863 7.49994 7.1863ZM10.8205 11.3817C11.0182 11.1594 11.216 10.9266 11.4101 10.6847H12.8491C13.0634 10.6847 13.2571 10.8125 13.3416 11.0094L14.9462 14.7539C15.0172 14.9194 15.0002 15.1095 14.9011 15.2598C14.802 15.4101 14.6339 15.5006 14.4539 15.5006H0.545969C0.365893 15.5006 0.197863 15.4101 0.0987335 15.2598C-0.000396875 15.1095 -0.0173647 14.9194 0.0535712 14.7539L1.65832 11.0094C1.74274 10.8125 1.93642 10.6847 2.15073 10.6847H3.60287C3.79259 10.921 3.98571 11.1487 4.17867 11.3662C4.88745 12.1657 5.60375 12.8406 6.1614 13.3174C6.43998 13.5557 6.68284 13.7478 6.86883 13.883C6.96087 13.95 7.04538 14.0076 7.11691 14.0509C7.15185 14.0721 7.1926 14.0953 7.23484 14.115C7.25589 14.1248 7.28528 14.1375 7.31989 14.1486C7.34733 14.1575 7.41421 14.1777 7.49987 14.1777C7.5848 14.1777 7.65117 14.1578 7.67851 14.1492C7.71297 14.1381 7.74225 14.1256 7.76325 14.1158C7.80543 14.0963 7.84614 14.0734 7.88109 14.0524C7.95264 14.0095 8.03717 13.9522 8.12926 13.8858C8.31536 13.7516 8.55831 13.5608 8.83701 13.3241C9.39487 12.8502 10.1115 12.1788 10.8205 11.3817Z" fill="#FF9F30"/>
</svg>
