<svg width="15" height="16" viewBox="0 0 15 16" fill="none" xmlns="http://www.w3.org/2000/svg">
<path d="M5.62158 6.92383H10.019" stroke="white" stroke-width="0.5" stroke-linecap="round" stroke-linejoin="round"/>
<path d="M5.62158 8.65137H10.019" stroke="white" stroke-width="0.5" stroke-linecap="round" stroke-linejoin="round"/>
<path d="M7.50593 6.92383C7.92473 7.02853 8.76233 7.39498 8.76233 8.49434C8.76233 10.379 6.24951 10.379 6.24951 10.379C6.24951 10.379 7.50593 11.4784 9.39054 11.9495" stroke="white" stroke-width="0.5" stroke-linecap="round" stroke-linejoin="round"/>
<path d="M7.82043 15C11.5897 15 14.282 13.6667 14.282 10.6989C14.282 7.47312 12.6666 5.32258 9.43581 3.70968L10.7066 2.07526C10.7711 1.96804 10.8062 1.84566 10.8081 1.72056C10.81 1.59545 10.7788 1.47207 10.7175 1.3629C10.6563 1.25373 10.5673 1.16267 10.4594 1.09894C10.3516 1.03521 10.2288 1.00107 10.1035 1H5.53735C5.41204 1.00107 5.28925 1.03521 5.18141 1.09894C5.07357 1.16267 4.98453 1.25373 4.92331 1.3629C4.86207 1.47207 4.83084 1.59545 4.83277 1.72056C4.8347 1.84566 4.86971 1.96804 4.93427 2.07526L6.20504 3.72043C2.97427 5.34408 1.35889 7.49462 1.35889 10.7204C1.35889 13.6667 4.05119 15 7.82043 15Z" stroke="white" stroke-linecap="round" stroke-linejoin="round"/>
</svg>
