<svg width="19" height="19" viewBox="0 0 19 19" fill="none" xmlns="http://www.w3.org/2000/svg">
<g clip-path="url(#clip0_813_14242)">
<path d="M14.3686 7.60938H4.28236C3.94798 7.60938 3.6273 7.74221 3.39085 7.97865C3.15441 8.21509 3.02158 8.53578 3.02158 8.87016V16.4348C3.02158 16.7692 3.15441 17.0899 3.39085 17.3264C3.6273 17.5628 3.94798 17.6956 4.28236 17.6956H14.3686C14.703 17.6956 15.0237 17.5628 15.2601 17.3264C15.4966 17.0899 15.6294 16.7692 15.6294 16.4348V8.87016C15.6294 8.53578 15.4966 8.21509 15.2601 7.97865C15.0237 7.74221 14.703 7.60938 14.3686 7.60938Z" fill="white"/>
<path d="M14.3686 7.60938H4.28236C3.94798 7.60938 3.6273 7.74221 3.39085 7.97865C3.15441 8.21509 3.02158 8.53578 3.02158 8.87016V16.4348C3.02158 16.7692 3.15441 17.0899 3.39085 17.3264C3.6273 17.5628 3.94798 17.6956 4.28236 17.6956H14.3686C14.703 17.6956 15.0237 17.5628 15.2601 17.3264C15.4966 17.0899 15.6294 16.7692 15.6294 16.4348V8.87016C15.6294 8.53578 15.4966 8.21509 15.2601 7.97865C15.0237 7.74221 14.703 7.60938 14.3686 7.60938Z" stroke="#FF9F30" stroke-width="1.26078" stroke-linecap="round" stroke-linejoin="round"/>
<path d="M13.7382 7.60859V5.71742C13.7382 4.54709 13.2733 3.4247 12.4458 2.59715C11.6182 1.7696 10.4958 1.30469 9.32549 1.30469C8.15516 1.30469 7.03276 1.7696 6.20521 2.59715C5.37766 3.4247 4.91275 4.54709 4.91275 5.71742V7.60859" stroke="#FF9F30" stroke-width="1.26078" stroke-linecap="round" stroke-linejoin="round"/>
<path d="M9.32549 13.2842C9.49268 13.2842 9.65302 13.2178 9.77124 13.0996C9.88946 12.9814 9.95588 12.821 9.95588 12.6538C9.95588 12.4866 9.88946 12.3263 9.77124 12.2081C9.65302 12.0899 9.49268 12.0234 9.32549 12.0234C9.1583 12.0234 8.99796 12.0899 8.87973 12.2081C8.76151 12.3263 8.6951 12.4866 8.6951 12.6538C8.6951 12.821 8.76151 12.9814 8.87973 13.0996C8.99796 13.2178 9.1583 13.2842 9.32549 13.2842Z" stroke="#FF9F30" stroke-width="1.26078" stroke-linecap="round" stroke-linejoin="round"/>
</g>
<defs>
<clipPath id="clip0_813_14242">
<rect width="17.6509" height="17.6509" fill="white" transform="translate(0.5 0.675781)"/>
</clipPath>
</defs>
</svg>
