<svg width="10" height="14" viewBox="0 0 10 14" fill="none" xmlns="http://www.w3.org/2000/svg">
<path fill-rule="evenodd" clip-rule="evenodd" d="M5 2.4549C4.51779 2.4549 4.05533 2.64646 3.71435 2.98743C3.37338 3.32841 3.18182 3.79087 3.18182 4.27308V5.18217H6.81818V4.27308C6.81818 4.03432 6.77115 3.79789 6.67978 3.57729C6.58841 3.3567 6.45448 3.15627 6.28565 2.98743C6.11681 2.8186 5.91638 2.68467 5.69579 2.5933C5.4752 2.50193 5.23877 2.4549 5 2.4549ZM1.36364 4.27308V5.18217C1.00198 5.18217 0.655131 5.32584 0.3994 5.58157C0.143668 5.8373 0 6.18415 0 6.54581V12.0004C0 12.1794 0.0352715 12.3568 0.103801 12.5222C0.17233 12.6876 0.272775 12.838 0.3994 12.9646C0.526025 13.0912 0.676351 13.1917 0.841795 13.2602C1.00724 13.3287 1.18456 13.364 1.36364 13.364H8.63636C8.99802 13.364 9.34487 13.2203 9.6006 12.9646C9.85633 12.7089 10 12.362 10 12.0004V6.54581C10 6.18415 9.85633 5.8373 9.6006 5.58157C9.34487 5.32584 8.99802 5.18217 8.63636 5.18217V4.27308C8.63636 3.30866 8.25325 2.38374 7.5713 1.70178C6.88935 1.01983 5.96442 0.636719 5 0.636719C4.03558 0.636719 3.11065 1.01983 2.4287 1.70178C1.74675 2.38374 1.36364 3.30866 1.36364 4.27308ZM5 10.4094C5.30138 10.4094 5.59042 10.2897 5.80353 10.0766C6.01664 9.8635 6.13636 9.57446 6.13636 9.27308C6.13636 8.9717 6.01664 8.68266 5.80353 8.46955C5.59042 8.25644 5.30138 8.13672 5 8.13672C4.69862 8.13672 4.40958 8.25644 4.19647 8.46955C3.98336 8.68266 3.86364 8.9717 3.86364 9.27308C3.86364 9.57446 3.98336 9.8635 4.19647 10.0766C4.40958 10.2897 4.69862 10.4094 5 10.4094Z" fill="#FF9F30"/>
</svg>
