<svg width="47" height="56" viewBox="0 0 47 56" fill="none" xmlns="http://www.w3.org/2000/svg">
<path d="M0.301697 8.76923C0.301697 7.23913 0.851385 5.77171 1.82984 4.68977C2.80829 3.60783 4.13535 3 5.51909 3H35.0843C36.468 3 37.7951 3.60783 38.7736 4.68977C39.752 5.77171 40.3017 7.23913 40.3017 8.76923V47.2308C40.3017 47.9884 40.1667 48.7386 39.9045 49.4386C39.6423 50.1385 39.258 50.7745 38.7736 51.3102C38.2891 51.846 37.7139 52.2709 37.0809 52.5608C36.4479 52.8508 35.7695 53 35.0843 53H5.51909C4.13535 53 2.80829 52.3922 1.82984 51.3102C0.851385 50.2283 0.301697 48.7609 0.301697 47.2308V8.76923Z" fill="white"/>
<path d="M11.3017 3.57143C11.3017 2.62423 11.678 1.71582 12.3477 1.04605C13.0175 0.376274 13.9259 0 14.8731 0L25.5874 0C26.5346 0 27.443 0.376274 28.1128 1.04605C28.7826 1.71582 29.1588 2.62423 29.1588 3.57143V5.35714C29.1588 6.30434 28.7826 7.21275 28.1128 7.88252C27.443 8.5523 26.5346 8.92857 25.5874 8.92857H14.8731C14.4041 8.92857 13.9397 8.83619 13.5064 8.65671C13.0731 8.47723 12.6794 8.21416 12.3477 7.88252C12.0161 7.55089 11.753 7.15717 11.5736 6.72387C11.3941 6.29056 11.3017 5.82615 11.3017 5.35714V3.57143Z" fill="#FF9F30"/>
<path fill-rule="evenodd" clip-rule="evenodd" d="M10.016 21.4286C10.2411 21.4286 10.464 21.3842 10.672 21.2981C10.88 21.2119 11.069 21.0857 11.2282 20.9265C11.3874 20.7673 11.5136 20.5783 11.5998 20.3703C11.6859 20.1623 11.7303 19.9394 11.7303 19.7143C11.7303 19.4892 11.6859 19.2662 11.5998 19.0583C11.5136 18.8503 11.3874 18.6613 11.2282 18.5021C11.069 18.3429 10.88 18.2166 10.672 18.1305C10.464 18.0443 10.2411 18 10.016 18C9.56133 18 9.12529 18.1806 8.8038 18.5021C8.48231 18.8236 8.3017 19.2596 8.3017 19.7143C8.3017 20.1689 8.48231 20.605 8.8038 20.9265C9.12529 21.248 9.56133 21.4286 10.016 21.4286ZM11.7303 27.4286C11.7303 27.8832 11.5497 28.3193 11.2282 28.6408C10.9067 28.9622 10.4706 29.1429 10.016 29.1429C9.56133 29.1429 9.12529 28.9622 8.8038 28.6408C8.48231 28.3193 8.3017 27.8832 8.3017 27.4286C8.3017 26.9739 8.48231 26.5379 8.8038 26.2164C9.12529 25.8949 9.56133 25.7143 10.016 25.7143C10.4706 25.7143 10.9067 25.8949 11.2282 26.2164C11.5497 26.5379 11.7303 26.9739 11.7303 27.4286ZM11.7303 35.1429C11.7303 35.5975 11.5497 36.0335 11.2282 36.355C10.9067 36.6765 10.4706 36.8571 10.016 36.8571C9.56133 36.8571 9.12529 36.6765 8.8038 36.355C8.48231 36.0335 8.3017 35.5975 8.3017 35.1429C8.3017 34.6882 8.48231 34.2522 8.8038 33.9307C9.12529 33.6092 9.56133 33.4286 10.016 33.4286C10.4706 33.4286 10.9067 33.6092 11.2282 33.9307C11.5497 34.2522 11.7303 34.6882 11.7303 35.1429Z" fill="#FF9F30"/>
<path fill-rule="evenodd" clip-rule="evenodd" d="M15.1588 19.7154C15.1588 19.3744 15.2943 19.0474 15.5354 18.8063C15.7765 18.5651 16.1035 18.4297 16.4445 18.4297H31.016C31.3569 18.4297 31.684 18.5651 31.9251 18.8063C32.1662 19.0474 32.3017 19.3744 32.3017 19.7154C32.3017 20.0564 32.1662 20.3834 31.9251 20.6245C31.684 20.8657 31.3569 21.0011 31.016 21.0011H16.4445C16.2757 21.0011 16.1085 20.9679 15.9525 20.9032C15.7965 20.8386 15.6548 20.7439 15.5354 20.6245C15.416 20.5051 15.3213 20.3634 15.2567 20.2074C15.1921 20.0514 15.1588 19.8842 15.1588 19.7154ZM15.1588 27.4297C15.1588 27.0887 15.2943 26.7617 15.5354 26.5205C15.7765 26.2794 16.1035 26.144 16.4445 26.144H31.016C31.3569 26.144 31.684 26.2794 31.9251 26.5205C32.1662 26.7617 32.3017 27.0887 32.3017 27.4297C32.3017 27.7707 32.1662 28.0977 31.9251 28.3388C31.684 28.5799 31.3569 28.7154 31.016 28.7154H16.4445C16.2757 28.7154 16.1085 28.6821 15.9525 28.6175C15.7965 28.5529 15.6548 28.4582 15.5354 28.3388C15.416 28.2194 15.3213 28.0777 15.2567 27.9217C15.1921 27.7657 15.1588 27.5985 15.1588 27.4297ZM16.4445 33.8583C16.1035 33.8583 15.7765 33.9937 15.5354 34.2348C15.2943 34.476 15.1588 34.803 15.1588 35.144C15.1588 35.485 15.2943 35.812 15.5354 36.0531C15.7765 36.2942 16.1035 36.4297 16.4445 36.4297H31.016C31.3569 36.4297 31.684 36.2942 31.9251 36.0531C32.1662 35.812 32.3017 35.485 32.3017 35.144C32.3017 34.803 32.1662 34.476 31.9251 34.2348C31.684 33.9937 31.3569 33.8583 31.016 33.8583H16.4445Z" fill="#FF9F30"/>
<path d="M38.0054 55.5179L30.6229 48.8308C26.6106 44.8186 32.5086 37.115 38.0054 43.3474C43.5022 37.115 49.3736 44.8453 45.388 48.8308L38.0054 55.5179Z" fill="#FF9F30"/>
</svg>
