<svg width="19" height="19" viewBox="0 0 19 19" fill="none" xmlns="http://www.w3.org/2000/svg">
<g clip-path="url(#clip0_844_13118)">
<path d="M2.87827 10.094H4.75327C4.80453 10.0921 4.85563 10.101 4.90319 10.1202C4.95075 10.1395 4.99367 10.1686 5.02912 10.2057C5.06458 10.2427 5.09175 10.2869 5.10884 10.3353C5.12593 10.3837 5.13256 10.4351 5.12827 10.4863V17.543C5.13256 17.5942 5.12593 17.6456 5.10884 17.694C5.09175 17.7424 5.06458 17.7865 5.02912 17.8236C4.99367 17.8607 4.95075 17.8898 4.90319 17.9091C4.85563 17.9283 4.80453 17.9372 4.75327 17.9353H2.87827" stroke="#FF9F30" stroke-width="1.5" stroke-linecap="round" stroke-linejoin="round"/>
<path d="M8.2415 8.4375L6.80002 10.2323C6.70534 10.3502 6.5863 10.4464 6.45103 10.514C6.31575 10.5818 6.16745 10.6194 6.01627 10.6245H5.12827" stroke="#FF9F30" stroke-width="1.5" stroke-linecap="round" stroke-linejoin="round"/>
<path d="M5.12827 15.8967C6.73627 17.1154 8.20325 17.9336 9.1505 17.9336H13.8553C14.4253 17.9336 14.7838 17.8931 15.0313 17.1498C15.4092 15.2526 15.6712 13.3341 15.8158 11.4048C15.8158 11.0133 15.4235 10.6211 14.6398 10.6211H10.1908" stroke="#FF9F30" stroke-width="1.5" stroke-linecap="round" stroke-linejoin="round"/>
<path d="M8.41542 9.65375L7.25446 1.52975C7.24619 1.47171 7.25048 1.41258 7.26704 1.35634C7.28359 1.30011 7.31203 1.24808 7.35042 1.20379C7.38882 1.15949 7.43628 1.12395 7.48959 1.09958C7.54291 1.0752 7.60083 1.06256 7.65946 1.0625H13.3249" stroke="#FF9F30" stroke-width="1.5" stroke-linecap="round" stroke-linejoin="round"/>
<path d="M10.8793 10.6239L10.1923 3.75462C10.1866 3.70214 10.1922 3.64907 10.2085 3.59888C10.2248 3.54869 10.2516 3.50252 10.287 3.46337C10.3224 3.42422 10.3657 3.39298 10.414 3.3717C10.4623 3.35042 10.5145 3.33957 10.5673 3.33987H15.7423C15.7968 3.33922 15.8507 3.35046 15.9004 3.3728C15.9502 3.39515 15.9944 3.42807 16.0301 3.46926C16.0658 3.51046 16.0921 3.55894 16.1071 3.61133C16.1222 3.66372 16.1257 3.71876 16.1173 3.77262L15.0823 10.6726" stroke="#FF9F30" stroke-width="1.5" stroke-linecap="round" stroke-linejoin="round"/>
<path d="M13.022 7.52734C12.8667 7.52734 12.7408 7.40143 12.7408 7.24609C12.7408 7.09076 12.8667 6.96484 13.022 6.96484" stroke="#FF9F30" stroke-width="1.5"/>
<path d="M13.022 7.52734C13.1774 7.52734 13.3033 7.40143 13.3033 7.24609C13.3033 7.09076 13.1774 6.96484 13.022 6.96484" stroke="#FF9F30" stroke-width="1.5"/>
</g>
<defs>
<clipPath id="clip0_844_13118">
<rect width="18" height="18" fill="white" transform="translate(0.5 0.5)"/>
</clipPath>
</defs>
</svg>
