<svg width="12" height="11" viewBox="0 0 12 11" fill="none" xmlns="http://www.w3.org/2000/svg">
<path fill-rule="evenodd" clip-rule="evenodd" d="M5.98227 0.235229C5.83384 0.235295 5.68848 0.277528 5.56312 0.35701C5.43776 0.436492 5.33757 0.549951 5.2742 0.684176L4.07801 3.09839C4.07485 3.10409 4.07183 3.10986 4.06897 3.11572C4.06317 3.11658 4.0574 3.11759 4.05165 3.11873L1.41748 3.50892C1.26809 3.52342 1.12601 3.58054 1.00814 3.67346C0.890279 3.76639 0.80159 3.89122 0.75263 4.03311C0.703669 4.17499 0.696498 4.32795 0.731969 4.47379C0.76744 4.61963 0.84406 4.75221 0.952713 4.85576L2.88107 6.71557L2.88559 6.71934C2.88832 6.7219 2.89036 6.7251 2.89155 6.72865C2.89273 6.7322 2.89301 6.73599 2.89237 6.73968V6.74269L2.43288 9.43034V9.43109C2.40766 9.57681 2.4238 9.72668 2.47946 9.86369C2.53513 10.0007 2.62809 10.1194 2.74779 10.2062C2.8675 10.293 3.00915 10.3446 3.15667 10.355C3.30419 10.3653 3.45167 10.3342 3.58236 10.265L5.95515 9.01077C5.9637 9.00704 5.97293 9.00511 5.98227 9.00511C5.9916 9.00511 6.00083 9.00704 6.00938 9.01077L8.38217 10.2642C8.51279 10.3339 8.66036 10.3654 8.80805 10.3553C8.95574 10.3452 9.09762 10.2938 9.21752 10.2069C9.33741 10.1201 9.4305 10.0013 9.48617 9.86415C9.54185 9.72698 9.55787 9.57693 9.53241 9.43109L9.07291 6.74194V6.73968C9.07141 6.73666 9.07216 6.73214 9.07291 6.72913C9.07405 6.7254 9.07612 6.72203 9.07894 6.71934L9.08346 6.71557L11.0111 4.85501C11.1195 4.75142 11.1959 4.6189 11.2312 4.47317C11.2666 4.32745 11.2593 4.17464 11.2104 4.03291C11.1615 3.89117 11.0729 3.76646 10.9551 3.67358C10.8374 3.58069 10.6955 3.52355 10.5463 3.50892L7.91289 3.11873C7.90714 3.11759 7.90136 3.11658 7.89556 3.11572C7.8927 3.10986 7.88968 3.10409 7.88652 3.09839L6.69034 0.684176C6.62697 0.549951 6.52677 0.436492 6.40141 0.35701C6.27606 0.277528 6.1307 0.235295 5.98227 0.235229Z" fill="#F2994A"/>
</svg>
