<svg width="22" height="23" viewBox="0 0 22 23" fill="none" xmlns="http://www.w3.org/2000/svg">
<path d="M21.5067 2.62694C21.2854 1.59448 20.843 1.2995 20.4005 1.22575C19.4418 1.07826 18.3356 2.2582 17.8193 2.99567C16.6394 1.66823 14.3532 0.488281 12.7308 0.488281C11.9196 0.488281 11.7721 0.488281 11.4034 0.709521C11.3296 0.709521 11.2559 0.783268 11.1821 0.783268V3.06942C13.6895 1.59448 16.4919 3.65939 17.7456 4.98683C17.8931 5.13433 17.8931 5.35557 17.7456 5.50306C17.5981 5.65055 17.5243 5.65055 17.4506 5.65055C17.3769 5.65055 17.2294 5.57681 17.1556 5.50306C17.0081 5.35557 13.837 1.88947 11.1821 3.95438V4.69185C13.837 3.73314 15.8282 6.09303 15.9019 6.16678C15.9757 6.31427 15.9757 6.53551 15.8282 6.68301C15.7544 6.75675 15.6807 6.75675 15.6069 6.75675C15.5332 6.75675 15.3857 6.68301 15.3119 6.60926C15.2382 6.53551 13.4683 4.47061 11.1821 5.50306V8.30544C11.1084 8.52668 10.9609 8.60042 10.8134 8.60042H10.7396C10.5922 8.52668 10.4447 8.37918 10.4447 8.23169V5.57681C8.15851 4.47061 6.38859 6.53551 6.31484 6.60926C6.2411 6.68301 6.0936 6.75675 6.01986 6.75675C5.94611 6.75675 5.87236 6.75675 5.79862 6.68301C5.57738 6.53551 5.57738 6.31427 5.72487 6.16678C5.72487 6.16678 7.78978 3.73314 10.4447 4.76559V4.02812C7.71603 1.88947 4.54492 5.42931 4.47118 5.57681C4.32368 5.57681 4.24993 5.65055 4.17619 5.65055C4.10244 5.65055 3.95495 5.65055 3.8812 5.57681C3.73371 5.42931 3.73371 5.20807 3.8812 5.06058C5.1349 3.65939 7.93727 1.66823 10.4447 3.14316V0.857015C10.3709 0.783268 10.2972 0.783268 10.2234 0.783268C9.85469 0.488281 9.70719 0.488281 8.89598 0.488281C7.1998 0.488281 4.83991 1.66823 3.73371 3.06942C3.06999 2.2582 1.74255 1.00451 0.783838 1.2995C0.341357 1.44699 0.120117 1.88947 0.120117 2.70068C0.120117 4.91309 1.37381 6.68301 1.89004 7.34673C1.37381 8.01045 0.120117 9.85412 0.120117 12.9515C0.120117 13.099 0.193864 13.2465 0.415104 13.3202C0.562598 13.394 0.710091 13.3202 0.857585 13.1727C1.15257 12.804 1.44756 12.3615 1.74255 12.0665C1.37381 13.2465 0.931331 15.1639 0.931331 16.4176C0.931331 16.5651 1.00508 16.7126 1.15257 16.7863C1.30007 16.8601 1.44756 16.7863 1.52131 16.7126C1.74255 16.4913 2.40627 15.9751 2.99624 15.6064C2.775 16.7863 2.48001 18.8512 3.29123 19.5887C3.43872 19.7362 3.65996 19.7362 3.80745 19.5887L4.83991 18.5562C5.1349 19.5149 5.79862 21.4324 6.97856 22.5386C6.97856 22.6123 7.12606 22.6123 7.27355 22.6123C7.42104 22.5386 7.49479 22.3911 7.49479 22.2436V20.8424C8.08477 21.7273 9.11722 22.6123 10.7396 22.6123H10.8871C12.5096 22.6123 13.542 21.6536 14.132 20.8424V22.2436C14.132 22.3911 14.2057 22.5386 14.3532 22.6123H14.5007C14.5745 22.6123 14.722 22.6123 14.722 22.5386C15.9019 21.4324 16.5656 19.5149 16.8606 18.5562L17.8931 19.5887C18.0406 19.7362 18.2618 19.7362 18.4093 19.5887C19.1468 18.8512 18.9255 16.7863 18.7043 15.6064C19.4418 16.0488 20.1055 16.7126 20.1792 16.7126H20.548C20.6955 16.6388 20.7692 16.4913 20.7692 16.3438C20.7692 15.0901 20.4005 13.0252 20.1792 11.919C20.4005 12.1403 20.6217 12.509 20.7692 12.804C20.843 12.9515 20.9904 13.0252 21.2117 13.0252C21.3592 12.9515 21.5067 12.804 21.5067 12.6565C21.5067 9.70662 20.3267 8.0842 19.8105 7.49422C20.4005 6.75675 21.8017 4.83934 21.5067 2.62694ZM4.39743 10.4441C3.14373 11.4028 3.58621 13.6152 3.58621 13.6152C3.65996 13.8364 3.51247 13.9839 3.29123 14.0577H3.21748C3.06999 14.0577 2.92249 13.9102 2.84875 13.7627C2.84875 13.6889 2.25877 11.1078 3.95495 9.85412C4.10244 9.70662 4.32368 9.78037 4.47118 9.92786C4.61867 10.0754 4.61867 10.2966 4.39743 10.4441ZM5.28239 9.11665C5.20864 9.0429 5.28239 8.89541 5.28239 8.82166C5.28239 8.74792 5.79862 7.86296 7.05231 7.86296C8.30601 7.86296 8.82223 8.74792 8.82223 8.82166C8.89598 8.89541 8.89598 9.0429 8.82223 9.1904C8.82223 9.26414 8.30601 10.1491 7.05231 10.1491C5.65112 10.0754 5.28239 9.11665 5.28239 9.11665ZM14.722 17.45C14.3532 17.8188 13.9108 18.04 13.3208 18.1138C13.247 19.5149 12.5833 19.5887 10.7396 19.5887H10.6659H10.5922C8.60099 19.5887 8.15851 19.4412 8.08477 18.1138C7.49479 18.04 7.05231 17.8188 6.68358 17.45C5.79862 16.4913 5.87236 14.8689 5.87236 14.7951C6.01986 14.6477 6.16735 14.5002 6.38859 14.5002C6.60983 14.5002 6.75732 14.7214 6.75732 14.8689C6.75732 14.8689 6.68358 16.1963 7.42104 16.9338C7.71603 17.2288 8.08477 17.3763 8.60099 17.3763C9.11722 17.3763 9.48595 17.2288 9.78094 16.9338C10.2972 16.4176 10.4447 15.3851 10.4447 14.6477V14.4264C9.63345 14.4264 9.26471 14.2789 8.67474 13.5415C8.52725 13.394 8.60099 13.1727 8.74849 13.0252C8.89598 12.8777 9.11722 12.9515 9.26471 13.099C9.70719 13.6889 9.85469 13.6889 10.8134 13.6889H10.9609C11.9196 13.6889 11.9933 13.6152 12.4358 13.099C12.5833 12.9515 12.8046 12.9515 12.9521 13.0252C13.0995 13.1727 13.0995 13.394 13.0258 13.5415C12.4358 14.2052 12.1408 14.3527 11.2559 14.4264V14.6477C11.2559 15.3851 11.3296 16.3438 11.9196 16.9338C12.2146 17.2288 12.5833 17.3763 13.0995 17.3763C13.6158 17.3763 13.9845 17.2288 14.2795 16.9338C14.9432 16.1963 14.9432 14.8689 14.9432 14.8689C14.9432 14.6477 15.0907 14.5002 15.3119 14.5002C15.5332 14.5002 15.6807 14.6477 15.6807 14.8689C15.6069 14.9426 15.6807 16.4913 14.722 17.45ZM16.2707 9.11665C16.2707 9.1904 15.7544 10.0754 14.5007 10.0754C13.0995 10.0754 12.7308 9.11665 12.6571 9.11665C12.5833 9.0429 12.6571 8.89541 12.6571 8.82166C12.6571 8.74792 13.1733 7.86296 14.427 7.86296C15.6807 7.86296 16.1969 8.74792 16.1969 8.82166C16.3444 8.89541 16.3444 9.0429 16.2707 9.11665ZM18.7043 13.7627C18.6306 13.9102 18.4831 14.0577 18.3356 14.0577H18.2618C18.0406 13.9839 17.9668 13.8364 17.9668 13.6152C17.9668 13.6152 18.4831 11.4028 17.1556 10.4441C17.0081 10.2966 16.9344 10.0754 17.0819 9.92786C17.2294 9.78037 17.4506 9.70662 17.5981 9.85412C19.2943 11.1078 18.7043 13.6889 18.7043 13.7627Z" fill="white"/>
</svg>
