<svg width="23" height="24" viewBox="0 0 23 24" fill="none" xmlns="http://www.w3.org/2000/svg">
<path d="M22.1937 3.11815C21.9724 2.08569 21.53 1.79071 21.0875 1.71696C20.1288 1.56947 19.0226 2.74941 18.5063 3.48688C17.3264 2.15944 15.0403 0.979492 13.4178 0.979492C12.6066 0.979492 12.4591 0.979492 12.0904 1.20073C12.0166 1.20073 11.9429 1.27448 11.8691 1.27448V3.56063C14.3765 2.08569 17.1789 4.1506 18.4326 5.47804C18.5801 5.62554 18.5801 5.84678 18.4326 5.99427C18.2851 6.14176 18.2114 6.14176 18.1376 6.14176C18.0639 6.14176 17.9164 6.06802 17.8426 5.99427C17.6951 5.84678 14.524 2.38068 11.8691 4.44559V5.18306C14.524 4.22435 16.5152 6.58424 16.5889 6.65799C16.6627 6.80548 16.6627 7.02673 16.5152 7.17422C16.4414 7.24797 16.3677 7.24797 16.2939 7.24797C16.2202 7.24797 16.0727 7.17422 15.999 7.10047C15.9252 7.02673 14.1553 4.96182 11.8691 5.99427V8.79665C11.7954 9.01789 11.6479 9.09163 11.5004 9.09163H11.4267C11.2792 9.01789 11.1317 8.87039 11.1317 8.7229V6.06802C8.84552 4.96182 7.0756 7.02673 7.00186 7.10047C6.92811 7.17422 6.78061 7.24797 6.70687 7.24797C6.63312 7.24797 6.55937 7.24797 6.48563 7.17422C6.26439 7.02673 6.26439 6.80548 6.41188 6.65799C6.41188 6.65799 8.47679 4.22435 11.1317 5.2568V4.51934C8.40304 2.38068 5.23193 5.92052 5.15819 6.06802C5.01069 6.06802 4.93695 6.14176 4.8632 6.14176C4.78945 6.14176 4.64196 6.14176 4.56821 6.06802C4.42072 5.92052 4.42072 5.69928 4.56821 5.55179C5.82191 4.1506 8.62428 2.15944 11.1317 3.63437V1.34823C11.0579 1.27448 10.9842 1.27448 10.9104 1.27448C10.5417 0.979492 10.3942 0.979492 9.58299 0.979492C7.88682 0.979492 5.52692 2.15944 4.42072 3.56063C3.757 2.74941 2.42956 1.49572 1.47085 1.79071C1.02837 1.9382 0.807129 2.38068 0.807129 3.19189C0.807129 5.4043 2.06082 7.17422 2.57705 7.83794C2.06082 8.50166 0.807129 10.3453 0.807129 13.4427C0.807129 13.5902 0.880876 13.7377 1.10212 13.8114C1.24961 13.8852 1.3971 13.8114 1.5446 13.6639C1.83958 13.2952 2.13457 12.8527 2.42956 12.5577C2.06082 13.7377 1.61834 15.6551 1.61834 16.9088C1.61834 17.0563 1.69209 17.2038 1.83958 17.2775C1.98708 17.3513 2.13457 17.2775 2.20832 17.2038C2.42956 16.9825 3.09328 16.4663 3.68325 16.0976C3.46201 17.2775 3.16702 19.3424 3.97824 20.0799C4.12573 20.2274 4.34697 20.2274 4.49447 20.0799L5.52692 19.0474C5.82191 20.0062 6.48563 21.9236 7.66558 23.0298C7.66558 23.1035 7.81307 23.1035 7.96056 23.1035C8.10806 23.0298 8.1818 22.8823 8.1818 22.7348V21.3336C8.77178 22.2186 9.80423 23.1035 11.4267 23.1035H11.5742C13.1966 23.1035 14.229 22.1448 14.819 21.3336V22.7348C14.819 22.8823 14.8928 23.0298 15.0403 23.1035H15.1877C15.2615 23.1035 15.409 23.1035 15.409 23.0298C16.5889 21.9236 17.2527 20.0062 17.5476 19.0474L18.5801 20.0799C18.7276 20.2274 18.9488 20.2274 19.0963 20.0799C19.8338 19.3424 19.6125 17.2775 19.3913 16.0976C20.1288 16.5401 20.7925 17.2038 20.8662 17.2038H21.235C21.3825 17.13 21.4562 16.9825 21.4562 16.835C21.4562 15.5813 21.0875 13.5164 20.8662 12.4102C21.0875 12.6315 21.3087 13.0002 21.4562 13.2952C21.53 13.4427 21.6775 13.5164 21.8987 13.5164C22.0462 13.4427 22.1937 13.2952 22.1937 13.1477C22.1937 10.1978 21.0137 8.57541 20.4975 7.98543C21.0875 7.24797 22.4887 5.33055 22.1937 3.11815ZM5.08444 10.9353C3.83075 11.894 4.27323 14.1064 4.27323 14.1064C4.34697 14.3277 4.19948 14.4751 3.97824 14.5489H3.90449C3.757 14.5489 3.60951 14.4014 3.53576 14.2539C3.53576 14.1802 2.94578 11.599 4.64196 10.3453C4.78945 10.1978 5.01069 10.2716 5.15819 10.4191C5.30568 10.5666 5.30568 10.7878 5.08444 10.9353ZM5.9694 9.60786C5.89565 9.53411 5.9694 9.38662 5.9694 9.31287C5.9694 9.23913 6.48563 8.35417 7.73932 8.35417C8.99302 8.35417 9.50924 9.23913 9.50924 9.31287C9.58299 9.38662 9.58299 9.53411 9.50924 9.68161C9.50924 9.75535 8.99302 10.6403 7.73932 10.6403C6.33813 10.5666 5.9694 9.60786 5.9694 9.60786ZM15.409 17.9412C15.0403 18.31 14.5978 18.5312 14.0078 18.605C13.9341 20.0062 13.2703 20.0799 11.4267 20.0799H11.3529H11.2792C9.288 20.0799 8.84552 19.9324 8.77178 18.605C8.1818 18.5312 7.73932 18.31 7.37059 17.9412C6.48563 16.9825 6.55937 15.3601 6.55937 15.2864C6.70687 15.1389 6.85436 14.9914 7.0756 14.9914C7.29684 14.9914 7.44434 15.2126 7.44434 15.3601C7.44434 15.3601 7.37059 16.6875 8.10806 17.425C8.40304 17.72 8.77178 17.8675 9.288 17.8675C9.80423 17.8675 10.173 17.72 10.468 17.425C10.9842 16.9088 11.1317 15.8763 11.1317 15.1389V14.9176C10.3205 14.9176 9.95173 14.7701 9.36175 14.0327C9.21426 13.8852 9.288 13.6639 9.4355 13.5164C9.58299 13.3689 9.80423 13.4427 9.95173 13.5902C10.3942 14.1802 10.5417 14.1802 11.5004 14.1802H11.6479C12.6066 14.1802 12.6804 14.1064 13.1228 13.5902C13.2703 13.4427 13.4916 13.4427 13.6391 13.5164C13.7866 13.6639 13.7866 13.8852 13.7128 14.0327C13.1228 14.6964 12.8278 14.8439 11.9429 14.9176V15.1389C11.9429 15.8763 12.0166 16.835 12.6066 17.425C12.9016 17.72 13.2703 17.8675 13.7866 17.8675C14.3028 17.8675 14.6715 17.72 14.9665 17.425C15.6302 16.6875 15.6302 15.3601 15.6302 15.3601C15.6302 15.1389 15.7777 14.9914 15.999 14.9914C16.2202 14.9914 16.3677 15.1389 16.3677 15.3601C16.2939 15.4339 16.3677 16.9825 15.409 17.9412ZM16.9577 9.60786C16.9577 9.68161 16.4414 10.5666 15.1877 10.5666C13.7866 10.5666 13.4178 9.60786 13.3441 9.60786C13.2703 9.53411 13.3441 9.38662 13.3441 9.31287C13.3441 9.23913 13.8603 8.35417 15.114 8.35417C16.3677 8.35417 16.8839 9.23913 16.8839 9.31287C17.0314 9.38662 17.0314 9.53411 16.9577 9.60786ZM19.3913 14.2539C19.3176 14.4014 19.1701 14.5489 19.0226 14.5489H18.9488C18.7276 14.4751 18.6538 14.3277 18.6538 14.1064C18.6538 14.1064 19.1701 11.894 17.8426 10.9353C17.6951 10.7878 17.6214 10.5666 17.7689 10.4191C17.9164 10.2716 18.1376 10.1978 18.2851 10.3453C19.9813 11.599 19.3913 14.1802 19.3913 14.2539Z" fill="#3B72FF"/>
</svg>
