<svg width="29" height="18" viewBox="0 0 29 18" fill="none" xmlns="http://www.w3.org/2000/svg">
<path d="M11.0039 0.459708C10.8225 0.45713 10.6385 0.461466 10.4522 0.472248C10.542 1.67652 10.6007 2.75506 10.4997 3.95096C11.5824 3.81004 12.432 3.46873 13.1187 3.09227C13.9328 2.53094 14.1816 2.02012 14.4999 1.40846C13.4512 0.826505 12.2875 0.478576 11.0039 0.459708ZM9.4039 0.597404C7.65628 0.894298 6.35251 1.54639 5.36034 2.41205C5.808 2.93893 6.20374 3.39426 6.89093 3.70756C7.84366 3.92922 8.68595 4.02057 9.43448 4.01928C9.5464 2.85936 9.49443 1.82113 9.4039 0.597404ZM15.3932 1.97887C15.1145 2.51119 14.7807 3.11002 14.0803 3.68793C14.5419 4.52875 14.9856 5.3817 15.3842 6.25539C15.6921 6.17588 16.0031 6.14031 16.3133 6.13762C16.7973 6.13317 17.2793 6.20734 17.744 6.3134C18.2745 6.43434 18.7899 6.59611 19.2828 6.75028C18.6667 5.54893 17.8935 4.3825 16.9743 3.3925C16.4845 2.86492 15.9576 2.38785 15.3931 1.97881L15.3932 1.97887ZM4.61404 3.16557C4.08493 3.78315 3.66657 4.47104 3.32573 5.19309C2.94997 5.98891 2.6798 6.81848 2.47613 7.63211C3.10601 7.43547 3.79542 7.27633 4.5412 7.1493C4.86159 6.21444 5.30281 5.28883 5.93316 4.38719C5.36245 4.02449 4.96507 3.58018 4.61398 3.16551L4.61404 3.16557ZM13.1824 4.24399C12.4274 4.60141 11.5054 4.89953 10.3943 5.01555C10.2808 6.49522 10.3348 7.87152 10.4518 9.21941C11.1979 9.06859 11.895 8.62938 12.5683 8.10584C13.1984 7.61588 13.7799 7.06065 14.4141 6.67381C14.0407 5.85625 13.6231 5.04901 13.1825 4.24393L13.1824 4.24399ZM6.93575 4.79945C6.35568 5.58731 5.94025 6.39649 5.63275 7.22465C6.52958 7.47643 7.26693 7.92766 7.93197 8.32815C8.44554 8.63752 8.91382 8.91039 9.3814 9.08313C9.27786 7.80889 9.23199 6.48742 9.33253 5.06711C8.60398 5.06383 7.80675 4.98332 6.9357 4.79951L6.93575 4.79945ZM25.213 6.07481C25.178 6.07516 25.1431 6.07633 25.1081 6.07844C24.773 6.09854 24.4398 6.20055 24.085 6.34738C23.6947 6.50881 23.0726 7.24469 22.6158 7.99346C22.8106 8.34736 22.9514 8.74733 23.0542 9.16193C23.2154 9.81203 23.2757 10.4973 23.2098 11.1087C23.2026 11.175 23.1939 11.2411 23.1841 11.3068L24.479 10.7455L24.7269 10.9444C24.7269 10.9444 25.1056 11.2478 25.5561 11.5601C25.7814 11.7162 26.0239 11.8735 26.2338 11.9902C26.4437 12.1071 26.6419 12.1752 26.6568 12.1774C27.2458 12.2631 27.758 12.0888 28.0859 11.7915C28.4138 11.4941 28.5739 11.0974 28.4655 10.5861C28.1441 9.07047 27.8602 7.65643 26.9136 6.8326C26.2744 6.27613 25.738 6.07088 25.213 6.07498V6.07481ZM16.3084 7.1933C16.137 7.19565 15.9706 7.21088 15.8093 7.24111C16.3275 8.5194 16.731 9.84736 16.9393 11.2511C17.7141 10.9965 18.4401 10.6895 19.1061 10.3287C19.1622 10.2984 19.1684 10.2994 19.1899 10.1014C19.2113 9.90332 19.1875 9.57988 19.1824 9.21484C19.1773 8.84981 19.1921 8.42945 19.3723 8.00998C19.3882 7.97307 19.406 7.93645 19.4249 7.90012C18.7731 7.70535 18.1263 7.48235 17.5095 7.34172C17.0862 7.24504 16.6854 7.18809 16.3085 7.1933H16.3084ZM25.5761 7.3044C26.0783 7.28899 26.5576 7.91752 26.5318 8.28801C26.491 8.74668 25.0232 8.61578 24.8305 7.88781C24.7578 7.61324 25.1794 7.37828 25.4756 7.31629C25.5091 7.30926 25.5427 7.30539 25.5761 7.3044ZM14.8409 7.66358C14.3809 7.97881 13.829 8.46151 13.2156 8.93846C12.4705 9.51795 11.6008 10.096 10.5551 10.2756C10.6234 10.9156 10.6988 11.5554 10.7716 12.2C12.5994 12.1689 14.341 11.9557 15.9171 11.5493C15.7318 10.2038 15.3475 8.91801 14.8408 7.66352L14.8409 7.66358ZM21.0881 7.90205C21.0713 7.90158 21.0539 7.90264 21.0357 7.9051C20.9872 7.91178 20.9329 7.92877 20.8681 7.95531C20.5359 8.0916 20.4235 8.23504 20.3412 8.42641C20.2591 8.61772 20.2327 8.88777 20.2371 9.2002C20.2414 9.51273 20.2775 9.85387 20.2385 10.2149C20.1994 10.5759 20.0246 11.0305 19.6086 11.2561C14.8982 13.8081 7.86523 13.8129 1.308 11.9944C1.08827 11.9586 0.99511 12.0032 0.918528 12.0687C0.840715 12.1352 0.77427 12.258 0.756633 12.4189C0.721477 12.7407 0.861809 13.1143 1.29687 13.2541C3.74509 14.0409 12.531 17.1193 21.9011 11.7238C21.9418 11.7004 22.1122 11.4483 22.1611 10.9955C22.21 10.5427 22.1636 9.95219 22.0304 9.41582C21.8974 8.87934 21.6694 8.39629 21.4442 8.1458C21.2963 7.98139 21.2059 7.9051 21.0881 7.90205ZM5.30925 8.2351C5.00398 9.35518 4.84841 10.5077 4.70954 11.688C6.3957 11.9911 8.08021 12.1632 9.71052 12.1969C9.63593 11.5429 9.55747 10.8872 9.48786 10.2222C8.703 10.0306 8.03257 9.6199 7.38786 9.23166C6.71005 8.82344 6.05368 8.43748 5.30925 8.23516V8.2351ZM4.2081 8.28572C3.46302 8.43438 2.79581 8.61836 2.21579 8.83779C2.06779 9.63842 1.97017 10.3968 1.88562 11.0581C2.47835 11.2168 3.07466 11.3595 3.67226 11.4859C3.79736 10.4288 3.94191 9.35565 4.2081 8.28572ZM18.8166 14.347C17.7172 14.7609 16.6351 15.0752 15.5793 15.3088C15.7489 15.6823 15.9393 16.0592 16.1694 16.386C16.5765 16.9639 16.9846 17.2801 17.4853 17.2292C18.7338 17.1006 19.7872 16.9853 20.6771 16.8002C20.3175 16.4949 19.9539 16.1738 19.6337 15.8255C19.3545 15.5213 19.1087 15.1994 18.9502 14.8311C18.8851 14.6798 18.8419 14.5155 18.8166 14.3471V14.347ZM3.28279 14.9494C2.83197 15.6566 2.24275 16.3199 1.53933 16.9478C2.63913 17.3087 3.63288 17.4503 4.99507 17.3046C5.41988 16.704 5.69585 16.1097 5.88382 15.5093C4.90355 15.3455 4.03138 15.146 3.28284 14.9494H3.28279Z" fill="white"/>
</svg>
