<svg width="28" height="18" viewBox="0 0 28 18" fill="none" xmlns="http://www.w3.org/2000/svg">
<path d="M10.3786 0.980216C10.1971 0.977638 10.0131 0.981974 9.82686 0.992756C9.91663 2.19703 9.97534 3.27557 9.87432 4.47147C10.957 4.33055 11.8066 3.98924 12.4933 3.61277C13.3075 3.05145 13.5562 2.54063 13.8745 1.92897C12.8259 1.34701 11.6621 0.999083 10.3786 0.980216ZM8.77856 1.11791C7.03095 1.41481 5.72718 2.0669 4.73501 2.93256C5.18266 3.45944 5.57841 3.91477 6.26559 4.22807C7.21833 4.44973 8.06061 4.54108 8.80915 4.53979C8.92106 3.37986 8.86909 2.34164 8.77856 1.11791ZM14.7678 2.49938C14.4892 3.0317 14.1554 3.63053 13.455 4.20844C13.9165 5.04926 14.3603 5.90221 14.7588 6.7759C15.0667 6.69639 15.3777 6.66082 15.6879 6.65813C16.1719 6.65367 16.654 6.72785 17.1187 6.83391C17.6492 6.95484 18.1646 7.11662 18.6575 7.27078C18.0414 6.06944 17.2682 4.90301 16.349 3.91301C15.8591 3.38543 15.3322 2.90836 14.7678 2.49932L14.7678 2.49938ZM3.9887 3.68608C3.4596 4.30365 3.04124 4.99154 2.7004 5.7136C2.32464 6.50942 2.05446 7.33899 1.85079 8.15262C2.48067 7.95598 3.17009 7.79684 3.91587 7.66981C4.23626 6.73494 4.67747 5.80934 5.30782 4.9077C4.73712 4.545 4.33974 4.10068 3.98864 3.68602L3.9887 3.68608ZM12.5571 4.76449C11.8021 5.12192 10.88 5.42004 9.76897 5.53606C9.65548 7.01572 9.70944 8.39203 9.82651 9.73992C10.5726 9.5891 11.2697 9.14988 11.9429 8.62635C12.573 8.13639 13.1545 7.58115 13.7888 7.19432C13.4154 6.37676 12.9978 5.56951 12.5572 4.76443L12.5571 4.76449ZM6.31042 5.31996C5.73034 6.10781 5.31491 6.91699 5.00741 7.74516C5.90425 7.99693 6.64159 8.44816 7.30663 8.84865C7.8202 9.15803 8.28849 9.4309 8.75606 9.60363C8.65253 8.3294 8.60665 7.00793 8.7072 5.58762C7.97864 5.58434 7.18142 5.50383 6.31036 5.32002L6.31042 5.31996ZM24.5877 6.59531C24.5527 6.59566 24.5178 6.59684 24.4828 6.59895C24.1476 6.61904 23.8145 6.72106 23.4596 6.86789C23.0694 7.02932 22.4473 7.7652 21.9905 8.51397C22.1853 8.86787 22.326 9.26783 22.4289 9.68244C22.5901 10.3325 22.6503 11.0178 22.5844 11.6292C22.5772 11.6955 22.5686 11.7616 22.5588 11.8273L23.8537 11.266L24.1015 11.4649C24.1015 11.4649 24.4803 11.7683 24.9308 12.0806C25.1561 12.2367 25.3986 12.394 25.6084 12.5107C25.8183 12.6276 26.0166 12.6957 26.0315 12.6979C26.6205 12.7836 27.1327 12.6093 27.4606 12.312C27.7884 12.0146 27.9486 11.6179 27.8402 11.1066C27.5187 9.59098 27.2349 8.17694 26.2883 7.35311C25.6491 6.79664 25.1127 6.59139 24.5877 6.59549V6.59531ZM15.683 7.71381C15.5117 7.71615 15.3453 7.73139 15.184 7.76162C15.7022 9.0399 16.1057 10.3679 16.314 11.7716C17.0888 11.517 17.8147 11.21 18.4808 10.8492C18.5368 10.8189 18.543 10.8199 18.5645 10.6219C18.5859 10.4238 18.5622 10.1004 18.557 9.73535C18.552 9.37031 18.5668 8.94996 18.747 8.53049C18.7628 8.49358 18.7807 8.45695 18.7996 8.42063C18.1478 8.22586 17.501 8.00285 16.8841 7.86223C16.4609 7.76555 16.0601 7.70859 15.6831 7.71381H15.683ZM24.9508 7.8249C25.4529 7.80949 25.9322 8.43803 25.9065 8.80852C25.8656 9.26719 24.3979 9.13629 24.2051 8.40832C24.1325 8.13375 24.5541 7.89879 24.8502 7.8368C24.8838 7.82977 24.9173 7.8259 24.9508 7.8249ZM14.2155 8.18408C13.7556 8.49932 13.2036 8.98201 12.5903 9.45897C11.8451 10.0385 10.9754 10.6165 9.92976 10.7961C9.99802 11.4362 10.0735 12.0759 10.1463 12.7205C11.9741 12.6894 13.7156 12.4763 15.2917 12.0698C15.1065 10.7243 14.7222 9.43852 14.2155 8.18402L14.2155 8.18408ZM20.4628 8.42256C20.4459 8.42209 20.4286 8.42315 20.4104 8.42561C20.3618 8.43229 20.3075 8.44928 20.2428 8.47582C19.9106 8.61211 19.7982 8.75555 19.7159 8.94691C19.6338 9.13822 19.6074 9.40828 19.6117 9.7207C19.6161 10.0332 19.6522 10.3744 19.6131 10.7354C19.5741 11.0964 19.3993 11.5511 18.9833 11.7766C14.2729 14.3286 7.23989 14.3334 0.682664 12.5149C0.462938 12.4791 0.369774 12.5237 0.293192 12.5892C0.215379 12.6557 0.148934 12.7785 0.131297 12.9394C0.096141 13.2612 0.236473 13.6348 0.671532 13.7746C3.11975 14.5614 11.9057 17.6398 21.2758 12.2443C21.3165 12.2209 21.4869 11.9688 21.5358 11.516C21.5846 11.0632 21.5382 10.4727 21.4051 9.93633C21.2721 9.39985 21.0441 8.9168 20.8188 8.66631C20.671 8.5019 20.5806 8.42561 20.4628 8.42256ZM4.68391 8.75561C4.37864 9.87568 4.22307 11.0282 4.08421 12.2085C5.77036 12.5116 7.45487 12.6837 9.08518 12.7174C9.01059 12.0635 8.93214 11.4077 8.86253 10.7428C8.07767 10.5512 7.40724 10.1404 6.76253 9.75217C6.08472 9.34395 5.42835 8.95799 4.68391 8.75567V8.75561ZM3.58276 8.80623C2.83768 8.95488 2.17048 9.13887 1.59046 9.3583C1.44245 10.1589 1.34483 10.9173 1.26028 11.5787C1.85302 11.7373 2.44932 11.88 3.04692 12.0064C3.17202 10.9494 3.31657 9.87615 3.58276 8.80623ZM18.1912 14.8675C17.0919 15.2814 16.0098 15.5957 14.9539 15.8293C15.1236 16.2028 15.314 16.5797 15.5441 16.9065C15.9511 17.4844 16.3593 17.8006 16.8599 17.7497C18.1084 17.6211 19.1619 17.5058 20.0518 17.3207C19.6921 17.0154 19.3285 16.6944 19.0084 16.346C18.7291 16.0419 18.4834 15.7199 18.3248 15.3516C18.2598 15.2003 18.2166 15.036 18.1912 14.8676V14.8675ZM2.65745 15.4699C2.20663 16.1771 1.61741 16.8404 0.913993 17.4683C2.0138 17.8292 3.00755 17.9708 4.36974 17.8251C4.79454 17.2245 5.07052 16.6302 5.25848 16.0298C4.27821 15.866 3.40604 15.6665 2.65751 15.4699H2.65745Z" fill="#3B72FF"/>
</svg>
