<svg width="15" height="16" viewBox="0 0 15 16" fill="none" xmlns="http://www.w3.org/2000/svg">
<path fill-rule="evenodd" clip-rule="evenodd" d="M15 8C15 10.0109 14.2085 11.837 12.9202 13.1838C11.5595 14.6061 9.64468 15.4938 7.52238 15.5H7.5H7.47762C5.35532 15.4938 3.44042 14.6061 2.07978 13.1838C0.79142 11.837 0 10.0109 0 8C0 3.85787 3.35787 0.5 7.5 0.5C11.6421 0.5 15 3.85787 15 8ZM12.0459 11.75C10.9651 10.4412 9.32994 9.60711 7.5 9.60711C5.67006 9.60711 4.03494 10.4412 2.95409 11.75C4.03494 13.0588 5.67006 13.8929 7.5 13.8929C9.32994 13.8929 10.9651 13.0588 12.0459 11.75ZM7.50013 8.53568C8.97946 8.53568 10.1787 7.33644 10.1787 5.85711C10.1787 4.37778 8.97946 3.17854 7.50013 3.17854C6.0208 3.17854 4.82156 4.37778 4.82156 5.85711C4.82156 7.33644 6.0208 8.53568 7.50013 8.53568Z" fill="#FF9F30"/>
</svg>
