<svg width="28" height="29" viewBox="0 0 28 29" fill="none" xmlns="http://www.w3.org/2000/svg">
<path fill-rule="evenodd" clip-rule="evenodd" d="M16.18 0.799299C15.9854 0.768833 15.7867 0.776997 15.5952 0.823327C15.4037 0.869657 15.2233 0.953245 15.0641 1.06932C14.905 1.18539 14.7702 1.33168 14.6676 1.49982C14.565 1.66797 14.4965 1.85468 14.466 2.0493C14.4355 2.24392 14.4437 2.44263 14.49 2.6341C14.5364 2.82556 14.6199 3.00602 14.736 3.16518C14.8521 3.32434 14.9984 3.45908 15.1665 3.56171C15.3347 3.66433 15.5214 3.73283 15.716 3.7633C18.4445 4.20266 20.9078 5.65263 22.6162 7.82499C24.3246 9.99734 25.1531 12.733 24.9369 15.4882C24.7207 18.2434 23.4757 20.8163 21.4493 22.6956C19.4229 24.5749 16.7636 25.6229 14 25.6313C11.7944 25.6317 9.63958 24.9693 7.81507 23.73C5.99056 22.4907 4.58057 20.7318 3.768 18.6813C3.69975 18.4924 3.59428 18.3192 3.45784 18.1719C3.3214 18.0246 3.15677 17.9061 2.97371 17.8236C2.79064 17.7411 2.59288 17.6962 2.39213 17.6915C2.19138 17.6868 1.99174 17.7225 1.80504 17.7965C1.61834 17.8704 1.44838 17.9811 1.30525 18.1219C1.16212 18.2627 1.04872 18.4309 0.971775 18.6163C0.894832 18.8018 0.855914 19.0009 0.857327 19.2017C0.85874 19.4025 0.900455 19.6009 0.98 19.7853C2.18153 22.8122 4.40042 25.3256 7.2549 26.8933C10.1094 28.4609 13.421 28.9847 16.6199 28.3745C19.8189 27.7643 22.7051 26.0583 24.7821 23.55C26.8592 21.0417 27.997 17.8879 28 14.6313C27.9998 11.2958 26.8092 8.06997 24.6423 5.53425C22.4754 2.99853 19.4746 1.31948 16.18 0.799299ZM12.328 1.9533C12.3773 2.14425 12.3885 2.34304 12.3608 2.5383C12.3332 2.73357 12.2674 2.92147 12.1671 3.09126C12.0668 3.26104 11.9339 3.40938 11.7762 3.52779C11.6185 3.6462 11.439 3.73234 11.248 3.7813C10.747 3.91022 10.2557 4.07464 9.778 4.2733C9.59612 4.34894 9.40112 4.38802 9.20414 4.3883C9.00716 4.38858 8.81205 4.35006 8.62995 4.27494C8.44785 4.19981 8.28234 4.08956 8.14285 3.95047C8.00337 3.81138 7.89264 3.64618 7.817 3.4643C7.74136 3.28242 7.70228 3.08742 7.702 2.89044C7.70172 2.69345 7.74024 2.49835 7.81536 2.31625C7.89049 2.13415 8.00074 1.96864 8.13983 1.82915C8.27892 1.68967 8.44412 1.57894 8.626 1.5033C9.23 1.2513 9.856 1.0413 10.502 0.875299C10.6928 0.826301 10.8914 0.815369 11.0864 0.843128C11.2815 0.870887 11.4691 0.936793 11.6387 1.03708C11.8083 1.13737 11.9564 1.27008 12.0747 1.42763C12.193 1.58518 12.279 1.76248 12.328 1.9533ZM6.37 4.4193C6.6467 4.70477 6.79875 5.08841 6.79275 5.48592C6.78675 5.88344 6.62319 6.26231 6.338 6.5393C5.59434 7.26411 4.9549 8.08864 4.438 8.9893C4.34292 9.16522 4.21363 9.32036 4.05773 9.44558C3.90182 9.57081 3.72245 9.6636 3.53016 9.71849C3.33787 9.77339 3.13655 9.78928 2.93803 9.76524C2.73951 9.74119 2.5478 9.6777 2.37418 9.57848C2.20056 9.47927 2.04853 9.34634 1.92702 9.18752C1.80552 9.02869 1.717 8.84718 1.66667 8.65364C1.61635 8.46011 1.60522 8.25847 1.63396 8.06057C1.66269 7.86268 1.73071 7.67253 1.834 7.5013C2.48902 6.35494 3.30235 5.30663 4.25 4.3873C4.53547 4.1106 4.91911 3.95855 5.31662 3.96455C5.71414 3.97055 6.09301 4.13411 6.37 4.4193ZM1.832 11.1913C2.2258 11.2468 2.58144 11.4565 2.82072 11.7741C3.06 12.0918 3.16333 12.4915 3.108 12.8853C3.03586 13.3988 2.99978 13.9167 3 14.4353C3 14.8331 2.84196 15.2147 2.56066 15.496C2.27936 15.7773 1.89782 15.9353 1.5 15.9353C1.10218 15.9353 0.720644 15.7773 0.43934 15.496C0.158035 15.2147 0 14.8331 0 14.4353C0 13.7693 0.046 13.1113 0.138 12.4673C0.193522 12.0735 0.40316 11.7179 0.720823 11.4786C1.03849 11.2393 1.43817 11.136 1.832 11.1913ZM9 18.3953V10.8673C9.00018 10.5265 9.08744 10.1914 9.25349 9.89384C9.41954 9.59625 9.65888 9.34603 9.94879 9.16691C10.2387 8.98779 10.5696 8.88573 10.91 8.87039C11.2504 8.85506 11.5892 8.92697 11.894 9.0793L19.422 12.8433C19.7538 13.0096 20.0327 13.2649 20.2277 13.5806C20.4226 13.8964 20.5259 14.2602 20.5259 14.6313C20.5259 15.0024 20.4226 15.3662 20.2277 15.6819C20.0327 15.9977 19.7538 16.253 19.422 16.4193L11.894 20.1833C11.5892 20.3356 11.2504 20.4075 10.91 20.3922C10.5696 20.3769 10.2387 20.2748 9.94879 20.0957C9.65888 19.9166 9.41954 19.6663 9.25349 19.3688C9.08744 19.0712 9.00018 18.7361 9 18.3953Z" fill="#FF9F30"/>
</svg>
