<svg width="12" height="14" viewBox="0 0 12 14" fill="none" xmlns="http://www.w3.org/2000/svg">
<path fill-rule="evenodd" clip-rule="evenodd" d="M4.5 0C4.10218 0 3.72065 0.158035 3.43934 0.43934C3.15804 0.720644 3 1.10218 3 1.5V2.691C2.30502 3.1743 1.73737 3.81867 1.34556 4.56904C0.95374 5.31942 0.749402 6.15349 0.750001 7C0.750001 8.784 1.64 10.36 3 11.309V12.5C3 12.8978 3.15804 13.2794 3.43934 13.5607C3.72065 13.842 4.10218 14 4.5 14H7.5C7.89783 14 8.27936 13.842 8.56066 13.5607C8.84197 13.2794 9 12.8978 9 12.5V11.309C9.69498 10.8257 10.2626 10.1813 10.6544 9.43096C11.0463 8.68058 11.2506 7.84651 11.25 7C11.25 5.216 10.36 3.64 9 2.691V1.5C9 1.10218 8.84197 0.720644 8.56066 0.43934C8.27936 0.158035 7.89783 0 7.5 0L4.5 0ZM2.25 7C2.25 6.00544 2.64509 5.05161 3.34835 4.34835C4.05161 3.64509 5.00544 3.25 6 3.25C6.99456 3.25 7.94839 3.64509 8.65165 4.34835C9.35491 5.05161 9.75 6.00544 9.75 7C9.75 7.99456 9.35491 8.94839 8.65165 9.65165C7.94839 10.3549 6.99456 10.75 6 10.75C5.00544 10.75 4.05161 10.3549 3.34835 9.65165C2.64509 8.94839 2.25 7.99456 2.25 7ZM6.688 5.044C6.688 4.87824 6.62215 4.71927 6.50494 4.60206C6.38773 4.48485 6.22876 4.419 6.063 4.419C5.89724 4.419 5.73827 4.48485 5.62106 4.60206C5.50385 4.71927 5.438 4.87824 5.438 5.044V6.956C5.438 7.122 5.503 7.281 5.621 7.398L6.746 8.523C6.8034 8.58381 6.87242 8.63249 6.94897 8.66615C7.02553 8.69981 7.10806 8.71776 7.19167 8.71894C7.27529 8.72013 7.35829 8.70452 7.43577 8.67304C7.51325 8.64157 7.58362 8.59486 7.64271 8.5357C7.70181 8.47653 7.74844 8.40611 7.77983 8.3286C7.81121 8.25109 7.82673 8.16807 7.82545 8.08445C7.82417 8.00083 7.80613 7.91833 7.77238 7.84181C7.73864 7.7653 7.68988 7.69633 7.629 7.639L6.688 6.697V5.044Z" fill="black" fill-opacity="0.5"/>
</svg>
