<svg width="148" height="148" viewBox="0 0 148 148" fill="none" xmlns="http://www.w3.org/2000/svg">
<g clip-path="url(#clip0_694_14546)">
<path d="M125.904 21.8043C112.085 7.97585 93.7098 0.356093 74.1324 0.347656C33.7902 0.347656 0.959712 33.1676 0.943561 73.508C0.938861 86.403 4.30815 98.9904 10.7122 110.086L0.329102 147.998L39.1273 137.825C49.817 143.655 61.8528 146.727 74.1009 146.732H74.132H74.1324C114.468 146.732 147.303 113.906 147.321 73.5673C147.327 54.0165 139.721 35.6338 125.904 21.8043ZM74.1324 134.375H74.1086C63.1913 134.369 52.4854 131.438 43.1472 125.897L40.9249 124.579L17.9012 130.616L24.0482 108.176L22.6003 105.875C16.5106 96.1925 13.2957 85.0027 13.3003 73.5127C13.3136 39.9831 40.6011 12.7052 74.1554 12.7052C90.4042 12.7119 105.676 19.0455 117.162 30.5394C128.647 42.0331 134.968 57.3124 134.963 73.5622C134.949 107.093 107.66 134.375 74.1324 134.375Z" fill="#E0E0E0"/>
<path d="M3.68896 143.794L13.5978 107.613C7.48468 97.0242 4.26992 85.0109 4.27377 72.7074C4.28981 34.2105 35.6209 2.89062 74.1169 2.89062C92.801 2.89906 110.337 10.1704 123.522 23.3675C136.709 36.5645 143.968 54.1063 143.96 72.762C143.944 111.26 112.611 142.582 74.1197 142.582C74.1216 142.582 74.1169 142.582 74.1197 142.582H74.0886C62.4 142.579 50.9149 139.645 40.7142 134.085L3.68896 143.794Z" fill="url(#paint0_linear_694_14546)"/>
<path fill-rule="evenodd" clip-rule="evenodd" d="M56.0469 42.4471C54.6928 39.4366 53.2672 39.3764 51.979 39.3237C50.9253 39.2785 49.7191 39.2813 48.5147 39.2813C47.3094 39.2813 45.3508 39.7342 43.6945 41.5431C42.0372 43.352 37.3667 47.725 37.3667 56.6187C37.3667 65.5135 43.8452 74.1078 44.7482 75.3149C45.6521 76.5202 57.2541 95.3549 75.6282 102.601C90.8987 108.623 94.0062 107.425 97.3208 107.123C100.635 106.822 108.016 102.751 109.522 98.53C111.029 94.3096 111.029 90.6919 110.577 89.9357C110.125 89.1823 108.92 88.7304 107.112 87.8264C105.304 86.9224 96.4168 82.5485 94.7595 81.9459C93.1022 81.3432 91.8969 81.0419 90.6916 82.8518C89.4863 84.6597 86.0239 88.7304 84.9693 89.9357C83.9146 91.1437 82.86 91.2944 81.052 90.3904C79.2441 89.4837 73.4219 87.5768 66.5151 81.4184C61.1412 76.6274 57.513 70.7101 56.4583 68.9003C55.4037 67.0924 56.3453 66.1131 57.2522 65.2119C58.0638 64.4021 59.0601 63.1017 59.9641 62.0461C60.8661 60.9905 61.1674 60.2372 61.7701 59.0319C62.3727 57.8246 62.0714 56.7692 61.6194 55.8652C61.1674 54.9612 57.6542 46.0215 56.0469 42.4471Z" fill="white"/>
<path d="M125.306 21.5698C111.645 7.90007 93.481 0.367933 74.1286 0.359375C34.2493 0.359375 1.79574 32.8026 1.77971 72.6799C1.77501 85.427 5.10561 97.8697 11.4362 108.838L1.17236 146.315L39.5252 136.258C50.0923 142.021 61.9899 145.058 74.0975 145.063H74.1282H74.1286C114.001 145.063 146.459 112.614 146.476 72.7382C146.483 53.4122 138.964 35.2405 125.306 21.5698ZM74.1286 132.848H74.1051C63.313 132.842 52.7299 129.945 43.499 124.467L41.3021 123.165L18.5427 129.132L24.6191 106.95L23.1878 104.676C17.168 95.1042 13.99 84.0427 13.9947 72.6847C14.0078 39.54 40.982 12.5753 74.1512 12.5753C90.2137 12.5819 105.31 18.8428 116.664 30.2047C128.018 41.5665 134.265 56.6703 134.261 72.7338C134.246 105.879 107.271 132.848 74.1286 132.848Z" fill="white"/>
</g>
<defs>
<linearGradient id="paint0_linear_694_14546" x1="73.8245" y1="143.794" x2="73.8245" y2="2.89086" gradientUnits="userSpaceOnUse">
<stop stop-color="#20B038"/>
<stop offset="1" stop-color="#60D66A"/>
</linearGradient>
<clipPath id="clip0_694_14546">
<rect width="147.651" height="147.651" fill="white" transform="translate(0 0.347656)"/>
</clipPath>
</defs>
</svg>
