<svg width="15" height="16" viewBox="0 0 15 16" fill="none" xmlns="http://www.w3.org/2000/svg">
<path fill-rule="evenodd" clip-rule="evenodd" d="M7.49777 0.501956C11.5891 0.498559 15 3.91628 15 7.99965C15 12.0864 11.5891 15.494 7.49777 15.4917C6.42261 15.4923 5.35984 15.2622 4.38119 14.817L0.667997 15.4883C0.569431 15.5063 0.46784 15.4979 0.373603 15.4638C0.279366 15.4298 0.195862 15.3713 0.131622 15.2944C0.0673813 15.2175 0.0247078 15.1249 0.00796101 15.0261C-0.00878578 14.9273 0.000994516 14.8259 0.0363026 14.7321L1.10045 11.9042C0.383524 10.7275 0.00366367 9.37642 0.00234056 7.99852C0.00347263 3.91515 3.411 0.50422 7.49777 0.501956ZM11.2619 11.1842C10.4276 11.8589 9.13588 12.5404 7.90079 11.7479C6.28193 10.7076 4.84873 9.34116 3.80949 7.72116C3.19931 6.77249 3.77326 5.25325 4.63137 4.32722C4.97326 3.95703 5.53703 4.0159 5.90948 4.35552L6.69287 5.07099C6.93061 5.28835 6.93966 5.66646 6.79136 5.954C6.55702 6.40457 6.41891 7.01022 6.70872 7.46192C7.07325 8.02796 7.52155 8.58607 8.59249 8.91097C8.91626 9.01059 9.33173 8.96757 9.68493 8.82493C9.9804 8.70493 10.3551 8.70607 10.5736 8.93927L11.3027 9.71474C11.7045 10.1427 11.7181 10.8151 11.2619 11.1842Z" fill="#FF9F30"/>
</svg>
