<svg width="149" height="149" viewBox="0 0 149 149" fill="none" xmlns="http://www.w3.org/2000/svg">
<g clip-path="url(#clip0_694_14551)">
<path d="M99.3058 72.9823C85.768 65.7477 72.8054 59.0966 59.5552 52.1523V93.6945C73.4984 86.1147 88.195 79.1732 99.3633 72.9823H99.3058Z" fill="white"/>
<path d="M62.1032 126.214C33.9838 125.696 24.3797 125.23 18.4764 124.014C14.4824 123.206 11.0117 121.412 8.46684 118.809C6.5 116.84 4.93583 113.835 3.7223 109.665C2.68135 106.192 2.27593 103.302 1.69792 96.2425C0.813116 80.3105 0.602186 67.2849 1.69792 52.7308C2.60191 44.6935 3.0402 35.1524 9.04485 29.586C11.8801 26.9809 15.1782 25.3044 18.8818 24.6114C24.6673 23.5129 49.316 22.6445 74.8329 22.6445C100.292 22.6445 124.996 23.5129 130.787 24.6114C135.414 25.4798 139.753 28.0821 142.3 31.4378C147.779 40.0558 147.875 50.7721 148.431 59.1545C148.661 63.1485 148.661 85.8275 148.431 89.8215C147.565 103.069 146.869 107.756 144.903 112.616C143.686 115.684 142.648 117.303 140.851 119.097C138.033 121.858 134.44 123.695 130.551 124.362C106.218 126.192 85.5547 126.589 62.1032 126.214ZM99.3665 72.9827C85.8287 65.7481 72.8661 59.0395 59.6159 52.0952V93.6401C73.5592 86.0604 88.2585 79.1161 99.424 72.9252L99.3665 72.9827Z" fill="#FF0000"/>
</g>
<defs>
<clipPath id="clip0_694_14551">
<rect width="147.651" height="147.651" fill="white" transform="translate(0.952637 0.675781)"/>
</clipPath>
</defs>
</svg>
