<svg width="148" height="149" viewBox="0 0 148 149" fill="none" xmlns="http://www.w3.org/2000/svg">
<g clip-path="url(#clip0_694_14539)">
<path d="M24.5842 90.7514L14.9242 90.5746C11.7965 90.5132 8.66101 90.6361 5.59472 89.9983C0.929968 89.0453 0.599516 84.3729 0.253694 80.4536C-0.222772 74.9435 -0.038334 69.3335 0.860803 63.8695C1.36801 60.8032 3.36609 58.9742 6.45544 58.7744C16.8839 58.052 27.3815 58.1365 37.7869 58.4747C38.8859 58.5054 39.9925 58.6745 41.0761 58.8666C46.4248 59.8042 46.5554 65.0991 46.9013 69.5563C47.2471 74.0597 47.1011 78.5861 46.4402 83.0588C45.9099 86.7629 44.8955 89.8676 40.615 90.1673C35.2509 90.5593 30.0098 90.8744 24.6303 90.7744C24.6303 90.7514 24.5996 90.7514 24.5842 90.7514ZM18.905 81.3758C22.9473 79.0549 26.9127 76.7725 30.932 74.467C26.882 72.1462 22.9243 69.8637 18.905 67.5583V81.3758Z" fill="#FF0000"/>
<path d="M124.634 86.5409C124.45 87.294 124.289 87.8857 124.127 88.5159H120.346V59.3516H124.757V70.1105C124.988 69.8184 125.103 69.6955 125.203 69.5648C125.956 68.5274 126.932 67.8511 128.192 67.5898C130.198 67.1979 131.912 68.0816 132.519 70.0106C132.911 71.2094 133.165 72.4928 133.195 73.7454C133.257 76.9654 133.211 80.1777 133.095 83.3977C133.049 84.3814 132.75 85.3881 132.373 86.3103C131.136 89.3535 127.094 89.8146 125.088 87.1787C124.965 87.0173 124.85 86.8406 124.634 86.5409ZM124.85 78.5178V83.8511C124.85 84.7195 125.311 85.2498 126.179 85.4496C127.032 85.6494 127.724 85.319 128.07 84.5274C128.216 84.197 128.362 83.8511 128.369 83.5053C128.454 80.2469 128.531 76.9885 128.554 73.7224C128.554 73.1153 128.408 72.4851 128.223 71.8934C127.877 70.8252 126.924 70.5101 125.987 71.1326C125.28 71.609 124.85 72.2853 124.85 73.1844V78.5178ZM112.861 68.0048H117.48V88.5313H113.875C113.745 87.7551 113.614 86.9558 113.46 86.0183C113.215 86.3795 113.069 86.61 112.915 86.8406C111.716 88.5697 110.018 89.1614 108.012 88.8463C106.298 88.5697 105.268 87.2479 105.038 85.0807C104.969 84.4352 104.938 83.782 104.938 83.1364C104.922 78.3334 104.938 73.5149 104.938 68.7118V67.9894H109.61V68.8271C109.61 73.4688 109.595 78.1028 109.626 82.7445C109.626 83.4054 109.695 84.0894 109.81 84.7503C109.941 85.4265 110.433 85.6725 111.093 85.6264C112.162 85.5418 112.899 84.7503 112.899 83.6897V68.9116C112.861 68.6119 112.861 68.3353 112.861 68.0048ZM81.0608 67.9894H85.7025V68.8578C85.7025 73.4765 85.6871 78.0874 85.7178 82.6907C85.7178 83.3516 85.7793 84.0356 85.9176 84.6811C86.0944 85.4419 86.5401 85.6878 87.3009 85.5879C88.3538 85.4419 88.9916 84.7118 88.9993 83.6436V68.9424V68.0202H93.6179V88.5313H90.0291C89.8984 87.7705 89.7678 86.9866 89.5987 85.9952C89.3682 86.3411 89.2375 86.5409 89.1069 86.7484C87.908 88.5082 86.225 89.1537 84.1732 88.8387C82.5286 88.5927 81.5219 87.3785 81.2145 85.3881C81.1299 84.7656 81.0684 84.1508 81.0684 83.5284C81.0531 78.5408 81.0531 73.5303 81.0531 68.5427L81.0608 67.9894ZM78.6784 78.9481C78.6631 79.6398 78.6169 80.3314 78.5785 81.0231C78.4018 83.098 78.3172 86.0413 76.6419 87.5553C75.5737 88.5082 74.2212 88.854 72.8225 88.9001C72.2 88.9155 71.5699 88.9155 70.9474 88.831C68.004 88.3852 66.6361 87.0865 66.1443 83.8511C65.5833 80.1163 65.5372 76.3199 66.2058 72.585C66.8974 68.7195 69.2797 67.3516 72.9839 67.6052C76.4421 67.8511 77.9868 70.1182 78.3941 73.3458C78.6169 75.1979 78.7245 77.073 78.6784 78.9481ZM73.9752 78.2411C73.9752 76.927 74.006 75.6052 73.9599 74.2911C73.9291 73.5303 73.8292 72.7618 73.6678 72.0087C73.4834 71.1403 72.9301 70.7253 72.2384 70.7406C71.5622 70.756 71.0857 71.171 70.8398 71.9779C70.7553 72.2776 70.663 72.585 70.663 72.8847C70.663 74.9443 70.6477 77.0115 70.6323 79.0711C70.6169 80.9923 70.371 83.0058 70.9781 84.8425C71.1626 85.4035 71.639 85.7109 72.2615 85.7109C72.8686 85.7109 73.2682 85.4112 73.4911 84.8732C73.6678 84.4582 73.8215 84.0048 73.8215 83.5591C73.8753 81.7916 73.9752 80.0164 73.9752 78.2411ZM59.3662 74.3756C59.7735 72.3852 60.1577 70.4409 60.5804 68.489C61.1107 66.0067 61.7024 63.5245 62.225 61.0346C62.3556 60.4275 62.6015 60.2814 63.1779 60.2968C64.4152 60.3429 65.6755 60.3122 66.9973 60.3122C66.567 61.8953 66.1443 63.4015 65.7293 64.8847C64.4152 69.5418 63.1011 74.2142 61.8023 78.8867C61.7024 79.2479 61.6563 79.6398 61.6563 80.024C61.6409 82.5754 61.6563 85.1191 61.6563 87.6705V88.5005H57.1452C57.1299 88.27 57.0991 88.0394 57.0991 87.8089C57.0991 86.3641 56.9838 84.9117 57.1145 83.4823C57.4449 80.0471 56.3537 76.8886 55.4699 73.6917C54.3018 69.4649 53.1183 65.2229 51.9502 60.9961C51.8887 60.7963 51.8657 60.5812 51.8042 60.3352H56.4075C57.3758 65 58.3518 69.6647 59.3662 74.3756ZM147.628 79.732H139.851C139.935 81.2921 139.966 82.7752 140.127 84.2431C140.242 85.2652 140.803 85.7032 141.687 85.7109C142.609 85.7263 143.147 85.2652 143.363 84.2508C143.432 83.9203 143.478 83.5898 143.509 83.2517C143.539 82.952 143.555 82.6292 143.578 82.1989C144.892 82.268 146.175 82.3449 147.443 82.3987C148.181 84.5889 146.851 87.4016 144.615 88.27C142.855 88.9616 141.049 88.9616 139.251 88.4314C137.922 88.0394 136.93 87.1941 136.485 85.8953C136.07 84.6811 135.678 83.4131 135.593 82.1451C135.363 79.0173 135.278 75.8588 135.754 72.7233C135.839 72.2008 135.985 71.7013 136.146 71.194C136.792 69.1037 138.198 67.8204 140.373 67.6052C141.557 67.4899 142.778 67.536 143.947 67.7358C145.837 68.0663 146.844 69.4265 147.282 71.2094C147.482 72.0471 147.628 72.9078 147.658 73.7608C147.666 75.7205 147.628 77.6648 147.628 79.732ZM143.209 77.0346C143.209 75.4899 143.224 74.0375 143.193 72.5773C143.193 72.2315 143.063 71.8703 142.932 71.5399C142.671 70.8943 142.125 70.7176 141.472 70.7176C140.819 70.7176 140.404 71.048 140.242 71.6398C139.751 73.415 139.912 75.2286 139.927 77.05C141.103 77.0346 142.171 77.0346 143.209 77.0346Z" fill="#282828"/>
<path d="M97.1839 64.0791H92.6113V60.375H106.26V64.0561H101.718V88.5019H97.1915L97.1839 64.0791Z" fill="#282828"/>
</g>
<defs>
<clipPath id="clip0_694_14539">
<rect width="147.651" height="147.651" fill="white" transform="translate(0 0.675781)"/>
</clipPath>
</defs>
</svg>
